<?xml version="1.0" encoding="UTF-8"?>
<svg id="Capa_1" data-name="Capa 1" xmlns="http://www.w3.org/2000/svg" viewBox="0 0 80 80">
  <path d="M68.29,8.52c-.03,1.22.04,2.44,0,3.66-.3,10.6-.98,21.23-1.31,31.81-.17,5.35.6,14.11-1.29,18.85-3.49,8.78-14.16,6.74-21.44,8.93-2.16.65-3.63,1.86-5.44,3.11-.88-.55-1.57-1.32-2.47-1.86-6.91-4.19-17.63-.8-22.85-8-2.36-3.25-1.75-5.31-1.71-8.99.14-15.73,0-31.46.15-47.18.25-.25,4.13.95,4.84,1.09,5.45,1.06,12.4.81,17.57-1.34,2.18-.9,4.01-2.42,6.09-3.48,2.49,1.18,4.87,2.62,7.47,3.56,6.65,2.41,13.79,2.45,20.38-.16ZM63.42,14.69c-.2-.2-3.42.83-4.02.93-4.33.73-8.81.06-12.91-1.46-2.25-.84-4.21-2.2-6.38-3.2-5.55,4.34-12.41,5.37-19.3,4.52-1.06-.13-2.89-.76-3.79-.75-.5,0-.51.47-.54.84-.61,6.29.62,13.46-.16,19.81.51,7.04-.66,15,0,21.93.37,3.85,3.61,6.48,7.11,7.51,5.19,1.52,11.09.61,15.54,4.37,1.19-.43,2.14-1.32,3.27-1.86,2.65-1.26,5.88-1.64,8.77-2.11,1.5-.24,3.26-.15,4.6-.92-1.05-.42-2.15-.74-2.99-1.56-.44-.43-.6-1.21-1.33-1.28-1.28-.12-4.33,1.33-5.85,1.45-.36.03-.69-.01-1.01-.18.01-1.85.78-2.78-.44-4.51-1.04-1.47-1.27-.82-1.93-2.94-.08-.25-.42-.46-.42-.73s.38-.43.48-.82c.17-.62.37-2.72.22-3.29-.11-.43-.29-.7-.62-1-.44-.4-2.26-1.6-2.76-1.14-.84.77-.66,3.53-.9,4.62-.35,1.55-3.95,4.77-5.02,6.35-1.86,2.74,2.44,2.46,2.92,4.63-.24.2-5.44-.86-6.17-1.05-.61-.16-1.42-.25-1.76-.85-.36-1.23,1.88-2.17,2.18-3.12.22-.72-.13-2.38.22-2.84.12-.15.39-.05.47-.12.11-.11.08-.95.29-1.26.11-.17.85-.67,1.13-.98.31-.35,1.43-1.57,1.51-1.9.21-.89-.23-1.33-.29-2.08-.15-1.8.35-3.57.01-5.33-.81-.58-2.04-.75-3.01-.59-.88.15-3.12,2.48-4,1.87-1.17-.81,2.33-2.29,2.54-2.69.15-.28-.11-.53-.26-.73-.8-1.09-4.12-4.42-5.3-4.93-2.66-1.15-5.75.59-5.56,3.61.1,1.63,1.58,4.59,2.9,5.55.94.69,1.26-.1,1.61.1.16.28,2.08,4.39,1.56,4.37-1.71-.27-3.19-1.13-4.62-2.03l.61-.95c-2.09-2.44-4.19-5.62-3.06-8.97s5.93-4.09,8.61-1.94c.89.71,4.27,4.59,4.82,4.76.62.19,2.82-.99,2.81-1.51-.53-1.7-5.97-2.38-6.14-3.92-.02-.22.15-.62.25-.82.39-.76,4.23-5.68,4.9-6.31.81-.77,3.24-1.29,3.49-1.86.55-1.22-1.01-3.2.32-5.04,1.54-2.12,3.62-.8,5.49-1.33.14-.04,1.18-1.41,1.09-.54-.1.92-.96,1.7-.98,2.77-.02.82.5,1.81.34,2.6-.09.47-.64.39-.65.8-.02.51.75,1.41.64,1.78-.14.48-.89.13-1.21.1-.24-.03-.47-.1-.4.24,1.17.51,2.81,4.71,3.56,4.89.17.04.32.09.49-.02l4.97-3.16c.86-.87.09-3.06.99-3.72,1.42-1.04,3.69-1.35,5.41-1.32.09.43-.11.28-.32.4-.68.41-3.75,1.92-4.01,2.24s-.36,1.09.16,1.07c.39-.02,2.23-1.23,2.7-1.53,1.64-1.06,2.64-2.28,4.89-2.18-1.51,2.74-4.75,3.11-6.82,5.28.28.31.55.44.97.34.54-.13,3.74-2.7,4.06-2.37-.2,1.39-2.97,4.14-4.28,4.05-.75-.05-2.17-1.05-2.7-.9l-5.11,3.34c-.34.55.72,2.19,1.23,2.51.84.53,1.93.06,2.89.36s2.19,2.01,1.07,2.8c-.72.5-1.05-.15-1.62-.3-1.21-.31-4.6.02-5.25-1.09-.37-.64-.21-1.48-1.26-1.65-1.85.44-.81,3.06-.12,4.17,1.53,2.44,4.01,5.33,4.29,8.38.24,2.63-.1,5.87,1,8.42.65,1.51,2.23,1.76,3.69,1.38-.64-6.17,6.31-9.1,9.96-3.99l.78,2.06,1.46-43.52Z"/>
</svg>