<?xml version="1.0" encoding="UTF-8"?>
<svg id="Capa_1" data-name="Capa 1" xmlns="http://www.w3.org/2000/svg" viewBox="0 0 80 80">
  <path d="M69.17,42.29c-.21-.59-.71-1.03-1.34-1.17l-14.84-3.37,13.99-3.17c.63-.14,1.13-.58,1.34-1.17.16-.46,1.49-4.86-2.29-16.6-.31-.95-1.35-1.48-2.34-1.19-.98.3-1.53,1.31-1.23,2.26,2.47,7.66,2.57,11.79,2.44,13.47l-10.28,2.33,6.24-3.49c.71-.4,1.07-1.18.89-1.96-.11-.46-2.71-11.29-11.96-17.16-.86-.55-2.02-.31-2.58.52-.27.4-.37.88-.27,1.36s.39.88.8,1.14c6.18,3.93,8.99,10.62,9.99,13.68l-11.58,6.47c.81-1.15,1.29-2.55,1.29-4.05,0-3.98-3.34-7.2-7.45-7.2s-7.45,3.22-7.45,7.2c0,1.5.47,2.89,1.29,4.05l-11.58-6.47c1-3.05,3.79-9.74,10-13.68.42-.26.7-.67.8-1.14s0-.95-.27-1.36c-.27-.4-.69-.68-1.18-.78-.49-.1-.99,0-1.4.26-9.25,5.87-11.85,16.7-11.96,17.16-.18.77.18,1.56.89,1.96l6.24,3.49-10.28-2.33c-.13-1.67-.03-5.8,2.44-13.47.31-.95-.24-1.96-1.23-2.26-.48-.14-.98-.1-1.42.12-.44.22-.77.6-.91,1.06-3.78,11.74-2.45,16.14-2.29,16.6.21.59.71,1.03,1.34,1.17l13.99,3.17-14.84,3.37c-.63.14-1.13.58-1.34,1.17-.16.46-1.49,4.86,2.29,16.6.31.95,1.35,1.48,2.34,1.19.98-.3,1.53-1.31,1.23-2.26-2.47-7.66-2.57-11.8-2.44-13.47l12.88-2.92-7.53,3.98c-.6.32-.97.92-.97,1.58,0,.25.06,6.27,5.51,16.45.86,1.62,1.83,3.27,2.87,4.91.54.85,1.69,1.12,2.56.6.43-.25.72-.65.84-1.12.12-.47.04-.95-.22-1.36-.99-1.57-1.91-3.15-2.74-4.69-3.73-6.96-4.73-11.77-5-13.78l6.01-3.18c-.54,1.34-.86,2.78-.93,4.24-.16,3.34.9,6.8,3.07,10.01,2.17,3.21,6.67,8.59,6.86,8.82.62.74,1.55,1.16,2.54,1.16.99,0,1.91-.44,2.52-1.19.19-.23,4.57-5.63,6.78-8.72,2.29-3.2,3.4-6.7,3.19-10.11-.09-1.45-.42-2.9-.99-4.24l6.08,3.21c-.26,1.99-1.25,6.76-5,13.78-.82,1.54-1.74,3.11-2.74,4.69-.36.56-.37,1.24-.03,1.82.34.58.94.92,1.63.92s1.25-.32,1.59-.86c1.04-1.65,2.01-3.3,2.87-4.91,5.45-10.18,5.51-16.2,5.51-16.45,0-.66-.37-1.27-.97-1.58l-7.53-3.98,12.88,2.92c.13,1.67.03,5.8-2.44,13.47-.18.55-.08,1.14.28,1.61.36.47.9.73,1.5.73.82,0,1.54-.51,1.78-1.27,3.78-11.74,2.46-16.14,2.29-16.6Z"/>
</svg>