<?xml version="1.0" encoding="UTF-8"?>
<svg id="Capa_1" data-name="Capa 1" xmlns="http://www.w3.org/2000/svg" viewBox="0 0 80 80">
  <path d="M35.2,47.45c0-3.66-3.01-6.62-6.72-6.62-.61,0-1.19.09-1.75.24-.63-3.02-3.34-5.29-6.59-5.29-3.38,0-6.16,2.45-6.64,5.64-.51-.12-1.03-.19-1.57-.19-3.71,0-6.72,2.96-6.72,6.62,0,2.67,1.61,4.97,3.93,6.02-.14.54-.23,1.1-.23,1.68,0,3.66,3.01,6.62,6.72,6.62,1.77,0,3.37-.68,4.57-1.78,1.2,1.1,2.8,1.78,4.57,1.78,3.71,0,6.72-2.96,6.72-6.62,0-.71-.12-1.39-.32-2.03,2.37-1.02,4.03-3.35,4.03-6.06ZM22.68,50.26l.59,3.37-3.07-1.59-3.07,1.59.59-3.37-2.49-2.39,3.44-.49,1.54-3.07,1.54,3.07,3.44.49-2.49,2.39Z"/>
  <path d="M74.8,47.45c0-3.66-3.01-6.62-6.72-6.62-.61,0-1.19.09-1.75.24-.63-3.02-3.34-5.29-6.59-5.29-3.38,0-6.16,2.45-6.64,5.64-.51-.12-1.03-.19-1.57-.19-3.71,0-6.72,2.96-6.72,6.62,0,2.67,1.61,4.97,3.93,6.02-.14.54-.23,1.1-.23,1.68,0,3.66,3.01,6.62,6.72,6.62,1.77,0,3.37-.68,4.57-1.78,1.2,1.1,2.8,1.78,4.57,1.78,3.71,0,6.72-2.96,6.72-6.62,0-.71-.12-1.39-.32-2.03,2.37-1.02,4.03-3.35,4.03-6.06ZM62.29,50.26l.59,3.37-3.07-1.59-3.07,1.59.59-3.37-2.49-2.39,3.44-.49,1.54-3.07,1.54,3.07,3.44.49-2.49,2.39Z"/>
  <path d="M20.13,34.57c.4,0,.79.03,1.18.09,3.5-6.55,10.48-11.03,18.51-11.03,8.04,0,15.04,4.5,18.53,11.07.45-.08.92-.13,1.39-.13,2.42,0,4.65,1.09,6.14,2.86-3.08-11.28-13.54-19.59-25.97-19.59-12.48,0-22.97,8.37-26,19.71,1.48-1.84,3.76-2.99,6.22-2.99Z"/>
  <path d="M52.42,39.37c.8-1.86,2.3-3.33,4.14-4.13-3.24-5.83-9.52-9.79-16.73-9.79-7.17,0-13.43,3.92-16.68,9.71,1.9.77,3.46,2.25,4.29,4.16,2.01-4.84,6.84-8.26,12.48-8.26,5.67,0,10.51,3.44,12.5,8.32Z"/>
</svg>