<?xml version="1.0" encoding="UTF-8"?>
<svg id="Capa_1" data-name="Capa 1" xmlns="http://www.w3.org/2000/svg" viewBox="0 0 80 80">
  <path d="M62.81,38.38q-.9-.49-.14-1.14c.84-.72.77-1.47-.18-2.01-.29-.16-.61-.29-.86-.5-.6-.5-1.16-1.03-1.83-1.64,1.92-.56,2.22-.85,2.45-2.21-.71.76-1.48,1.24-2.71.99.34.01.85-2.85.91-3.13.34-1.46.71-2.93.95-4.41.04-.23.17-.68.04-.9,1.16,1.96,1.11,3.41.51,5.57,1.64-1.43,2-3.89,1.11-6.66-1.24-3.88-4.29-5.64-8.5-5.47.32-1.19.62-2.34.92-3.48.19-.74.37-1.49.58-2.23.3-1.1.11-2.07-.79-3.05-.27.63-.49,1.15-.73,1.67-.09.2-.19.42-.35.55-.67.53-.81,1-.33,1.68.22.32.19.51-.03.79-1.03,1.28-2.4,1.85-4.03,1.96-.28.02-.65.17-.8.38-.95,1.37-2.71,1.42-3.75.05.12-.16.26-.33.36-.51.27-.5.06-1.37-.47-1.42-.83-.07-1.2-.61-1.66-1.11-.15-.16-.38-.25-.71-.46-.11.52-.24.92-.25,1.32-.02.41-.06.73-.4,1.05-.56.52-.42,1.27.23,1.67.17.11.36.18.54.27-.75,1.5-1.86,1.95-3.36,1.34-.4-.17-.66-.17-.89.22-.11.18-.26.33-.42.47-.78.68-1.87.8-2.52.27.08-.16.25-.33.24-.49-.01-.38,0-.86-.21-1.1-.21-.24-.69-.24-1.06-.33-.25-.06-.51-.08-.74-.19-.27-.13-.5-.33-.75-.5-.69.9-.45,2.12.48,2.91.4.34.73.75,1.09,1.13l-.07.29c-.43.08-1.03.38-1.28.2-2.51-1.83-5.32-2.19-8.3-1.8-4.41.59-7.33,2.98-8.26,6.98-.97,4.17.2,7.93,2.65,11.37.05.07.16.11.28.18-.47-1.47-.99-2.86-1.34-4.29-.52-2.12-.66-4.28.06-6.39.48-1.4,1.99-3.17,4.42-4.11-.02.11-.18.22-.25.29-.17.17-.34.33-.52.48-1.31,1.2-2.2,2.86-2.6,4.56-.4,1.7-.28,3.46.19,5.13.17.61.39,1.21.64,1.8,1.15,2.7,2.45,4.78,4.43,6.92,1.56,1.68,3.29,3.21,4.34,5.29.56,1.11.94,2.26.48,3.52-.39,1.08-1.55,1.77-2.72,1.62-1.06-.14-1.8-.92-1.9-1.99-.1-1.13.56-2.02,1.76-2.4.15-.05.28-.11.47-.19-.98-.46-2.46-.26-3.45.3-1.65.93-2.03,3.8-1.21,5.32,1.3,2.41,4.42,3.82,7.73,2.5,3.03-1.21,4.47-3.61,4.83-6.69.36-3.17-.62-6.06-1.96-8.89-.89-1.89-1.77-3.8-2.48-5.76-.4-1.1-.53-2.32-.67-3.5-.05-.39.24-.82.37-1.23.07.02.14.04.21.06.29.91.56,1.82.86,2.73,1.59,4.71,4.5,8.32,9.03,10.59.78.39,1.58.78,2.29,1.29.34.24.63.73.69,1.14.29,1.95.06,3.88-.39,5.79-.44,1.83-.99,3.56-2.11,5.12-1.04,1.45-2.04,2.94-3.11,4.37-.59.78-1.28,1.48-1.93,2.22.32,0,.58-.09.82-.21,1.04-.55,2.13-.61,3.17-.12,1.04.49,2.1,1.04,2.99,1.75,2.56,2.04,5.13,4.04,8.12,5.47,2.19,1.05,4.41,2.02,6.85,2.35.58.08,1.27.21,1.63-.39.39-.66-.16-1.17-.56-1.61-.94-1.03-1.94-2-2.91-3-2.98-3.05-5.37-6.28-5.76-11.71-.18-2.48-.06-4.92.65-7.32.52-1.74.84-1.91,2.59-1.51,2.02.46,4.06.82,6.16.53,1.8-.25,2.73-1.39,2.13-3.1-.22-.62-.07-1.12.61-1.45.56-.28.59-.77.16-1.22-.12-.13-.32-.19-.51-.3.45-.38.77-.59,1.01-.87.47-.53.36-1.17-.21-1.49Z"/>
</svg>