<?xml version="1.0" encoding="UTF-8"?>
<svg id="Capa_1" data-name="Capa 1" xmlns="http://www.w3.org/2000/svg" viewBox="0 0 80 80">
  <path d="M46.59,51.38c-.71-.37-1.37-.63-2.14-.64-.79-.01-1.4.26-1.9.77-.75.78-1.11,1.72-1.38,2.7-.2.72-.34,1.45-.53,2.27-.06-.23-.11-.37-.14-.52-.31-1.36-.65-2.71-1.6-3.85-.35-.42-.81-.79-1.31-1.06-.85-.46-1.74-.29-2.58.1-.19.09-.38.19-.59.29.15-.69.32-1.35.42-2.01.25-1.74-.34-3.18-2.04-4.18-2-1.16-4.63-.69-6,1.04-.1.13-.2.26-.37.47-.07-.61-.12-1.13-.2-1.65-.04-.28-.11-.55-.2-.82-.42-1.29-1.47-2-3-1.96-.65.02-1.32.15-1.94.33-.87.26-1.32.84-1.35,1.66-.07,1.52.43,2.88,1.43,4.11.72.88,1.44,1.77,2.16,2.65.07.09.13.18.2.28-.06,0-.12.03-.14.02-2.08-1.17-4.05-2.46-5.44-4.3-1.39-1.84-2-3.9-2.2-6.07-.15-1.61-.1-3.21.4-4.78.59-1.84,1.66-3.43,3.09-4.85,1.78-1.76,3.75-3.31,6.15-4.39,1.98-.88,4.03-1.62,6.22-2.01.16-.03.32-.03.52.03-.44.35-.9.69-1.32,1.05-1.64,1.41-2.59,3.12-2.73,5.14-.08,1.16.54,2.02,1.69,2.57,1.58.75,3.25,1.17,5.07,1.02.48-.04.75-.31.89-.65.35-.83.75-1.66.96-2.52.48-2.01.86-4.04,1.28-6.06.03-.14.06-.27.19-.41.19.69.38,1.37.56,2.06.11.4.32.49.77.46.73-.04,1.47-.06,2.2,0,.33.03.49-.02.58-.27.22-.62.42-1.24.63-1.87.04-.11.08-.22.22-.33.12.62.25,1.23.36,1.85.36,1.91.72,3.82,1.09,5.73.03.17.07.34.13.5.45,1.27.79,1.47,2.28,1.49,1.41.03,2.72-.26,3.95-.84,1.82-.86,2.45-2.15,1.9-3.9-.33-1.04-.93-1.95-1.66-2.81-.53-.63-1.11-1.22-1.67-1.83-.09-.1-.18-.2-.36-.39.39.06.67.08.93.15,4.7,1.21,8.83,3.25,12.07,6.54,2.03,2.06,3.07,4.5,3.27,7.22.18,2.51-.49,4.87-1.62,7.14-.52,1.05-1.37,1.91-2.35,2.65-1.19.91-2.44,1.76-3.67,2.63-.05-.04-.09-.08-.14-.12.08-.1.15-.2.24-.3,1.21-1.41,2.36-2.85,3.08-4.52.37-.86.55-1.74.32-2.65-.15-.63-.57-1.06-1.23-1.33-1.4-.58-2.84-.29-3.83.75-.75.79-1.06,1.74-1.3,2.72-.05.22-.09.44-.15.77-2.01-2.04-4.34-2.67-6.89-1.06-2.35,1.48-2.17,3.57-1.3,5.78Z"/>
  <path d="M40,16.2c-19.18,0-34.72,10.66-34.72,23.8s15.55,23.8,34.72,23.8,34.72-10.66,34.72-23.8-15.55-23.8-34.72-23.8ZM40,59.45c-15.67,0-28.38-8.71-28.38-19.45s12.7-19.45,28.38-19.45,28.38,8.71,28.38,19.45-12.7,19.45-28.38,19.45Z"/>
</svg>