<?xml version="1.0" encoding="UTF-8"?>
<svg id="Capa_1" data-name="Capa 1" xmlns="http://www.w3.org/2000/svg" xmlns:xlink="http://www.w3.org/1999/xlink" viewBox="0 0 80 80">
  <defs>
    <style>
      .cls-1 {
        clip-path: url(#clippath-2);
      }
    </style>
    <clipPath id="clippath-2">
      <path d="M171.62-61.22c-1.41,1.03-3.78,2.19-5.35,2.95-1.98.96-4.15,1.6-6.55,1.73-.13,0-.26,0-.4,0-.03,0-.08,0-.11-.06s.1-.1.16-.12c1.94-.51,3.75-1.2,5.45-2.04,2.37-1.17,4.38-2.61,5.75-4.48,1.67-2.27,2.2-4.72,1.8-7.27-.17-1.06-.49-2.11-.77-3.17-.06-.24-.38-1.41-.56-1.38-.24.04,0,.56-.25,1.56-.49,1.88-1.41,3.65-2.46,5.39-1.25,2.06-2.86,3.91-5.15,5.47-.56.38-1.19.74-1.61.77-.14,0-.22-.15-.12-.25.95-.92,4.21-4.4,5.28-6.24,1.67-2.87,2.45-5.87,1.84-9-.26-1.36-.82-2.66-1.6-3.92-.92-1.48-2.12-2.82-3.49-4.08-.1-.1-.78-.63-.52.07.54,1.41.79,2.93,1.02,4.41.25,1.61.23,3.23-.03,4.84-.22,1.4-.64,2.77-1.38,4.08-.26.47-.62,1.02-.91,1.37s-.47.35-.17-.4c.94-2.4.94-5.02.73-7.56-.15-1.84-.57-3.66-1.46-5.39-1.58-3.08-4.31-5.42-8.33-6.86-.89-.32-2.59-.72-3.68-.95-.23-.05-.36.26-.17.39.48.33.94.64,1.37.96,2.33,1.73,4.05,3.74,5.19,6.03,1.13,2.27,1.47,4.61,1.07,7-.37,2.18-1.25,4.26-3.2,5.97-1.06.93-2.32,1.73-3.48,2.59-.83.62-1.64,1.24-2.05,2.1-.38.8-.29,1.58.23,2.29,1.16,1.59,2.4,3.15,3.62,4.72.32.41.57.83.53,1.33-.05.64-.66,1.14-1.53,1.15-.75,0-1.49-.05-2.24-.1-2.24-.1-2.47-.93-2.47-.93-.1-1.23-.32-2.45-.89-3.63-.39-.81-.92-1.55-2.04-1.92-.44-.14-.95-.16-1.49-.25.09-.1.16-.21.27-.29.31-.26.64-.5.95-.76,1.36-1.13,2.36-2.3,3.06-3.68.25-.49.38-1.05.44-1.4.02-.12-.13-.2-.22-.11-.35.33-.93.87-1.08,1-1.28,1.09-2.8,1.96-4.65,2.52-.02,0-.04.02-.07.02-1,.3-2.04.52-3.04.82-1.49.46-2.69,1.16-3.35,2.29-.26.44-.48.9-.84,1.28-.42.44-.73.91-1,1.4-.42.76-.45,1.48-.42,1.78,0,.07.1.1.15.04.61-.64,1.04-.88,1.24-1,.43-.26.86-.51,1.32-.73.49-.24,1.08-.24,1.62-.01.56.24.77.64.63,1.08-.19.59-.41,1.2-.75,1.75-.26.41-.71.76-1.13,1.1-.28.23-.71.18-.93-.04-.33-.32-.72-.36-1.14-.34,0,0,0,0,0,0-.12.01-.25.02-.39.03-.75.04-1.5.11-2.24.1-.87-.01-1.47-.51-1.53-1.15-.04-.49.21-.91.53-1.33,1.22-1.57,2.46-3.13,3.62-4.72.52-.71.62-1.49.23-2.29-.41-.86-1.22-1.48-2.05-2.1-1.16-.86-2.42-1.67-3.48-2.59-1.95-1.71-2.84-3.78-3.2-5.97-.4-2.38-.05-4.73,1.07-7,1.14-2.29,2.86-4.3,5.19-6.03.44-.32.89-.63,1.37-.96.2-.13.07-.44-.17-.39-1.09.23-2.79.63-3.68.95-4.02,1.44-6.75,3.78-8.33,6.86-.89,1.74-1.31,3.55-1.46,5.39-.21,2.54-.21,5.15.73,7.56.29.75.04.63-.17.4s-.64-.9-.91-1.37c-.73-1.31-1.15-2.67-1.38-4.08-.26-1.62-.28-3.24-.03-4.84.23-1.48.49-3,1.02-4.41.26-.7-.42-.17-.52-.07-1.36,1.27-2.56,2.61-3.49,4.08-.78,1.25-1.33,2.56-1.6,3.92-.61,3.13.17,6.12,1.84,9,1.07,1.84,4.33,5.32,5.28,6.24.1.1.02.26-.12.25-.42-.02-1.05-.39-1.61-.77-2.3-1.56-3.9-3.41-5.15-5.47-1.05-1.74-1.97-3.5-2.46-5.39-.26-.99,0-1.52-.25-1.56-.19-.03-.5,1.14-.56,1.38-.27,1.05-.6,2.1-.77,3.17-.41,2.55.13,5,1.8,7.27,1.37,1.87,3.38,3.31,5.75,4.48,1.71.84,3.52,1.54,5.45,2.04.06.02.19.05.16.12s-.08.06-.11.06c-.13,0-.26.02-.4,0-2.4-.13-4.58-.77-6.55-1.73-1.57-.76-3.94-1.92-5.35-2.95-.11-.08-.27.03-.23.16.43,1.35,1.22,2.71,2.16,3.76,2.32,2.58,5.77,3.75,9.8,4.06,1.65.13,4.34.13,6.18-.13.19-.03.24.25.07.32-.99.42-2.64.65-3.67.7-2.4.11-7.03-.23-8.36-.32-.12,0-.19.14-.11.23.81.78,1.75,1.34,2.72,1.86,4.64,2.5,9.33,2.48,14.06.28.1-.04.18.07.11.15-2.02,2.16-5.05,2.65-8.32,2.83-.19.01-.25.26-.08.35,1.42.78,5.39,2.7,9.87,3.2.62.07.69.11.67-.38-.04-.91-.11-1.83-.16-2.74,0-.15,0-.31,0-.54.12.1.17.12.19.15.31.66.63,1.31.93,1.98h0c.09.21.18.43.27.64.09.22.17.43.25.65.05.13.1.26.16.39.03.07.05.13.08.2.05.13.1.25.16.38.02.06.05.11.07.17.08.18.16.36.24.54,0,0,0,0,0,0h0c.22.46.46.9.76,1.34.09.13.09.34.01.47-.18.29-.43.56-.65.83-1.15,1.41-2.36,2.8-2.95,4.42-.6,1.65-.18,3.13,1.36,4.41.29.25.43.22.64-.08.97-1.43,1.94-2.86,2.92-4.28.1-.14.27-.25.41-.38.04.23-.02.42-.07.61-.39,1.49-.76,2.98-1.17,4.47-.26.93-.18,1.09.97,1.62.13.06.36.15.49.2.6.22,1.21.43,1.86.47.65-.04,1.26-.25,1.86-.47.14-.05.36-.14.49-.2,1.15-.52,1.23-.68.97-1.62-.41-1.49-.78-2.98-1.17-4.47-.05-.19-.11-.38-.07-.61.14.12.31.24.41.38.98,1.42,1.95,2.85,2.92,4.28.2.3.34.33.64.08,1.54-1.29,1.95-2.76,1.36-4.41-.58-1.62-1.8-3.01-2.95-4.42-.22-.28-.47-.54-.65-.83-.08-.13-.08-.34.01-.47.79-1.17,1.22-2.42,1.72-3.67.35-.88.79-1.75,1.2-2.62.01-.03.06-.05.19-.15,0,.23,0,.39,0,.54-.05.91-.12,1.83-.16,2.74-.02.49.05.45.67.38,4.48-.49,8.44-2.42,9.87-3.2.17-.09.11-.34-.08-.35-3.28-.18-6.31-.68-8.32-2.83-.07-.08.01-.19.11-.15,4.73,2.2,9.42,2.22,14.06-.28.97-.52,1.91-1.09,2.72-1.86.09-.08.02-.23-.11-.23-1.33.09-5.96.43-8.36.32-1.03-.05-2.69-.28-3.67-.7-.17-.07-.11-.35.07-.32,1.85.26,4.53.26,6.18.13,4.03-.31,7.47-1.48,9.8-4.06.94-1.05,1.73-2.41,2.16-3.76.04-.13-.11-.24-.23-.16Z"/>
    </clipPath>
  </defs>
  <g>
    <path d="M27.55,58.36c-.05-.02-.11,0-.14.05-.25.51-.53,1-.74,1.53-.38.96-.7,1.15-1.66.79-1.38-.52-2.68-1.3-3.68-2.39-.74-.81-1.21-2.55-2.23-3-.05.11-.57,1.24-.51,1.29-.34-.3-.47-.76-.55-1.2-.45-2.33-.05-4.81,1.1-6.89.19-.35.41-.71.37-1.1s-.47-.77-.82-.58c-.19.1-.28.32-.36.52-.62,1.66-1.11,3.41-1.35,5.16-.07.5.35,3.48-.79,2-1.08-1.41-2.16-2.82-3.21-4.26-.23-.31-.36-.72-.45-1.1-.42-1.93-.24-3.84.34-5.69.62-1.97,2.16-2.97,4.12-3.21,1.23-.15,2.5,0,3.74.08.52.03.6.24.38,1.02-.02.07.06.12.12.08.96-.79,1.99-.68,3.05-.31.85.29,1.16.72.94,1.61-.31,1.2-1.35,2.75-1.67,3.94-.72,2.66-1.56,5.09-1.51,7.62,0,.06.04.11.1.13.07.02.15-.02.17-.1.04-.15.08-.31.11-.46.62-2.86,1.18-5.75,2.34-8.46.42-.99,1.04-1.9,1.64-2.8.94-1.4,4.1-.96,4.57.76.29,1.04.56,2.11.61,3.18.04.99.04,2.3.03,3.13,0,.07.11.08.12.01.22-1.22.64-3.63.93-5.01.09-.45.37-.87.61-1.28.25-.41.66-.51,1.11-.36.49.17.98.34,1.47.54.7.29.91.63.81,1.5-.25,2.33-.28,4.67.01,6.99.16,1.27.35,2.54.6,3.8.03.14.24.11.23-.03-.04-.75-.08-1.5-.07-2.25.01-2.66.07-5.33.13-7.99,0-.36.09-.72.16-1.07.19-.93.47-1.17,1.43-1.28,1.68-.19,1.39,1.86,1.45,2.92.1,1.67.19,3.34.29,5.01.02.32.15.75.48.72.91-3.07.38-6.5,1.71-9.42,1.2.47,2.06,1.68,2.1,2.95.96-.64.77-2.06,1.21-3.12.73-1.76,3.07-1.81,4.7-2.03.92-.12,1.88.02,2.83.04.85.02,1.43.47,1.79,1.17.85,1.73,1.48,3.5,1.98,5.35.17.63.95,4.08,1.34,4.05.83-2.08.2-3.8-.65-5.71-.25-.56-1.6-3.99.12-3.1.75.38,1.46.82,2.17,1.26.52.33,1.05.67,1.5,1.08.52.47,1.09.52,1.72.38.56-.13,1.12-.3,1.69-.42.73-.15.93.02.87.75-.27,3.04-1.48,5.73-3.26,8.19-.11.16-.28.28-.48.45-.07.06-.17.03-.21-.05-.09-.21-.16-.39-.21-.57-.05-.23-.06-.47-.09-.71h-.22c0,.36,0,.71-.02,1.05-.04.83-.37,1.55-.94,2.16-.35.37-.56.33-.79-.11-.14-.27-.25-.56-.37-.86-.01-.03-.06-.02-.06,0-.07.53-.1,1.03-.22,1.51-.2.82-1.14,1.54-1.98,1.62-.41.04-.56-.2-.61-.53-.08-.49-.12-.98-.19-1.47-.02-.17-.06-.34-.1-.5-.01-.05-.08-.04-.09,0-.09.83-.15,1.66-.34,2.46-.12.49-.46.97-.82,1.34-.53.55-.97.46-1.31-.21-.22-.44-.4-.91-.52-1.39-.48-1.85-.93-3.7-1.38-5.55-.04-.17-.04-.34-.04-.52,0-.07-.07-.13-.15-.11-.06.01-.1.08-.09.14.03.14.06.27.08.41.32,2.03.67,4.05.93,6.09.07.58-.09,1.21-.2,1.8-.11.56-.49.89-1.09.94-.57.05-.92-.26-1.12-.74-.43-1.04-.82-2.1-1.22-3.15-.05-.14-.12-.27-.27-.38.09.35.22.7.25,1.05.06.9.16,1.82.08,2.71-.08.88-.73,1.44-1.57,1.75-1.27.46-1.03-1.06-.83-1.81.11-.4.23-.81.16-1.22s-.37-.81-.79-.84c-.24.21-.3.55-.28.86s.12.62.14.93c.05.74-.54,2.22-1.14,2.71-.49.4-2.36.14-2.17-.77-.12.59-1.07,2.15-1.91,1.27-.12-.13-.15-.31-.16-.48-.13-1.26-.16-2.52-.08-3.78.02-.29.04-.58-.06-.85s-.35-.51-.64-.5c-.32.45-.39,1.03-.36,1.58s.14,1.09.14,1.64c.01,2.02-1.04,2.9-3.02,2.82-.75-.03-1.22-.88-1.36-1.52-.11-.49-.1-1-.09-1.51,0-.28,0-.57-.1-.83s-.32-.5-.6-.54c-.22.17-.29.47-.26.75s.11.54.12.82c.02.46-.09,1.51-.26,1.93-.27.64-.71.62-1.43.61-1.56-.03-3.02-.69-4.18-1.7-.91-.8-1.23-1.85-1.02-3.04,0-.05-.02-.1-.07-.12Z"/>
    <path d="M42.5,27.41c.04.12.09.24.17.34.31-.28.45-.69.58-1.08.79-2.37,1.48-4.71,2.36-7.04.06-.16.12-.34.23-.46.18-.19.47-.53.6-.48.25.08.57.38.59.61.04.49-.05,1.01-.15,1.5-.07.33-.25.63-.44,1.09.47-.58.82-1.06,1.23-1.5.48-.51.73-.51,1.29-.09.54.4,1.05.84,1.63,1.2.78.48,1.03,1.16.91,2-.09.59-.27,1.17-.36,1.78.28-.49.58-.97.84-1.47.24-.46.82-.65,1.3-.42,1.24.6,2.52,1.12,3.75,1.73.66.32,1.28.63,1.49,1.28s.04,1.73.06,2.45c.01.6.03,1.2-.11,1.78-.23.99-.89,1.97-.58,2.94.01.04.03.09.07.11.08.03.15-.06.19-.14.51-1.14.99-2.28,1.65-3.34.54-.88.67-1.28,1.65-.74.38.41.41,1.04.27,1.57s-.4,1.04-.53,1.58c-.05.22.03.56.25.51.14-.43.47-.83.92-.92s.98.25.96.7c-.02.36-.34.7-.22,1.03.14.38.69.36,1.08.24s.89-.25,1.15.07c.46.55-.63,1.38-.29,2.01.17-.19.34-.39.51-.58.06-.06.12-.13.21-.14.08,0,.16.04.23.09.21.15.55.32.69.54.16.25.06.58.31.82.17.16.48.21.64.04.12-.12.13-.32.25-.43.14-.14.4-.12.56.02s.22.34.23.54c.03.53-.25,1.02-.54,1.46-.15.22-.32.46-.35.72s.12.58.4.62c.25.03.46-.16.65-.33.51-.46,1.11-.78,1.77-1s.96-.03,1.56.3c.47.25.98.45,1.47.66.5.22.55.44.09.69-.74.41-1.51.78-2.3,1.08-1.15.43-2.31.84-3.47,1.24-.96.33-2.07.89-3.09.45-.17-.08-.34-.19-.43-.35s-.06-.4.09-.51c-.19-.24-.57-.17-.83-.01s-.49.38-.8.42c-.49.05-.88-.44-1.01-.91-.11-.41-.24-.95-.66-.98-.33-.03-.59.3-.92.33-.4.04-.7-.34-.9-.69s-.45-.75-.86-.76c-.16,0-.31.05-.46.06-.41.04-.83-.28-.89-.68-.03-.18,0-.37-.04-.55s-.21-.36-.39-.32c-.19.04-.25.26-.38.4-.69.73-1.24-.95-1.39-1.3-.77.86-.8.87-1.85.5-.4-.14-.79-.29-1.19-.44l.44-.86c-.55.37-1.03.73-1.47.25-.32-.35-.48-.83-.68-1.21-.32.16-.71.35-1.13.56-.08-.68-.14-1.24-.2-1.82-.57.3-1.07.55-1.67.86-.01-.74.02-1.48.01-2.22,0-.14,0-.29-.05-.42s-.17-.25-.31-.26c-.42.49-.19.9-.29,1.42-.1.49-.53.96-.96,1.2-.66.37-2.5,1.01-2.92.07-.08-.17-.1-.36-.17-.54-.12-.27-.38-.48-.68-.53-.42-.07-.62.5-.86.72-.28.28-.69.47-1.07.58-.79.23-1.61.08-2.37-.17-1.06-.35-2.31-1.07-2.9-2.05-.25-.42-.33-.91-.62-1.34-.15-.23-1.15-1.08-1.15-1.25.02,1.35.12,2.83,1.08,3.79.28.28.63.5.83.84s.21.85-.13,1.05c-.93-.46-1.9-.95-2.53-1.77-.42-.55-.65-1.21-.84-1.87-.45-1.51-.62-3.08-.7-4.65-.05-.95.45-2.31,0-3.18-.05-.1-.12-.2-.23-.25-1.26-.61-.23,6.71-.26,7.2-.03.57-.4.92-.86.43-.28-.31-.11-.63-.16-.98-.12-.75-.41-1.49-.65-2.2-.28-.81-.48-1.79-.86-2.55-.16-.32-.45-.59-.8-.64-.04,0-.09,0-.13,0-.05.02-.09.08-.11.13-.33.71.12,1.33.42,1.94s.32,1.39.51,2.06c.43,1.51,1.18,2.91,2.01,4.24.15.24.31.5.3.79,0,.14-.05.28-.1.42-.04.13-.09.26-.19.35-.15.13-.37.13-.56.06-.96-.4-1.29-1.95-2.27-2.24-.05-.02-.11-.03-.16,0-.07.02-.11.09-.14.15-.5.91.33,2.35-.42,3.09-1.62,1.6-3.7-1.79-4.94-2.38.07.12.14.24.21.36.69,1.18,1.21,2.94-.8,2.25-.95-.33-1.89-.66-2.84-.98-.18-.06-.42-.09-.53.07-.13.2.11.43.24.63.23.34.15.78.06,1.18-.03.12-.06.25-.15.35-.12.13-.33.14-.51.15-.7.01-1.92-.3-2.36.11-.49.46-.24,1.22-1.31.78-.49-.2-.93-.51-1.39-.76,0,.3.13.71,0,.84-.22.21-.62.31-.95.32-1.18.07-2.36.08-3.53.11-.12,0-.24,0-.34-.03-.29-.11-.58-.24-.87-.36.13-.24.23-.5.38-.73.36-.54.75-1.06,1.13-1.59.5-.7.91-.79,1.67-.38.25.13.45.24.72.21-.08-1.15-.72-2.44-1.07-3.55-.04-.12-.06-.28.05-.34.07-.03.14-.01.21.01,1.02.35,1.88.77,2.81,1.31.17.1.37.2.56.14.28-.1.31-.48.25-.76-.08-.37-.21-1.05-.46-1.34-.18-.22-.49-.44-.4-.7.03-.07.08-.14.14-.19.23-.19.56-.27.86-.21.28.06.51.23.75.39s.5.3.79.29.58-.23.57-.51c-.03-.57-1.3-1.01-1.59-1.54-.08-.15-.1-.32-.11-.49-.02-.25-.04-.5-.06-.75-.01-.17-.02-.36.06-.51.17-.3.62-.29.93-.16s.62.35.96.36c.18,0,.37-.06.45-.22.11-.21-.04-.45-.12-.67-.3-.79.21-1.65.81-2.25.64-.64,2.94-2.28,3.78-1.42.75.77.23,2.33,1.18,3,.05.03.1.06.15.05.06-.01.1-.07.13-.13.43-.92-.47-2.28-.69-3.19-.17-.7.02-1.28.59-1.79,2.26-1.99,4.84-3.47,7.6-4.65,1.38-.59,2.69-.31,3.95.37.78.42,1.56.85,2.35,1.25.69.35,1.15.3,1.62.87.41.49.75,1.28.72,1.92,0,.21-.06.42-.06.64,0,.36.12.71.12,1.07,0,.32-.08.64-.15.96-.23.97-.36,1.97-.38,2.96,0,.28,0,.58.21.77.63-.79.49-1.9.58-2.9.06-.67.47-1.3.63-1.94.34-1.36.84-3.91,2.21-4.63.48-.25,1.04-.28,1.57-.29.5,0,1.03,0,1.48.21,1.5.68.53,3.03-.03,4.07-.7,1.3-1.12,2.82-1.35,4.28-.05.33-.08.69,0,1.01Z"/>
  </g>
  <g>
    <path d="M171.62-61.22c-1.41,1.03-3.78,2.19-5.35,2.95-1.98.96-4.15,1.6-6.55,1.73-.13,0-.26,0-.4,0-.03,0-.08,0-.11-.06s.1-.1.16-.12c1.94-.51,3.75-1.2,5.45-2.04,2.37-1.17,4.38-2.61,5.75-4.48,1.67-2.27,2.2-4.72,1.8-7.27-.17-1.06-.49-2.11-.77-3.17-.06-.24-.38-1.41-.56-1.38-.24.04,0,.56-.25,1.56-.49,1.88-1.41,3.65-2.46,5.39-1.25,2.06-2.86,3.91-5.15,5.47-.56.38-1.19.74-1.61.77-.14,0-.22-.15-.12-.25.95-.92,4.21-4.4,5.28-6.24,1.67-2.87,2.45-5.87,1.84-9-.26-1.36-.82-2.66-1.6-3.92-.92-1.48-2.12-2.82-3.49-4.08-.1-.1-.78-.63-.52.07.54,1.41.79,2.93,1.02,4.41.25,1.61.23,3.23-.03,4.84-.22,1.4-.64,2.77-1.38,4.08-.26.47-.62,1.02-.91,1.37s-.47.35-.17-.4c.94-2.4.94-5.02.73-7.56-.15-1.84-.57-3.66-1.46-5.39-1.58-3.08-4.31-5.42-8.33-6.86-.89-.32-2.59-.72-3.68-.95-.23-.05-.36.26-.17.39.48.33.94.64,1.37.96,2.33,1.73,4.05,3.74,5.19,6.03,1.13,2.27,1.47,4.61,1.07,7-.37,2.18-1.25,4.26-3.2,5.97-1.06.93-2.32,1.73-3.48,2.59-.83.62-1.64,1.24-2.05,2.1-.38.8-.29,1.58.23,2.29,1.16,1.59,2.4,3.15,3.62,4.72.32.41.57.83.53,1.33-.05.64-.66,1.14-1.53,1.15-.75,0-1.49-.05-2.24-.1-2.24-.1-2.47-.93-2.47-.93-.1-1.23-.32-2.45-.89-3.63-.39-.81-.92-1.55-2.04-1.92-.44-.14-.95-.16-1.49-.25.09-.1.16-.21.27-.29.31-.26.64-.5.95-.76,1.36-1.13,2.36-2.3,3.06-3.68.25-.49.38-1.05.44-1.4.02-.12-.13-.2-.22-.11-.35.33-.93.87-1.08,1-1.28,1.09-2.8,1.96-4.65,2.52-.02,0-.04.02-.07.02-1,.3-2.04.52-3.04.82-1.49.46-2.69,1.16-3.35,2.29-.26.44-.48.9-.84,1.28-.42.44-.73.91-1,1.4-.42.76-.45,1.48-.42,1.78,0,.07.1.1.15.04.61-.64,1.04-.88,1.24-1,.43-.26.86-.51,1.32-.73.49-.24,1.08-.24,1.62-.01.56.24.77.64.63,1.08-.19.59-.41,1.2-.75,1.75-.26.41-.71.76-1.13,1.1-.28.23-.71.18-.93-.04-.33-.32-.72-.36-1.14-.34,0,0,0,0,0,0-.12.01-.25.02-.39.03-.75.04-1.5.11-2.24.1-.87-.01-1.47-.51-1.53-1.15-.04-.49.21-.91.53-1.33,1.22-1.57,2.46-3.13,3.62-4.72.52-.71.62-1.49.23-2.29-.41-.86-1.22-1.48-2.05-2.1-1.16-.86-2.42-1.67-3.48-2.59-1.95-1.71-2.84-3.78-3.2-5.97-.4-2.38-.05-4.73,1.07-7,1.14-2.29,2.86-4.3,5.19-6.03.44-.32.89-.63,1.37-.96.2-.13.07-.44-.17-.39-1.09.23-2.79.63-3.68.95-4.02,1.44-6.75,3.78-8.33,6.86-.89,1.74-1.31,3.55-1.46,5.39-.21,2.54-.21,5.15.73,7.56.29.75.04.63-.17.4s-.64-.9-.91-1.37c-.73-1.31-1.15-2.67-1.38-4.08-.26-1.62-.28-3.24-.03-4.84.23-1.48.49-3,1.02-4.41.26-.7-.42-.17-.52-.07-1.36,1.27-2.56,2.61-3.49,4.08-.78,1.25-1.33,2.56-1.6,3.92-.61,3.13.17,6.12,1.84,9,1.07,1.84,4.33,5.32,5.28,6.24.1.1.02.26-.12.25-.42-.02-1.05-.39-1.61-.77-2.3-1.56-3.9-3.41-5.15-5.47-1.05-1.74-1.97-3.5-2.46-5.39-.26-.99,0-1.52-.25-1.56-.19-.03-.5,1.14-.56,1.38-.27,1.05-.6,2.1-.77,3.17-.41,2.55.13,5,1.8,7.27,1.37,1.87,3.38,3.31,5.75,4.48,1.71.84,3.52,1.54,5.45,2.04.06.02.19.05.16.12s-.08.06-.11.06c-.13,0-.26.02-.4,0-2.4-.13-4.58-.77-6.55-1.73-1.57-.76-3.94-1.92-5.35-2.95-.11-.08-.27.03-.23.16.43,1.35,1.22,2.71,2.16,3.76,2.32,2.58,5.77,3.75,9.8,4.06,1.65.13,4.34.13,6.18-.13.19-.03.24.25.07.32-.99.42-2.64.65-3.67.7-2.4.11-7.03-.23-8.36-.32-.12,0-.19.14-.11.23.81.78,1.75,1.34,2.72,1.86,4.64,2.5,9.33,2.48,14.06.28.1-.04.18.07.11.15-2.02,2.16-5.05,2.65-8.32,2.83-.19.01-.25.26-.08.35,1.42.78,5.39,2.7,9.87,3.2.62.07.69.11.67-.38-.04-.91-.11-1.83-.16-2.74,0-.15,0-.31,0-.54.12.1.17.12.19.15.31.66.63,1.31.93,1.98h0c.09.21.18.43.27.64.09.22.17.43.25.65.05.13.1.26.16.39.03.07.05.13.08.2.05.13.1.25.16.38.02.06.05.11.07.17.08.18.16.36.24.54,0,0,0,0,0,0h0c.22.46.46.9.76,1.34.09.13.09.34.01.47-.18.29-.43.56-.65.83-1.15,1.41-2.36,2.8-2.95,4.42-.6,1.65-.18,3.13,1.36,4.41.29.25.43.22.64-.08.97-1.43,1.94-2.86,2.92-4.28.1-.14.27-.25.41-.38.04.23-.02.42-.07.61-.39,1.49-.76,2.98-1.17,4.47-.26.93-.18,1.09.97,1.62.13.06.36.15.49.2.6.22,1.21.43,1.86.47.65-.04,1.26-.25,1.86-.47.14-.05.36-.14.49-.2,1.15-.52,1.23-.68.97-1.62-.41-1.49-.78-2.98-1.17-4.47-.05-.19-.11-.38-.07-.61.14.12.31.24.41.38.98,1.42,1.95,2.85,2.92,4.28.2.3.34.33.64.08,1.54-1.29,1.95-2.76,1.36-4.41-.58-1.62-1.8-3.01-2.95-4.42-.22-.28-.47-.54-.65-.83-.08-.13-.08-.34.01-.47.79-1.17,1.22-2.42,1.72-3.67.35-.88.79-1.75,1.2-2.62.01-.03.06-.05.19-.15,0,.23,0,.39,0,.54-.05.91-.12,1.83-.16,2.74-.02.49.05.45.67.38,4.48-.49,8.44-2.42,9.87-3.2.17-.09.11-.34-.08-.35-3.28-.18-6.31-.68-8.32-2.83-.07-.08.01-.19.11-.15,4.73,2.2,9.42,2.22,14.06-.28.97-.52,1.91-1.09,2.72-1.86.09-.08.02-.23-.11-.23-1.33.09-5.96.43-8.36.32-1.03-.05-2.69-.28-3.67-.7-.17-.07-.11-.35.07-.32,1.85.26,4.53.26,6.18.13,4.03-.31,7.47-1.48,9.8-4.06.94-1.05,1.73-2.41,2.16-3.76.04-.13-.11-.24-.23-.16Z"/>
    <g class="cls-1">
      <rect x="61.7" y="-118.66" width="198.45" height="122.69"/>
    </g>
  </g>
</svg>