<?xml version="1.0" encoding="UTF-8"?>
<svg id="Capa_1" data-name="Capa 1" xmlns="http://www.w3.org/2000/svg" viewBox="0 0 80 80">
  <path d="M48.4,61.81c.02-1.42-.1-2.83-.51-4.2-.08-.27-.2-.43-.51-.52-.32-.09-.63-.28-.9-.49-.19-.14-.33-.19-.56-.13-.77.18-1.55-.22-1.87-.94-.08-.19-.14-.39-.22-.61-.62.22-1.21.16-1.73-.2-.55-.38-.75-.95-.75-1.58-1.24-.03-2.06-.63-2.29-1.92-.83.09-1.69.54-2.36,1.25-1.18,1.26-2.64,1.62-4.3,1.34-.76-.13-1.51-.3-2.27-.4-1.23-.15-2.41-.02-3.42.79-1.12.89-2.04,1.97-2.64,3.27-.91,1.97-.98,4-.49,6.1.96,4.13,3.04,7.56,6.31,10.25,1.68,1.38,3.58,1.69,5.6.84.85-.36,1.67-.8,2.5-1.2.56-.27,1.15-.32,1.76-.18,2.26.51,4.13-.16,5.62-1.91.89-1.05,1.49-2.27,1.97-3.55.74-1.94,1.02-3.96,1.06-6.02ZM27.41,60.25c-.14,1.48.09,2.93.56,4.43-2.16-2.13-2.05-6.62.7-8.59-.67,1.31-1.13,2.68-1.26,4.15Z"/>
  <path d="M32.52,52.28c-1.6-1.55-3.44-2.59-5.63-2.98,2.63-.38,4.74.64,6.58,2.48.03-.15.06-.24.06-.34,0-.12,0-.25,0-.37-.16-1.65-1.08-2.79-2.5-3.52-1.65-.85-3.3-.63-4.89.24-.95.52-1.94.95-3.03,1.09-.04,0-.07.03-.11.05,1.41,2.92,6.99,4.41,9.53,3.35Z"/>
  <path d="M35.35,49.13c.18-.38.55-.66.81-1,.2-.26.42-.52.56-.81.13-.28-.06-.64-.33-.8-.29-.17-.54-.06-.75.14-.48.48-.86,1.01-1.08,1.66-.32.95-.48,1.92-.47,2.92,0,.7.03,1.4.04,2.11.7.04.84-.11.84-.71,0-.69-.04-1.38.02-2.07.04-.49.16-1,.37-1.44Z"/>
  <path d="M38.96,27.76c.68-.59,1.09-1.37,1.48-2.16.77-1.56,1.5-3.13,2.29-4.68.5-.97,1.2-1.62,2.05-2.02,4.05-2.11,8.61-2.51,10.98-2.56.02-.01.03-.03.05-.04.2-.14.37-.32.53-.5.77-.91,1.04-2.63-.06-3.62-.5-.45-1.08-.71-1.73-.81-.46-.07-.98-.12-1.33-.46-.13-.12-.24-.26-.35-.39.14-.25.22-.54.22-.85,0-.54-.25-1.03-.64-1.35.21-.34.34-.75.34-1.19,0-1.25-1.01-2.26-2.26-2.26-1.04,0-1.92.71-2.18,1.67-.01,0-.03,0-.04,0-.55,0-1.04.26-1.36.66-.68-.28-1.38-.52-2.1-.63-3.78-.56-7.17.53-10.14,2.83-3.22,2.49-4.98,5.82-5.19,9.91-.01.27-.11.38-.35.47-4.11,1.57-5.16,6.81-1.96,9.83.32.3.68.56,1.03.85-.26.45-.4.94-.25,1.42.14.46.4.89.63,1.38.03-.03,0,0-.03.03-1.68,1.46-2.71,3.32-3.23,5.46-.15.62-.19,1.28-.15,1.92.09,1.46,1.43,2.87,2.87,3.01.76.07,1.53-.03,2.3-.09,2.13-.16,5.4.94,5.5,1.02,1.94-1.14,3.9-1.2,3.9-1.2-.95-2.19-2.13-6.41-7.67-9.27,5.64.94,8.04,5.55,8.89,9.92,0,0-1.07.25-3.82,1.56.71.87.95,2.02.53,3.11-.07.18-.16.36-.25.57.09,0,.15,0,.2-.02.76-.15,1.25.1,1.61.79.44.84,1.13,1.37,2.08,1.51.22.03.32.12.43.3.46.8,1.16,1.21,2.08,1.23.17,0,.27.05.36.22.38.74,1.06,1.08,1.88.98.07,0,.15,0,.23-.01.02.57.2,1.03.75,1.25.52.21,1.02.08,1.51-.12.82,1.95,1.09,3.98,1.14,6.03.09,3.72-.82,7.21-2.66,10.46.03.02.06.05.09.07.88-.8,1.78-1.58,2.63-2.41,2.22-2.18,4.07-4.63,5.31-7.51,1.19-2.78,1.58-5.65.94-8.63-.47-2.23-1.55-4.18-3.08-5.84-.23-.25-.47-.5-.7-.75-.97,2.13-2.72,4.36-5.71,3.93-.78-.02-1.55-.24-2.17-.72,0,0,5.7,1.03,6.84-4.29-1.06-1.09-1.49-1.48-2.56-2.57-1.22-1.23-2.26-2.58-2.88-4.22-.44-1.15-.43-2.28.22-3.39.07.05.13.09.18.13,1.07.88,2.3,1.38,3.68,1.49,1.03.08,1.83-.54,1.99-1.56.05-.32.11-.64.11-.96,0-.59.23-.97.83-1.11.29-.07.37-.3.3-.57-.03-.12-.08-.23-.13-.34-.1-.22-.06-.32.2-.35.95-.12.99-.17.82-1.11,0-.02,0-.04-.01-.07-.11-.58.02-.73.59-.9.43-.13.86-.31,1.24-.55.52-.34.52-.87.11-1.34-.42-.49-.83-.99-1.2-1.52-.47-.67-.7-1.41-.59-2.24.03-.2.07-.33.32-.38.64-.14,1.09-.62,1.17-1.16-.63.47-.96.57-1.29.41.37-.82.74-1.64,1.11-2.47.62-1.39.68-2.47.44-3.62-10.84.63-12.23,3.61-12.23,3.61-.8,1.65-1.53,3.34-2.32,5-.67,1.42-1.67,2.52-3.16,3.11-.99.39-2.01.55-3.08.5.08-.03.15-.06.23-.08,1.35-.33,2.61-.81,3.68-1.73ZM48.41,10.03c.47-.03.9-.25,1.19-.58,0,.07-.01.15-.01.22,0,.77.49,1.42,1.18,1.65-1.23,2.05-2.9,3.59-5,4.62-.32.15-.64.3-.98.41,1.73-1.81,2.94-3.9,3.63-6.33Z"/>
</svg>