<?xml version="1.0" encoding="UTF-8"?>
<svg id="Capa_1" data-name="Capa 1" xmlns="http://www.w3.org/2000/svg" viewBox="0 0 80 80">
  <path d="M57.78,26.42c0-.59,0-1.01,0-1.43-.06-2.94-.12-5.88-.18-8.82,0-.16-.06-.32-.09-.48-.21-1.2-.46-2.4-.63-3.61-.1-.73.29-1.08,1.04-.93.26.05.51.17.7.23-.23-.61-.45-1.22-.71-1.94-.98-.02-1.41-1.1-1.77-1.92-.38-.85-.89-1.13-1.68-1.3-.31-.07-.76-.23-.86-.47-.69-1.7-2.07-2.36-3.74-2.72-1.13-.24-2.23-.66-3.34-1h-4.42c-.44.08-.87.19-1.31.23-1.59.12-3.35-.18-4.73.41-3,1.27-6.28,2.39-7.54,5.95-.07.19-.19.36-.36.49-2.5,1.87-3.46,4.54-3.99,7.48-.63,3.5-.95,6.92.16,10.13-.82-.22-1.81-.2-1.44,1.36.6,2.55-.56,9.11,1.89,9.03,1.99-.06,2.23-3.07,2.06-6.19.02.02.04.04.05.06,0-.35,0-.61,0-.87-.05-2.37-.1-4.75-.17-7.12-.03-.89.16-1.5,1.23-1.19.91.26,1.13-.14,1.18-.98.1-1.84.28-3.67.43-5.51.07-.96.59-1.39,1.53-1.36.37.01.73.06,1.1.09,1.66.1,3.32.2,4.99.3.05-.17.04-.14.09-.3l-7.4-4.16c.03-.11.06-.22.1-.32,1.2.38,2.47.61,3.6,1.16,3.13,1.51,6.2,3.14,9.33,4.74,0,0-.21.09-.43.19.96.18,1.8.07,2.64.05,1.75-.03,3.51-.08,5.25.03.43.03.96.6,1.17,1.05.11.23-.34.81-.65,1.12-.71.73-1.59,1.32-2.2,2.11-.3.39-.32,1.18-.14,1.67.11.3.9.56,1.31.48,1.48-.28,2.59.29,3.7,1.08.11-.23.48-.34.66-.05.26.43.43.91.53,1.4-.19.3-.72.65-1.02.64-1.92-.08-3.6.35-5.3,1.34-1.32.76-1.63,1.66-1.58,3.15.68-.67,1.17-1.26,1.76-1.7.59-.44,1.42-.8,1.73.24.43,1.46,1.7,1.64,2.8,1.97.91.27,1.52-.23,1.71-1.28.03-.14.05-.28.08-.41,0,.06,0,.12,0,.18-.01.57-.05,1.12-.14,1.67,0,.03,0,.05,0,.08-.18,1.43-.55,2.81-1.08,4.14.42.51.31,1.06-.38,1.6-1.19.93-1.85,2.15-2.04,3.65-.05.37-.19.73-.36,1.37-.81-1.44-1.43-2.63-2.13-3.77-.35-.57-.56-1.08-.31-1.45.14-.21.13-.49,0-.7-.01-.05-.04-.09-.07-.13l-1.21-1.5-.07.02c-.77-1.63-2.11-7.27-2.11-7.27-.25-3.37-1.24-2.67-1.24-2.67-.25.29-.58.54-.72.87-.31.76-.52,1.57-.7,2.15-1.25-.51-2.27-1.09-3.36-1.33-1.31-.29-2.68-.3-4.02-.42-1.14-.09-2.06.31-2.79,1.13.01,0,.02,0,.04,0-.46.22-.85.5-1.14.84,1.13-.21,2.16-.49,3.21-.57.99-.08,2.12-.29,2.83,1.01-2.17.24-4.26.17-5.6,2.04,1.85.8,2.82-.73,4.18-1.41,1.05,1.44,1.06,1.51,4.3.9.52-.1.86-1.15,1.27-1.74-.13-.09-.26-.18-.39-.26,1.13.18,2.29.18,3.54-.71.85,5.48,1.66,7.09,1.93,7.49.31.83.57,1.8.29,2.23-.29.07-.55.16-.74.33-1,.89-1.99.75-3.08.39-1.07-.35-1.37-.1-1.47,1.01-.11,1.12.62,1.21,1.38,1.18.96-.04,1.56.18,1.67,1.29.03.33.6.59.9.9.25.27.47.57.7.85-.36.08-.71.2-1.08.24-.27.02-.6-.18-.82-.08-1.58.69-3.13,1.43-4.69,2.15.07.23.05.16.12.39,2.88-.52,5.75-.85,8.75-.14-.81,1.34-1.95,1.6-3.22,1.67-1.14.06-2.27.21-3.4.32l-.03.47c2.08,1.87,5.4,1.56,7.31,3.91-.98-.13-1.91-.49-2.71-.3-.95.22-1.84.83-2.67,1.4-1.85,1.27-3.65,1.27-5.44-.02-.86-.62-1.77-1.17-2.71-1.67-1.14-.61-2.72-.81-2.14-2.71q-2.19-.13-3.94-1.85c.86,1.87,1.83,3.68,2.73,5.53,1.13,2.29,2.78,4.11,4.84,5.61,1.45,1.06,2.88,2.16,4.28,3.29,2.5,2.02,2.75,3.46,1.28,6.38-.1.19-.19.38-.27.57-.89,2.21-.26,3.67,1.94,4.46.46.16.95.24,1.43.32.89.14,1.79.26,2.81.41-1.66,1.56-1.87,1.59-3.69.81-1.91-.82-3.84-1.62-5.74-2.46-5.08-2.26-9.81-5.06-13.75-9.06-1.37-1.4-1.38-1.77-.34-3.21-.13-.13-.09-.09-.22-.22l-4.64,3.39v.98c1.5,2.71,3.95,4.39,6.53,5.89,6.37,3.74,13.14,6.63,19.98,9.39.11.04.2.13.29.2h1.47c3.97-2.36,8.9-8.2,7.54-15.41-.21-1.13-.03-2.38-1.39-3.03-.3-.15-.48-.87-.45-1.31.19-3.01.35-6.03.72-9.03.13-1.03.67-2.09,1.27-2.95.71-1.01,1.24-1.99,1.2-3.25-.02-.61.05-1.23.01-1.84-.11-1.83-.08-3.53,1.29-5.08.62-.7.62-1.96.87-2.97.27-1.1.49-2.2.73-3.31v-2.7c-.39-1.06-1.08-1.37-2.25-.67Z"/>
</svg>