<?xml version="1.0" encoding="UTF-8"?>
<svg id="Capa_1" data-name="Capa 1" xmlns="http://www.w3.org/2000/svg" viewBox="0 0 80 80">
  <defs>
    <style>
      .cls-1 {
        fill-rule: evenodd;
      }
    </style>
  </defs>
  <path class="cls-1" d="M66.47,37.25c-1.88-3.21-4.64-7.85-6.93-13.02,2.21,2.6,5.42.49,6.39,4.14.88-2.36.36-4.82-2.76-5.61-.67-.17-1.35-.57-2-1.36-.73-.91-1.54-2.14-4.25-2.43,2.85-1.41,4.82-2.64,4.09-6.97-1.7,2.83-5.3,3.17-8.34,4.06-.21-.1-.43-.19-.65-.28,2.11-.64,2.85-2.44,2.13-4.48-1.21,1.78-3.78,2.86-5.93,3.44-1.16-.21-2.13-.28-3.09-.28v-.03s-3.29-.1-6.05-1.41c-2.75-1.31-3.18-4.41-3.18-4.41,0,0-1.51,2.26,1,6.04-5.42,0-11.81.13-14.5,3.85,2.65-.88,3.68-.66,6.48-.75-4.78,1.88-9.52,6.24-14.22,5.74,2.18,1.75,4.56,1.99,6.95,1.52-2.66,1.93-6.76,4.22-11.25,4.25,0,0,2.63,1.12,6.86.66-3.67,4.28-2.09,8.96-5.97,8.39,3.6,4.1,6.96-4.85,8.7-6.3-1.62,6.49-.16,10.46,5.42,13.39-.85,5.02-7.99,1.18-8.75-4.44-.59,16.59,12.1,14.49,19.92,16.18-7.79,3.71-15.55-2-15.55-2,0,0,6.31,8.68,20.44,7.77,12.09-.78,7.15,8.5,7.15,8.5,16.83-10.66,4.67-23.19-1.32-25.12-9.95-3.21-10.54-15.23-1.51-21.26-8.07,5.74-3.58,17.3,7.49,16.6.38-.02,4.32,2.25,4.89,2.92.82.95,1.1,4.49,1.1,4.49.06.7,1.19,1,2.09.93,1.79-.14,1.32-2.28,1.15-3.62.4-.08.86.07,1.09.97.37,1.44,1.09,2.67,2.36,3.52,4.52-1.69,3.86-5.2,3.45-7.64-.07-.43.25-1.48.25-1.48-1.16-1.17-1.65-1.94-3.14-4.49Z"/>
</svg>