<?xml version="1.0" encoding="UTF-8"?>
<svg id="Capa_1" data-name="Capa 1" xmlns="http://www.w3.org/2000/svg" viewBox="0 0 80 80">
  <path d="M18.48,5.12c.32-.03,2.95,3.06,3.55,3.56,4.09,3.45,9.62,4.05,14.11.95,1.75-1.2,3.14-2.89,4.76-4.18,1.71,1.34,3.09,3.16,4.89,4.44,5.19,3.7,10.91,2.13,15.29-1.96.46-.43,1.73-2.26,2.3-2.14l8.02,7.14-.04.78c-1.77,2.27-3.71,4.95-4.61,7.71-.85,2.59-.83,7.17-.4,9.88.54,3.46,2.58,6.91,3.77,10.22,4.28,11.94-2.99,22.88-14.24,26.97-4.75,1.73-10.75,2.28-14.85,5.14-.43.3-1.32,1.29-1.76,1.25-.68-.6-1.27-1.3-2.03-1.82-2.99-2.06-8.1-2.96-11.63-4.19-10.58-3.69-18.78-11.74-16.68-23.85.98-5.67,5.38-10.62,5.79-16.53.29-4.3,0-7.63-2.1-11.4-.61-1.1-2.24-2.97-2.6-3.89-.09-.24-.17-.42-.14-.69.11-.74,7.53-6.47,8.61-7.39ZM23.49,19.96c-7.45.77-6.03,12.23-.7,12.93,1.09.14,3.12.1,4.13-.34,1.13-.49,3.52-3.02,1.88-4.01-2.76-1.67-2.21.57-3.49,1.23-.92.48-2.49.23-3.02-.72-.41-.74-.37-3.9-.11-4.74.43-1.35,2-1.9,3.23-1.22.49.27,1.03,1.24,1.53,1.31.44.06,2.03-.46,2.39-.78.24-.71-1.56-2.71-2.2-3.09-.91-.54-2.61-.69-3.65-.58ZM29.27,38.4h2.5c.87-1,2.25-8.38,3-8.66.32-.12.42.62.5.83.18.51.7,2.17.7,2.61,0,.71-.7.75-.84,1.09-.11.26-.38,2.19-.28,2.29.55.05,1.45-.15,1.9.18.58.41-.02,1.53,1.38,1.78.74.13,2.36.23,2.51-.74l-3.45-11.42c-1.32-.51-3.76-.95-4.49.66-.78,3.24-2.98,7.05-3.61,10.21-.06.31-.22,1.05.17,1.17ZM61.66,28.08l-14.65,10.41c.55.31.91.07.94.85.06,2.29-.21,4.68-.28,6.96-.01.47-.07,2.72.08,2.93l5.42.32v2.75l-.25.25h-8.66c-.24-.15-.23-.33-.26-.57-.4-3.45.62-7.64.18-11-.03-.23.09-.29-.25-.24l-25.21,18.26c-.09.37.26.59.48.8,5.72,5.58,12.87,4.8,18.87,8.44.35.21,1.3,1.09,1.4,1.12.37.09,1.58-.99,2.04-1.24,2.94-1.59,7.22-2.17,10.46-3.2,8.92-2.83,15.09-9.6,14.19-19.44-.36-3.92-4.49-9.41-4.49-13.32v-4.08Z"/>
  <path d="M56.58,46.06h3.33l.25.25v10.99l-.25.25h-3.5l-.25-.25v-10.82c0-.05.34-.3.42-.42Z"/>
</svg>