<?xml version="1.0" encoding="UTF-8"?>
<svg id="Capa_1" data-name="Capa 1" xmlns="http://www.w3.org/2000/svg" viewBox="0 0 80 80">
  <path d="M33.46,51.18c-.31.04-.62.09-.93.13-.72.1-.77.04-.66-.73-.34.11-.66.22-1.13.37.2-.73.36-1.32.57-2.1-.35.14-.57.19-.75.3-.3.17-.57.4-.87.56-.15.08-.44.14-.49.07-.11-.13-.18-.39-.12-.55.28-.78.61-1.55.92-2.32.09-.21.18-.42.34-.76-.64.26-1.12.47-1.61.64-.13.04-.29-.02-.44-.03.03-.13.03-.28.1-.38.35-.53.62-1.07.63-1.81-.25.11-.41.18-.58.25-.05-.04-.11-.07-.16-.11.13-.2.21-.45.38-.6,2.03-1.81,4.16-3.39,6.97-3.84,1.87-.3,3.72-.77,5.56-1.21.28-.07.56-.31.75-.55.26-.33.4-.77.67-1.1.37-.44.25-.72-.19-.97-1.64-.92-3.29-1.81-4.91-2.77-3-1.77-6.18-3.32-8.55-5.98-1.04-1.16-1.8-2.56-2.71-3.84-.54-.76-1.1-1.51-1.65-2.27-.09-.13-.19-.26-.38-.52.55,0,.99-.08,1.4.01,3.05.71,6.01,1.6,8.82,3.05,2.89,1.5,5.53,3.32,7.92,5.51.21.2.46.36.69.54l.14-.09c-.06-.22-.1-.45-.2-.66-1-2.15-2.12-4.24-3-6.44-1.82-4.52-3.75-9-4.99-13.74-.5-1.91-1.26-3.74-1.9-5.61-.07-.19-.14-.38-.12-.72.21.08.46.11.62.24,4.05,3.6,7.47,7.71,10.1,12.46,1.43,2.58,2.56,5.29,3.43,8.11.66,2.12,1.23,4.27,1.84,6.41.27.93.27.92,1.2.67.61-.16,1.15-.39,1.53-.93.24-.34.27-.6-.01-.92-1.05-1.22-1.4-2.66-1.19-4.22.06-.46.34-.92.59-1.32.23-.36.25-.64-.09-.9-.9-.69-1.15-1.64-.88-2.67.12-.46.46-.93.83-1.23,1.17-.92,2.63-1.03,3.7.16.89.98,1.86,1.31,3.09,1.4,1.3.09,2.35.71,3.12,1.82.21.31.6.54.95.69.67.29,1.16.71,1.18,1.48.02.63.03,1.27-.06,1.89-.09.61-.42,1.1-1.04,1.34-.19.07-.37.19-.52.31-.26.21-.61.42-.07.78-.64.35-.81.81-.57,1.42.04.1.04.27-.02.35-.57.72-.77,1.71-1.65,2.2-.16.09-.29.23-.4.37-.53.68-.64.74-1.41.35-.5-.26-.96-.61-1.41-.96-.55-.44-.82-.41-1.02.24-.12.38-.21.8-.2,1.2.05,1.66-.28,3.2-1.15,4.63-.47.78-.33,1.14.57,1.24,1.05.12,2.12.1,3.17.1,1.06,0,2.13-.03,3.19-.07.2,0,.47-.09.56-.23,1.01-1.6,1.99-3.23,3.02-4.9-.26-.11-.45-.2-.64-.28q.49-1.17-.2-2.53c.97.34,1.85.5,2.45-.61-.09,1.13.39,1.73,1.5,1.9-1.02.32-1.73.8-1.35,2.03-.09.03-.17.06-.26.09-.1-.17-.16-.44-.3-.49-.16-.06-.51-.01-.58.11-.85,1.46-1.73,2.92-2.47,4.44-.38.79-.54,1.69-.73,2.56-.12.57-.38.84-.98.87-.24.01-.5.22-.69.4-.2.19-.3.5-.5.69-.15.15-.4.21-.6.31,0-.26-.02-.52.03-.77.03-.15.17-.27.26-.41.26-.4.23-.73-.3-.78-.78-.08-1.58-.19-2.36-.13-1.54.12-3.05.59-4.62.33-.23-.04-.65.23-.76.46-.48,1-.54,2.06-.31,3.16.45,2.1,1.55,3.89,2.54,5.74.41.76,1.02,1.19,1.81,1.43.61.18,1.18.47,1.42,1.07.12.31.12.81-.05,1.05-.14.2-.72.3-.95.17-.84-.46-1.7-.72-2.66-.78-.31-.02-.66-.32-.88-.59-.51-.64-.93-1.34-1.41-2-.73-1-1.44-2.03-2.24-2.98-.89-1.05-1.3-2.3-1.64-3.58-.05-.2-.04-.44-.15-.59-.19-.24-.45-.41-.68-.61-.16.23-.43.44-.48.69-.17.86-.31,1.73-.39,2.6-.15,1.61,0,3.18.7,4.67.04.09.07.2.07.3.01.29,0,.58,0,.88-.28-.06-.57-.11-.85-.18-.19-.04-.37-.11-.61-.18-.08.88-.16,1.7-.23,2.52-.06,0-.11.02-.17.03-.21-.34-.42-.68-.64-1.02-.07,0-.14,0-.2.01-.07.31-.17.62-.21.94-.04.33,0,.67,0,1.01-.07.03-.14.07-.21.1-.34-.38-.7-.74-1.02-1.14-.54-.67-.75-.66-1.16.11-1.55,2.88-3.11,5.78-5.37,8.17-1.38,1.46-2.93,2.78-4.48,4.07-2.29,1.91-4.62,3.77-6.99,5.59-1.54,1.18-3.15,2.26-4.77,3.33-.43.29-.97.8-1.52.19-.5-.55-.07-1.05.23-1.49.53-.77,1.12-1.49,1.68-2.24.42-.57.86-1.14,1.22-1.75.37-.62.88-1.01,1.59-.95,1.66.13,2.9-.55,3.78-1.9.63-.97,1.22-1.97,1.77-2.99.46-.84.75-1.78,1.27-2.58.48-.74,1.16-1.35,1.76-2.01.15-.16.32-.29.61-.55-.65-.19-1.18-.38-1.72-.5-2.95-.64-5.9-1.27-8.86-1.89-1.76-.37-3.52-.45-5.3-.17-.36.05-.74.05-1.09-.01-.69-.13-1.21-.68-1.16-1.15.06-.56.77-1.28,1.36-1.31.65-.04,1.32.03,1.96-.05.67-.09,1.38-.2,1.99-.48,1.17-.53,2.21-.62,3.17.4.79.83,1.8.43,2.73.41,1.3-.02,2.61-.2,3.91-.17,1.2.03,2.27.59,3.34,1.1.48.22,1.06.32,1.58.31.27,0,.72-.36.76-.62.17-1.02.21-2.06.31-3.17-.57,0-1.07.01-1.57,0-.16,0-.31-.11-.47-.16.12-.11.23-.22.35-.32.42-.35.84-.7,1.26-1.05-.05-.09-.1-.19-.15-.28Z"/>
</svg>