<?xml version="1.0" encoding="UTF-8"?>
<svg id="Capa_1" data-name="Capa 1" xmlns="http://www.w3.org/2000/svg" viewBox="0 0 80 80">
  <path d="M70.62,40.69c-1.18-6.65-3.47-13.45-7.31-19.02,4.91-.43,9.04-3.28,9.45-8.48.41-5.2-3.87-12.19-9.83-10.28-4.57,1.46-4.89,7.26-4.87,11.26-3.75-1.85-7.76-3.23-12-3.3.59-3.02.8-7.88-2.75-9.18-4.75-1.74-7.36,4.1-7.46,7.9-.03,1,.25,1.92.15,2.93-2.23.33-4.54,1.02-6.46,2.26-.26.16-.1.56.2.5l1.7-.35,1.42.15c-2.9.34-5.9,1.7-8.16,3.64-.21.18-.01.52.25.42,1.34-.48,2.49-.64,3.41-.39-2.16,1.46-4.32,2.94-6.3,4.65-3.54,3.05-7.21,6.76-9.2,11.05-.94,2.02-.91,4.01-.72,6.17-.28.05-2.66.5-4.62,1.45-.22.11-.34.36-.26.6.07.2.25.31.45.31.07,0,.14-.02.21-.05,1.73-.84,3.9-1.29,4.34-1.37.03.22.07.43.11.65-.7.26-2.57,1.06-4.25,2.79-.19.19-.19.53.01.71.09.08.2.12.31.12.12,0,.25-.05.34-.14,1.46-1.5,3.1-2.26,3.8-2.53.05.2.1.39.16.59.02.07.04.13.06.2-.53.3-2.37,1.44-3.79,3.62-.14.21-.1.5.09.65.09.07.19.1.29.1.15,0,.31-.08.4-.22,1.17-1.8,2.7-2.86,3.31-3.23.5,1.39,1.17,2.73,1.9,3.98.58,1,1.22,2.04,2.11,2.79.9.75,2.15.63,3.06,1.29,1.09.79,1.88,2.03,2.99,2.84,1.19.88,2.59,1.49,4.04,1.79-1,4.68-.04,9.75,2.61,13.75,2.31,3.49,5.89,6.12,9.89,7.34.44.13.74-.42.4-.72-4.34-3.81-7.15-9.34-7.61-15.1.71,2.1,1.76,4.08,3.09,5.84.22.28.66.05.56-.29-.57-1.9-.9-3.89-.32-5.75.87-2.8,3.58-4.63,6.32-5.67,2.08-.79,4.28-1.27,6.36-2.04.39-.14.28-.72-.14-.71-4.27.07-8.56-.97-12.33-2.99-.37-.2-.73.27-.44.58l1.49,1.56c-1.28.67-2.6,1.29-3.97,1.74-6.08.07-8.59-.77-9.92-2.21,1.34.44,2.85.39,4.15-.18,1.1-.48,2.05-1.33,2.68-2.4.17-.29.12-.68-.14-.9-.26-.21-.62-.22-.88,0-1.54,1.24-2.79,1.77-4.05,1.73-2.11-.07-3.77-1.88-4.62-3.56-.38-.75-.88-1.98-1.43-3.57-.09-.26-.36-.4-.62-.32-.22.06-.37.26-.37.48-.04.04-.05.1-.04.18l.05.22c.18.81.43,1.6.73,2.37.2.52.32,1.04.53,1.56.21.52.42,1.14.42,1.71,0,.69-.64.6-1.08.34-.64-.38-1.05-1.08-1.44-1.68-.68-1.03-1.23-2.14-1.73-3.27-.81-1.83-1.34-3.49-1.62-5.08v-.08s-.03-.08-.04-.13c.73.63,1.51,1.13,2.19,1.36.47-1.64.13-4.9-.89-6.98.28-.64.84-1.69,1.75-2.68.86-.92,2.12-1.36,3.36-1.18h.02c1.15.17,2.23.62,3.16,1.28-.22.06-.46.17-.71.34-2.08,1.49-2.93,6.91-2.26,9.26,2.21-.76,5.32-4,5.32-6.41,0-.23-.02-.47-.07-.73,1.02,1.51,2.18,3.59,2.98,6.16.11.34.61.27.61-.09,0-.58.02-1.23.04-1.93,3.32,1.76,5.85,3.76,7.7,6.08.08.11.21.17.35.17.09,0,.19-.03.26-.08.19-.15.23-.39.12-.58-.61-1.05-2.75-2.98-3.24-3.38-1.7-1.38-3.57-2.52-5-3.06-.05-.02-.1-.04-.15-.06,0-.12.01-.25.02-.38,2.78.29,5.09.96,7.05,2.03.08.04.17.07.26.07.08,0,.17-.02.24-.06.19-.1.31-.3.29-.52-.01-.17-.11-.31-.24-.41-.81-.6-2.92-1.34-3.42-1.49-.57-.17-2.42-.68-4.12-.72-.01-.13-.01-.09-.02-.22,2.94-.8,5.48-.99,7.74-.59.17.03.33-.02.45-.14.14-.14.18-.35.11-.54-.06-.15-.19-.26-.34-.3-.87-.28-2.88-.3-3.35-.28-.59.02-2.63.14-4.16.73-.1.04-.21.08-.32.13.28-3.18.84-6.45,1.96-8.06.56-.68,1.15-1.34,1.75-1.97,1.67-1.75,6.79-7.08,8.64-7.94,2.27-1.05,4.76-.4,6.83.79,2.35,1.35,4.33,3.3,6.1,5.33.74.85,1.44,1.72,2.1,2.63.58.79,1.31,1.64,1.6,2.59.23.76-1.13.05-1.37-.07-.48-.24-.95-.51-1.42-.78-.89-.52-1.78-1.14-2.4-1.98-2.32-3.08-4.89-3.62-6.21-3.67-.27-.01-.41.31-.22.5.69.67.94,1.75.05,2.6-1.25,1.19-3.12.06-3.29-1.29-.03-.25-.33-.36-.5-.18-1.55,1.62-2.33,4.18-2.46,6.43-.05.92-.31,2.26.69,2.47,1.19.25,2.4.41,3.62.4,2.2-.02,5.37.06,6.63-2.13,0,0-1.15.62-2.68.69.62-.71,1.09-1.58,1.27-2.34.12-.5.16-1.02.14-1.54-.01-.35.01-1.24-.22-1.52,2.83,3.38,6.58,4.31,9.3,4.48,2.84,4.04,4.44,8.94,4.8,13.9.03.36-.06.42-.17.02-.9-3.03-1.9-6.08-3.62-8.74-.19-.3-.66-.1-.58.25,2.58,10.59-.22,15.22-.22,15.22-.16-2.64-.49-4.06-.91-5.01-.16-.38-.73-.25-.71.16.24,5.54-.81,11-2.93,16.12-.26.64-.59,1.26-.89,1.89-.18.37.29.72.59.43,3.95-3.8,5.66-10.44,6.45-12.38.48-1.17.98-2.46,1.18-3.7.26,0,.17.66.15.83-.13,2.07-.67,4.44-1.22,6.43-2.1,7.62-6.59,14.5-12.59,19.59.42-.15.84-.32,1.26-.49-.43.22-.85.39-1.26.49,0,0,6.88-1.21,12.51-5.24.29-.05,1.34-.91,1.51-1.06.82-.71,1.59-1.53,2.3-2.44.61-.74,1.16-1.53,1.63-2.39,1.2-2.01,2.14-4.21,2.75-6.26l-.02,1.56c-.1,1.51-.59,2.96-.81,4.44-.02.16-.2.49.08.45,3.92-7.25,3.46-15.99,2.06-23.89Z"/>
</svg>