<?xml version="1.0" encoding="UTF-8"?>
<svg id="Capa_1" data-name="Capa 1" xmlns="http://www.w3.org/2000/svg" xmlns:xlink="http://www.w3.org/1999/xlink" viewBox="0 0 80 80">
  <defs>
    <style>
      .cls-1 {
        clip-path: url(#clippath);
      }
    </style>
    <clipPath id="clippath">
      <path d="M-92.03,43.66c.02-.19.07-.39.15-.59.25-.65.69-1.15,1.24-1.57,1.09-.81,2.32-1.18,3.68-1.08.37.03.73.15,1.09.23.05.01.1.03.17.06,0-.07,0-.12,0-.18.18-4.35.36-8.69.54-13.04,0-.05,0-.1,0-.15.56.02,1.12.04,1.68.07.02.2.02.41.08.6.15.58.49,1.06.87,1.51.55.67,1.12,1.32,1.66,1.99.51.64.95,1.36,1.14,2.16s.08,1.64-.24,2.43c-.2.49-.47.95-.83,1.34-.08.08-.18.18-.3.1-.11-.07-.07-.2-.04-.31.06-.26.14-.52.16-.78.2-1.87-.61-4.08-2.69-4.47,0,.11,0,.22-.01.32-.14,3.51-.29,7.01-.43,10.52-.1,2.43-2.97,3.84-5.18,3.6-.41-.05-.82-.14-1.2-.3-1.05-.42-1.65-1.41-1.52-2.46Z"/>
    </clipPath>
  </defs>
  <g>
    <path d="M-92.03,43.66c.02-.19.07-.39.15-.59.25-.65.69-1.15,1.24-1.57,1.09-.81,2.32-1.18,3.68-1.08.37.03.73.15,1.09.23.05.01.1.03.17.06,0-.07,0-.12,0-.18.18-4.35.36-8.69.54-13.04,0-.05,0-.1,0-.15.56.02,1.12.04,1.68.07.02.2.02.41.08.6.15.58.49,1.06.87,1.51.55.67,1.12,1.32,1.66,1.99.51.64.95,1.36,1.14,2.16s.08,1.64-.24,2.43c-.2.49-.47.95-.83,1.34-.08.08-.18.18-.3.1-.11-.07-.07-.2-.04-.31.06-.26.14-.52.16-.78.2-1.87-.61-4.08-2.69-4.47,0,.11,0,.22-.01.32-.14,3.51-.29,7.01-.43,10.52-.1,2.43-2.97,3.84-5.18,3.6-.41-.05-.82-.14-1.2-.3-1.05-.42-1.65-1.41-1.52-2.46Z"/>
    <g class="cls-1">
      <rect x="-138.19" y="-18.66" width="198.45" height="122.69"/>
    </g>
  </g>
  <path d="M62.79,24.02c-.53-3.51-1.81-6.73-3.9-9.61-3.87-5.34-9.13-8.5-15.72-9.48-.59-.09-1.18-.14-1.78-.2h-2.7c-.79.1-1.59.16-2.38.29-4.41.72-8.32,2.51-11.66,5.47-2.85,2.53-4.97,5.55-6.3,9.1-.74,1.98-1.18,4.03-1.32,6.15,0,.1-.04.21-.07.31v2.65c.09.68.15,1.35.26,2.03.8,5.19,3.13,9.59,7.01,13.2.08.07.14.17.23.22,1.18.66,1.38,1.8,1.56,2.96.4,2.51.35,5.01.05,7.53-.14,1.19-.17,2.4-.11,3.6.05,1.05.75,1.66,1.7,1.74,1.04.08,1.86-.45,2.19-1.43.37-1.12.29-2.28.22-3.43-.08-1.27-.19-2.54.21-3.78.08-.24.25-.45.38-.67.16.19.35.36.47.57,1.75,3.08,2.26,6.39,1.9,9.86-.21,2.01-.36,4.03-.51,6.04-.03.39.02.81.11,1.2.33,1.46,1.32,2.11,2.82,1.89,1.01-.15,1.7-.8,1.95-1.8.26-1.05.18-2.11.04-3.16-.23-1.79-.55-3.58-.72-5.37-.1-.99-.05-2.01.05-3.01.17-1.71.43-3.4,1.01-5.03.09-.25.21-.48.34-.75.13.09.22.13.28.2,1.57,1.74,2.61,3.71,3.01,6.04.61,3.6.58,7.2.26,10.81-.13,1.52-.24,3.05.05,4.57.2,1.08.68,1.98,1.81,2.39.16.06.33.11.49.16h1.14c.48-.23,1.02-.39,1.42-.72.6-.49.8-1.24.77-1.97-.05-1.24-.16-2.48-.36-3.71-.39-2.39-.95-4.76-.96-7.2-.03-4.48,1.09-8.61,3.97-12.18.14-.17.3-.32.52-.55,0,.43-.02.75,0,1.06.05.7.05,1.42.2,2.1.17.8.73,1.32,1.58,1.42.91.1,1.77-.06,2.28-.91.19-.31.32-.71.31-1.06-.03-1.13-.12-2.27-.22-3.4-.09-1.07-.05-2.12.29-3.14.09-.28.28-.56.5-.76,2.92-2.66,5.1-5.8,6.39-9.51.66-1.91,1.05-3.88,1.15-5.9,0-.1.04-.2.07-.3v-2.41c-.08-.7-.15-1.4-.25-2.1ZM43.7,18.51c-.23-.22-.35-.52-.35-.84s.13-.62.35-.84l.12-.12c.47-.46,1.24-.46,1.71,0l2.3,2.26,2.3-2.26c.47-.46,1.24-.46,1.71,0l.12.12c.47.46.47,1.22,0,1.68l-2.3,2.26,2.3,2.26c.47.46.47,1.22,0,1.68l-.12.12c-.24.23-.54.35-.85.35-.31,0-.62-.12-.85-.35l-2.3-2.26-2.3,2.26c-.47.46-1.24.46-1.71,0l-.12-.12c-.23-.22-.35-.52-.35-.84s.13-.62.35-.84l2.3-2.26-2.3-2.26ZM28.05,18.51c-.23-.22-.35-.52-.35-.84s.13-.62.35-.84l.12-.12c.47-.46,1.24-.46,1.71,0l2.3,2.26,2.3-2.26c.47-.46,1.24-.46,1.71,0l.12.12c.23.22.35.52.35.84s-.13.62-.35.84l-2.3,2.26,2.3,2.26c.23.22.35.52.35.84s-.13.62-.35.84l-.12.12c-.24.23-.54.35-.85.35-.31,0-.62-.12-.85-.35l-2.3-2.26-2.3,2.26c-.23.22-.53.35-.85.35s-.63-.12-.85-.35l-.12-.12c-.23-.22-.35-.52-.35-.84s.13-.62.35-.84l2.3-2.26-2.3-2.26ZM57.49,31.85s0,0,0,0c-.16.26-.39.42-.66.48-.2.04-.52.04-.89-.2-.11-.07-.23-.14-.35-.21-.29,1.35-.73,2.66-1.33,3.89-1.83,3.76-4.27,6.51-7.48,8.41-2.23,1.32-4.51,2-6.78,2-2.33,0-4.68-.71-6.98-2.11-2.79-1.7-5.07-4.16-6.78-7.32-.89-1.64-1.49-3.24-1.83-4.86-.09.05-.19.11-.3.18-.94.58-1.44-.01-1.58-.21-.37-.55-.22-1.18.38-1.6.95-.66,2.02-1.07,3.17-1.24.34-.05.7-.08,1.17-.09.35-.01.65.09.87.29.14.13.32.38.33.76.01.48-.26,1.02-1.08,1.08-.1,0-.2.02-.31.03-.11.01-.22.02-.34.03.04.15.08.31.11.46.15.61.3,1.24.52,1.81,1.37,3.59,3.6,6.44,6.62,8.45,1.91,1.28,3.95,1.93,6.05,1.93h.03c2.7-.1,5.11-1.08,7.36-3,2.66-2.26,4.52-5.09,5.53-8.41.12-.38.2-.79.28-1.19,0-.01,0-.02,0-.04-.15-.01-.3-.03-.44-.05-.09-.01-.17-.02-.25-.03-.77-.09-1.04-.63-1.03-1.06,0-.32.13-.61.35-.81.2-.18.47-.27.78-.27,1.71.01,3.22.49,4.52,1.41.51.36.64.98.31,1.49Z"/>
</svg>