<?xml version="1.0" encoding="UTF-8"?>
<svg id="Capa_1" data-name="Capa 1" xmlns="http://www.w3.org/2000/svg" viewBox="0 0 80 80">
  <path d="M66.03,49.57c-.37-.04-.75-.06-1.12-.14-.17-.04-.38-.18-.45-.33-.62-1.32-1.21-2.67-1.83-3.99-.21-.44-.26-.78.13-1.18.37-.38.29-.77-.11-1.12-.37-.33-.88-.35-1.21-.06-.35.32-.43.83-.07,1.18.4.38.42.72.12,1.14-.06.09-.08.2-.12.3-.47,1.22-.95,2.43-1.41,3.65-.1.26-.24.4-.53.39-.32,0-.65.02-.97.03-.21,0-.32-.07-.32-.3,0-.39-.02-.78-.03-1.17,0-.37.07-.68.55-.66.08,0,.16-.07.3-.13-.4-.77-.79-1.52-1.18-2.26-.6-1.14-1.19-2.29-1.81-3.42-.09-.16-.3-.32-.48-.35-.58-.09-1.17-.14-1.76-.17-.25-.01-.33-.09-.33-.33,0-.47-.03-.94-.06-1.41-.02-.27.11-.41.36-.44.29-.03.33-.17.23-.41-.19-.44-.39-.88-.56-1.34-.38-1.02-.82-2.02-1.09-3.07-.27-1.05-.33-2.15-.53-3.21-.11-.63-.2-1.17.41-1.65.38-.3.18-.82-.31-.94-.28-.07-.58-.06-.88-.1-.34-.04-.45.18-.42.44.03.26.09.55.25.75.26.32.27.66.21,1.02-.32,1.66-.65,3.32-1,4.98-.22,1.06-.48,2.12-.72,3.18-.05.24-.06.51.29.47.45-.05.54.18.5.55-.01.11,0,.22,0,.32-.02,1.04-.04,1.05-1.08.96-.3-.03-.42-.14-.42-.45.01-1.16,0-2.31,0-3.47,0-3.46,0-6.92.02-10.37,0-.14.04-.37.11-.39.33-.1.31-.37.35-.61.09-.58.18-1.17.26-1.75.14-.93.14-.95-.78-1.1-.33-.06-.46-.21-.47-.52,0-.52-.05-1.05-.04-1.57,0-.13.09-.32.2-.39.21-.14.23-.3.19-.52-.37-1.68-.69-3.37-1.11-5.03-.37-1.48-.57-2.98-.76-4.48-.16-1.27-.28-2.54-.41-3.8-.03-.27-.16-.35-.41-.27-.1.03-.21.05-.31.09-.63.23-1.26.46-1.89.7-.53.2-1.07.2-1.63.1-.26-.05-.44.06-.31.32.21.43.43.88.76,1.21.24.24.66.44.99.43.75-.03,1.5-.15,2.17-.52.07-.04.17-.03.31-.06-.02.28-.02.52-.06.76-.21,1.27-.4,2.55-.64,3.82-.24,1.25-.5,2.5-.82,3.73-.25.99-.59,1.95-.89,2.93-.08.27-.14.52.23.65.08.03.14.22.14.34.02.47,0,.94.01,1.41,0,.26-.12.37-.34.41-.24.05-.49.05-.71.14-.12.05-.28.25-.26.36.13,1.03.29,2.05.46,3.07.02.09.18.25.24.23.45-.08.45.19.43.5-.04.93-.08,1.85-.12,2.78-.03.85-.06,1.69-.09,2.54,0,.24-.12.33-.35.34-.21.01-.35-.02-.42-.26-.23-.71-.48-1.42-.73-2.13-.58-1.65-.77-3.37-.99-5.09-.05-.4.03-.73.34-1.05.16-.16.2-.56.13-.81-.08-.3-.34-.53-.73-.54-.4,0-.73.08-.89.48-.15.36-.13.69.17,1,.14.14.25.4.23.58-.12,1.02-.24,2.05-.45,3.06-.17.85-.43,1.68-.69,2.51-.1.31-.32.58-.48.87-.04-.01-.07-.02-.11-.03-.02-.14-.06-.28-.06-.42,0-1.21-.02-2.42,0-3.63.01-.42.15-.84.22-1.26.07-.38.38-.79-.08-1.14-.03-.02-.02-.1-.02-.15,0-.35,0-.7,0-1.05,0-.09.04-.22.1-.25.34-.15.25-.38.15-.63-.12-.3-.23-.6-.33-.91-.57-1.76-1.3-3.49-1.67-5.29-.38-1.82-.42-3.7-.59-5.56-.05-.49-.14-.61-.61-.51-1.14.26-2.27.54-3.41.82-.12.03-.22.17-.33.25.09.09.16.23.27.27.66.26,1.32.52,2.06.5.6-.01,1.19.08,1.84.12-.23,1.53-.44,3.06-.69,4.58-.33,1.96-.7,3.91-1.05,5.87-.04.24.01.47.3.46.46-.02.55.22.53.6,0,.2.05.4.03.6-.01.13-.07.31-.17.36-.29.15-.29.35-.17.6.32.65.44,1.33.42,2.06-.06,2.24-.07,4.49-.1,6.73,0,.37-.05.74-.08,1.11-.04,0-.07,0-.11,0-.19-.64-.37-1.28-.58-1.91-.1-.31-.11-.56.15-.8.07-.07.11-.18.13-.28.07-.35-.15-.75-.5-.87-.35-.13-.66-.05-.91.25-.22.27-.23.69.01.96.19.21.25.42.2.69-.11.54-.18,1.08-.3,1.62-.37,1.65-.75,3.29-1.13,4.94-.05.22,0,.35.22.37.25.02.26.17.26.36,0,.85,0,1.69,0,2.54,0,.24,0,.47,0,.71-.12.02-.17.04-.22.04-.23,0-.46.01-.69.01-.57,0-.61,0-.58-.56.12-1.89-.26-3.79.22-5.67.19-.77.11-1.6.16-2.41.03-.43-.14-.98.58-1.05-.09-.16-.13-.26-.18-.35-1.31-1.99-2.49-4.05-3.33-6.29-.17-.44-.26-.93-.28-1.4-.06-1.27-.05-2.55-.09-3.83-.02-.58-.13-.64-.62-.41-1.04.48-2.07.96-3.11,1.44-.1.05-.19.11-.28.17,0,.04.02.08.03.12,1.21.42,2.45.27,3.7.08.02.06.06.11.06.16,0,.89-.01,1.77-.04,2.66,0,.22-.06.47-.17.66-.64,1.07-1.3,2.13-1.95,3.2-.7,1.13-1.4,2.27-2.08,3.41-.05.08,0,.33.07.35.28.1.26.3.27.52.03.89.05,1.77.1,2.66,0,.16.08.39.19.45.35.17.38.43.38.76-.04,1.71-.06,3.41-.12,5.12,0,.23-.15.49-.3.67-.65.81-1.32,1.59-1.98,2.39-.29.36-.56.74-.79,1.05.2.25.43.41.45.58.08,1.04.1,2.09.17,3.14.03.41-.25.43-.51.46-.37.04-.28-.24-.28-.44.03-.79.07-1.58.11-2.37.01-.24-.05-.37-.33-.39-.35-.03-.7-.08-1.03-.18-.18-.05-.39-.19-.47-.35-.55-1.04-1.06-2.11-1.61-3.15-.2-.38-.26-.66.18-.88.08-.04.14-.13.2-.2.33-.41.28-.93-.12-1.3-.36-.34-1.02-.36-1.36-.05-.56.52-.51,1.22.16,1.71.22.16.22.27.1.48-.5.89-.99,1.78-1.48,2.67-.74,1.34-.5,1.05-1.83,1.19-.31.03-.44.14-.4.45.16,1.4.32,2.8.47,4.21.03.31.16.47.48.45.32-.02.39.14.36.42-.05.66-.09,1.31-.12,1.97-.09,1.96-.18,3.92-.27,5.88-.16,3.49-.31,6.98-.45,10.47,0,.16.04.39.14.47.38.27.76.56,1.19.71,1.01.34,2.07.3,3.12.24.82-.05,1.58-.29,2.27-.73.77-.49,1.6-.82,2.55-.72,1.14.13,2.28.28,3.19,1.08.05.04.12.07.18.1.7.37,1.45.26,2.18.18,1.59-.19,3.17-.44,4.75-.68.12-.02.26-.1.31-.2.03-.05-.08-.21-.15-.3-.39-.48-.81-.93-1.19-1.42-1.06-1.36-1.54-2.93-1.69-4.62-.11-1.27.07-2.49.44-3.7.13-.4,0-.61-.42-.69-.13-.03-.27-.03-.4-.04-1.15-.14-2.26-.36-3.16-1.17-1.79-1.61-2.49-4.34-1.37-6.62.68-1.39,1.6-2.5,2.99-3.21.68-.35,1.38-.54,2.11-.63.08-.22.18-.47.33-.7.48-.75,1.32-1.19,2.31-1.21.03,0,.07,0,.1,0,1.67,0,3.08.78,4.07,2.26.45.68.8,1.4,1.13,2.1.09.18.18.37.27.56.27-.07.55-.11.82-.11.32,0,.65.05.97.15.54-1.29,1.22-2.61,2.45-3.65.85-.73,1.83-1.1,2.9-1.1.25,0,.5.02.76.06.92.14,1.63.72,2,1.59.08.01.16.03.24.04,2.21.48,3.84,1.72,4.83,3.78.56,1.17.68,2.38.48,3.65-.17,1.13-.79,1.99-1.56,2.76-.6.61-1.3,1.09-2.17,1.24-.57.1-1.14.16-1.71.23-.22.03-.36.08-.31.34.15.82.32,1.63.42,2.45.13.99.13,2-.13,2.97-.45,1.68-1.15,3.24-2.44,4.46-.11.1-.16.26-.24.4.16.04.31.1.47.13.76.13,1.59-.06,2.29.35,1.03.6,2.14.67,3.28.63.8-.03,1.59-.06,2.32-.43.41-.21.8-.44,1.19-.67.91-.53,1.77-.39,2.61.17.23.16.44.37.69.48,2.08.96,4.17,1.02,6.27.06.24-.11.34-.28.32-.54-.03-.44-.03-.89-.07-1.33-.14-1.63-.31-3.26-.44-4.9-.13-1.55-.22-3.11-.33-4.67-.16-2.19-.32-4.37-.47-6.56,0-.12.07-.29.16-.37.31-.25.67-.45.98-.71.13-.11.26-.29.29-.46.21-1.21.39-2.41.57-3.62.07-.49-.05-.6-.52-.64Z"/>
  <path d="M31.65,51.14c-.08.33-.07.67-.05,1,.02.34.03.58.17.89s.26.59.4.89c.25.56.5,1.11.76,1.66.12.25.07.41-.09.61-.52.67-.78,1.42-.59,2.26.29,1.25,1.41,1.88,2.76,1.76,1.32-.11,2.37-.73,3.12-1.84.04-.05.08-.1.15-.19.4.65.93,1.07,1.7,1.08.77,0,1.3-.42,1.72-1.08.48.95,1.23,1.53,2.14,1.94,1.17.52,2.63.33,3.4-.44.7-.7.8-1.86.26-2.84,0-.01-.01-.02-.02-.03-.51-.52-.42-1.01-.05-1.59.36-.57.57-1.25.75-1.9.12-.44.2-.89.22-1.34.02-.43-.02-.77-.15-1.17-.22-.64-.68-1.08-1.36-1.19-1.09-.17-2.07.1-2.93.83-1.09.93-1.72,2.15-2.25,3.44-.1.24-.2.49-.31.77-.92-.62-1.83-.65-2.77-.09-.07-.21-.11-.38-.19-.54-.48-.94-.88-1.94-1.47-2.81-.78-1.17-1.9-1.88-3.39-1.85-.61.01-1.22.26-1.56.79-.17.26-.26.58-.35.87-.01.04-.02.08-.03.11ZM41.94,55.38c.42-.93.99-1.81,1.84-2.37.32-.21.67-.27,1.04-.2.43.07.67.37.78.77.17.63.15,1.25-.1,1.86-.11.28-.56,1.27-.56,1.27.02,0,.31-.28.31-.28.34.19.4.91.24,1.22-.28.53-.71.82-1.31.86-.56.04-1.19.04-1.54-.4-1.04-1.28.8-2.39.98-2.46-.52-.05-1.21.21-1.52.48-.08-.28-.12-.29-.18-.56-.01-.05.01-.13.04-.18ZM38.28,55.56c-.07.27-.1.28-.18.56-.3-.26-1-.53-1.52-.48.19.08,2.02,1.18.98,2.46-.35.44-.98.44-1.54.4-.6-.04-1.03-.33-1.31-.86-.16-.3-.1-1.02.24-1.22,0,0,.28.29.31.28,0,0-.45-.99-.56-1.27-.25-.61-.27-1.23-.1-1.86.11-.4.34-.7.78-.77.37-.06.72,0,1.04.2.86.56,1.42,1.44,1.84,2.37.02.06.05.13.04.18Z"/>
</svg>