<?xml version="1.0" encoding="UTF-8"?>
<svg id="Capa_1" data-name="Capa 1" xmlns="http://www.w3.org/2000/svg" viewBox="0 0 80 80">
  <path d="M57.19,58.46c-.65-1.3-1.39-2.55-2.46-3.55-1.87-1.74-3.78-3.45-5.65-5.19-.75-.7-1.47-1.45-1.94-2.38-1.06-2.07-1.45-4.27-1.31-6.58.03-.43.08-.46.49-.35,1.45.36,2.92.52,4.41.44.76-.04,1.3-.61,1.3-1.37,0-.48.03-.96-.01-1.44-.06-.66.08-1.18.69-1.54.25-.14.38-.44.22-.7-.25-.41-.12-.66.23-.89.08-.05.14-.13.21-.19.25-.21.27-.44.1-.71-.14-.23-.26-.47-.41-.69-.15-.23-.1-.41.11-.57.26-.2.51-.41.76-.62.48-.41.52-.93.1-1.41-.66-.74-1.33-1.48-1.99-2.21-.35-.39-.36-.61,0-1,.32-.34.52-.73.64-1.22-.47.46-.6.52-.99.42.01-.05.02-.11.04-.16.56-1.08.8-1.95.65-3.16-.03-.26.11-.34.35-.37.45-.05,1.32-.51,1.7-.7-2.16.04-4.6-.06-5.99-.25-.27-.03-.55-.06-.82-.1-.37-.06-.74-.14-1.12-.22-.14-.03-.21-.05-.21-.05-.04,2.48-.94,4.41-3.24,5.51,2.04-1.78,2.68-4.04,2.25-6.73,1.04.38,2.08.68,3.12.89,1.95.32,6.65,0,8.21-1.45,1.07-.99,1.5-2.13,1.33-3.52-.16-1.33-.65-2.53-1.75-3.35-1.38-1.04-2.92-1.05-4.46-.43-1.13.45-2.28.57-3.47.4-.25-.03-.52-.08-.74-.2-1.26-.67-2.5-1.36-3.76-2.04-.22-.12-.27-.26-.15-.49.41-.76.54-1.58.51-2.44-.04-1.45-.9-2.5-2.3-2.85-.28-.07-.55-.18-.8-.32-1.27-.71-2.63-1.03-4.05-.77-2.87.53-4.94,2.18-6.26,4.76-.89,1.74-1.11,3.65-1.11,5.59,0,.51-.11.98-.31,1.46-.41.95-.81,1.91-1.16,2.89-.53,1.52-.87,3.08-.92,4.69-.05,1.9.5,3.63,1.5,5.24,1.84,2.98,3.85,5.82,6.24,8.4.16.17.27.45.28.68.05,1.06.08,2.11.12,3.17l1.69.47c2.57.62,5.14.89,7.75.8v1.7c-1,0-1.95.05-2.9,0-.93-.05-1.84-.17-2.74-.36h0s-3.78-.79-3.78-.79c-.06.66-.25,1.26-.59,1.8,4.82,3.36,7.62,8.91,6.66,13.59-1.02-4.99-3.48-9.47-7.56-13.4-.83-.3-1.63-.59-2.44-.84-.92-.28-1.87-.46-2.83-.18-.72.21-1.33.59-1.82,1.18.18.13.32.23.46.33,2.67,1.92,4.97,4.19,6.85,6.91,1.6,2.31,3.28,4.58,4.94,6.85,1.12,1.53,2.55,2.69,4.27,3.48.11.05.23.09.38.15,0-.22,0-.38,0-.54.03-1.77,1.46-2.86,3.17-2.42.15.04.35.02.5-.04,1.45-.58,2.9-.55,4.2.3.8.52,1.59.91,2.52,1.14.96.24,1.61.92,1.87,1.91.06.22.15.33.36.42.99.45,1.78,1.15,2.36,2.08.04.07.1.14.18.26.01-.12.03-.18.03-.23-.05-2.42-.59-4.72-1.67-6.89ZM41.2,31.15c-.41.46-1.16.78-1.87.85-.32-.11-.67-.18-.97-.35-.5-.28-.6-.8-.3-1.3.21-.34.57-.61,1-.78-.07-.14-.13-.3-.16-.47-.05-.27-.03-.52.04-.73-.19.05-.37.11-.56.19-.16-.55-.34-1.08-.48-1.61-1.01-3.92-.9-7.79.59-11.59.59-1.51,1.39-2.9,2.36-4.2.11-.15.21-.21.41-.16,1.69.42,3.18,1.21,4.48,2.36.03.03.06.07.08.11-3.8,4.27-5.42,9.25-4.87,14.98-.23-.07-.45-.12-.67-.15.09.15.16.33.19.53.04.21.03.42,0,.6.18.03.34.09.49.18.63.36.73,1,.24,1.56Z"/>
  <path d="M57.86,69.45c.25-.55.57-1.43.33-2.02,0,0,0,0,0,0-.27-1.17-1.23-2.06-2.46-2.21-.64-.08-1.28-.14-1.92-.16-.27,0-.54-.02-.82-.03.77-.29,1.5-.73,2.18-1.16.12-.08.24-.27.23-.4,0-.1-.2-.23-.33-.28-1.27-.47-3.16.61-4.21,1.78-.11,0-.22,0-.34,0,.33-.49.68-1.17.98-1.38.41-.28.87-.47,1.34-.71-.96-1.69-3.24-1.48-4.03-.52.69.46,1.03,1.68,1.27,2.59-.12,0-.25,0-.37,0-.11-.42-.26-1.08-.35-1.24-.88-1.52-2.19-2.34-3.96-2.33-.54,0-.69.3-.45.78.49.99,1.77,2.21,3.07,2.79-.97.03-1.93.09-2.89-.11-2.58-.53-4.68-1.88-6.28-3.94-1.85-2.39-3.64-4.83-5.35-7.33-2.03-2.96-4.56-5.36-7.56-7.3-.36-.23-.54-.21-.78.11-1.92,2.59-3.25,5.44-3.99,8.58-.16.68.18,1.11.87,1.17,2.05.16,4.08.49,6.03,1.16,2.39.82,4.49,2.08,6.11,4.05,1.39,1.67,2.75,3.36,4.14,5.03.56.68,1.12,1.35,1.69,2.02-.43-.3-.87-.63-1.31-.97-.67-.52-1.28-1.12-1.82-1.77-.99-1.2-1.98-2.41-2.96-3.61-1.1-1.34-2.39-2.43-3.93-3.22-2.55-1.31-5.3-1.84-8.13-2.03-.13,0-.36.05-.39.12-.04.12.02.31.1.43,1.21,1.7,2.22,3.51,3.04,5.43,1.7,3.97,2.27,8.14,2.25,12.42,0,.31,0,.62,0,.96.61-.13,1.22-.25,1.81-.41.1-.03.22-.2.22-.31.07-2.42.04-4.83-.43-7.22-.3-1.55-.63-3.09-.61-4.68.02-1.6,1.54-2.62,2.98-1.94,2.36,1.12,4.22,2.82,5.57,5.06.65,1.08,1.22,2.21,1.91,3.27.65,1.01,1.35,1.99,2.11,2.92.7.84,1.67,1.2,2.77,1.19,2.43-.02,4.82-.28,7.18-.89,2.19-.56,4.29-1.36,6.28-2.45.36-.2.69-.44.93-.78h0c.1-.14.19-.31.26-.49,0,0,0,0,0,0Z"/>
</svg>