<?xml version="1.0" encoding="UTF-8"?>
<svg id="Capa_1" data-name="Capa 1" xmlns="http://www.w3.org/2000/svg" xmlns:xlink="http://www.w3.org/1999/xlink" viewBox="0 0 80 80">
  <defs>
    <style>
      .cls-1 {
        clip-path: url(#clippath-1);
      }

      .cls-2 {
        clip-path: url(#clippath-3);
      }
    </style>
    <clipPath id="clippath-1">
      <path d="M-92.03-56.34c.02-.19.07-.39.15-.59.25-.65.69-1.15,1.24-1.57,1.09-.81,2.32-1.18,3.68-1.08.37.03.73.15,1.09.23.05.01.1.03.17.06,0-.07,0-.12,0-.18.18-4.35.36-8.69.54-13.04,0-.05,0-.1,0-.15.56.02,1.12.04,1.68.07.02.2.02.41.08.6.15.58.49,1.06.87,1.51.55.67,1.12,1.32,1.66,1.99.51.64.95,1.36,1.14,2.16s.08,1.64-.24,2.43c-.2.49-.47.95-.83,1.34-.08.08-.18.18-.3.1-.11-.07-.07-.2-.04-.31.06-.26.14-.52.16-.78.2-1.87-.61-4.08-2.69-4.47,0,.11,0,.22-.01.32-.14,3.51-.29,7.01-.43,10.52-.1,2.43-2.97,3.84-5.18,3.6-.41-.05-.82-.14-1.2-.3-1.05-.42-1.65-1.41-1.52-2.46Z"/>
    </clipPath>
    <clipPath id="clippath-3">
      <path d="M171.62,38.78c-1.41,1.03-3.78,2.19-5.35,2.95-1.98.96-4.15,1.6-6.55,1.73-.13,0-.26,0-.4,0-.03,0-.08,0-.11-.06s.1-.1.16-.12c1.94-.51,3.75-1.2,5.45-2.04,2.37-1.17,4.38-2.61,5.75-4.48,1.67-2.27,2.2-4.72,1.8-7.27-.17-1.06-.49-2.11-.77-3.17-.06-.24-.38-1.41-.56-1.38-.24.04,0,.56-.25,1.56-.49,1.88-1.41,3.65-2.46,5.39-1.25,2.06-2.86,3.91-5.15,5.47-.56.38-1.19.74-1.61.77-.14,0-.22-.15-.12-.25.95-.92,4.21-4.4,5.28-6.24,1.67-2.87,2.45-5.87,1.84-9-.26-1.36-.82-2.66-1.6-3.92-.92-1.48-2.12-2.82-3.49-4.08-.1-.1-.78-.63-.52.07.54,1.41.79,2.93,1.02,4.41.25,1.61.23,3.23-.03,4.84-.22,1.4-.64,2.77-1.38,4.08-.26.47-.62,1.02-.91,1.37s-.47.35-.17-.4c.94-2.4.94-5.02.73-7.56-.15-1.84-.57-3.66-1.46-5.39-1.58-3.08-4.31-5.42-8.33-6.86-.89-.32-2.59-.72-3.68-.95-.23-.05-.36.26-.17.39.48.33.94.64,1.37.96,2.33,1.73,4.05,3.74,5.19,6.03,1.13,2.27,1.47,4.61,1.07,7-.37,2.18-1.25,4.26-3.2,5.97-1.06.93-2.32,1.73-3.48,2.59-.83.62-1.64,1.24-2.05,2.1-.38.8-.29,1.58.23,2.29,1.16,1.59,2.4,3.15,3.62,4.72.32.41.57.83.53,1.33-.05.64-.66,1.14-1.53,1.15-.75,0-1.49-.05-2.24-.1-2.24-.1-2.47-.93-2.47-.93-.1-1.23-.32-2.45-.89-3.63-.39-.81-.92-1.55-2.04-1.92-.44-.14-.95-.16-1.49-.25.09-.1.16-.21.27-.29.31-.26.64-.5.95-.76,1.36-1.13,2.36-2.3,3.06-3.68.25-.49.38-1.05.44-1.4.02-.12-.13-.2-.22-.11-.35.33-.93.87-1.08,1-1.28,1.09-2.8,1.96-4.65,2.52-.02,0-.04.02-.07.02-1,.3-2.04.52-3.04.82-1.49.46-2.69,1.16-3.35,2.29-.26.44-.48.9-.84,1.28-.42.44-.73.91-1,1.4-.42.76-.45,1.48-.42,1.78,0,.07.1.1.15.04.61-.64,1.04-.88,1.24-1,.43-.26.86-.51,1.32-.73.49-.24,1.08-.24,1.62-.01.56.24.77.64.63,1.08-.19.59-.41,1.2-.75,1.75-.26.41-.71.76-1.13,1.1-.28.23-.71.18-.93-.04-.33-.32-.72-.36-1.14-.34,0,0,0,0,0,0-.12.01-.25.02-.39.03-.75.04-1.5.11-2.24.1-.87-.01-1.47-.51-1.53-1.15-.04-.49.21-.91.53-1.33,1.22-1.57,2.46-3.13,3.62-4.72.52-.71.62-1.49.23-2.29-.41-.86-1.22-1.48-2.05-2.1-1.16-.86-2.42-1.67-3.48-2.59-1.95-1.71-2.84-3.78-3.2-5.97-.4-2.38-.05-4.73,1.07-7,1.14-2.29,2.86-4.3,5.19-6.03.44-.32.89-.63,1.37-.96.2-.13.07-.44-.17-.39-1.09.23-2.79.63-3.68.95-4.02,1.44-6.75,3.78-8.33,6.86-.89,1.74-1.31,3.55-1.46,5.39-.21,2.54-.21,5.15.73,7.56.29.75.04.63-.17.4s-.64-.9-.91-1.37c-.73-1.31-1.15-2.67-1.38-4.08-.26-1.62-.28-3.24-.03-4.84.23-1.48.49-3,1.02-4.41.26-.7-.42-.17-.52-.07-1.36,1.27-2.56,2.61-3.49,4.08-.78,1.25-1.33,2.56-1.6,3.92-.61,3.13.17,6.12,1.84,9,1.07,1.84,4.33,5.32,5.28,6.24.1.1.02.26-.12.25-.42-.02-1.05-.39-1.61-.77-2.3-1.56-3.9-3.41-5.15-5.47-1.05-1.74-1.97-3.5-2.46-5.39-.26-.99,0-1.52-.25-1.56-.19-.03-.5,1.14-.56,1.38-.27,1.05-.6,2.1-.77,3.17-.41,2.55.13,5,1.8,7.27,1.37,1.87,3.38,3.31,5.75,4.48,1.71.84,3.52,1.54,5.45,2.04.06.02.19.05.16.12s-.08.06-.11.06c-.13,0-.26.02-.4,0-2.4-.13-4.58-.77-6.55-1.73-1.57-.76-3.94-1.92-5.35-2.95-.11-.08-.27.03-.23.16.43,1.35,1.22,2.71,2.16,3.76,2.32,2.58,5.77,3.75,9.8,4.06,1.65.13,4.34.13,6.18-.13.19-.03.24.25.07.32-.99.42-2.64.65-3.67.7-2.4.11-7.03-.23-8.36-.32-.12,0-.19.14-.11.23.81.78,1.75,1.34,2.72,1.86,4.64,2.5,9.33,2.48,14.06.28.1-.04.18.07.11.15-2.02,2.16-5.05,2.65-8.32,2.83-.19.01-.25.26-.08.35,1.42.78,5.39,2.7,9.87,3.2.62.07.69.11.67-.38-.04-.91-.11-1.83-.16-2.74,0-.15,0-.31,0-.54.12.1.17.12.19.15.31.66.63,1.31.93,1.98h0c.09.21.18.43.27.64.09.22.17.43.25.65.05.13.1.26.16.39.03.07.05.13.08.2.05.13.1.25.16.38.02.06.05.11.07.17.08.18.16.36.24.54,0,0,0,0,0,0h0c.22.46.46.9.76,1.34.09.13.09.34.01.47-.18.29-.43.56-.65.83-1.15,1.41-2.36,2.8-2.95,4.42-.6,1.65-.18,3.13,1.36,4.41.29.25.43.22.64-.08.97-1.43,1.94-2.86,2.92-4.28.1-.14.27-.25.41-.38.04.23-.02.42-.07.61-.39,1.49-.76,2.98-1.17,4.47-.26.93-.18,1.09.97,1.62.13.06.36.15.49.2.6.22,1.21.43,1.86.47.65-.04,1.26-.25,1.86-.47.14-.05.36-.14.49-.2,1.15-.52,1.23-.68.97-1.62-.41-1.49-.78-2.98-1.17-4.47-.05-.19-.11-.38-.07-.61.14.12.31.24.41.38.98,1.42,1.95,2.85,2.92,4.28.2.3.34.33.64.08,1.54-1.29,1.95-2.76,1.36-4.41-.58-1.62-1.8-3.01-2.95-4.42-.22-.28-.47-.54-.65-.83-.08-.13-.08-.34.01-.47.79-1.17,1.22-2.42,1.72-3.67.35-.88.79-1.75,1.2-2.62.01-.03.06-.05.19-.15,0,.23,0,.39,0,.54-.05.91-.12,1.83-.16,2.74-.02.49.05.45.67.38,4.48-.49,8.44-2.42,9.87-3.2.17-.09.11-.34-.08-.35-3.28-.18-6.31-.68-8.32-2.83-.07-.08.01-.19.11-.15,4.73,2.2,9.42,2.22,14.06-.28.97-.52,1.91-1.09,2.72-1.86.09-.08.02-.23-.11-.23-1.33.09-5.96.43-8.36.32-1.03-.05-2.69-.28-3.67-.7-.17-.07-.11-.35.07-.32,1.85.26,4.53.26,6.18.13,4.03-.31,7.47-1.48,9.8-4.06.94-1.05,1.73-2.41,2.16-3.76.04-.13-.11-.24-.23-.16Z"/>
    </clipPath>
  </defs>
  <path d="M43.37,5.73c-7.63.08-10.26,9.81-11.67,11.31s-6.13,2.91-11.39,6.58c-5.26,3.67-7.23,9.61-7.09,13.82.14,4.21-1.37,6.41-1.79,9.13-.42,2.72,2.67.7,3.85-.42,2.1-1.98,4.35-7.12,4.35-7.12,1.46-3.06,2.81-2.26,2.72-3.37-.09-1.1,1.4-2.91,3.02-1.1,1.62,1.81-.17,2.7-.8,2.97-.63.27-2.39-.64-3.45,1.99-1.06,2.63-4.05,7.12-5.6,8.13-1.55,1.01-1.94,1.67.04,2,1.98.33,5.21-3.46,6.28-4.22,1.07-.77,2.41-.24,6.51-1.01,4.1-.77,6.43-2.48,7.18-2.77s1.18.37,6.98.42c5.8.05,9.17-4.11,9.17-4.11,0,0-.62.31-3.55-1.45-2.94-1.75-5.83-2.18-8.49-1.02-2.66,1.16-4.22.15-.62-1.4,3.6-1.55,9.78-.57,13.29.73,3.51,1.3,6.32,3.59,7.44,9,1.12,5.4-3.35,6.61-4.73,6.43-1.38-.18-4.48-2.53-9.79-.91-5.3,1.62-5.45,5.74-5.45,5.74,2.58-.83,5.05.98,7.85,2.52,2.79,1.54,4.31.9,6.57-.11s14.27-12.05,6.18-22.99c-8.09-10.93-21.12-6.93-24.96-6.06-3.84.87-6.42,4.78-7.36,3.65-.94-1.12,4.44-4.77,9.1-6.51,4.66-1.74,19.13-1.85,25.06,8.01,5.93,9.86-.54,21.99-5.56,24.59-5.02,2.6-4.44,4.34-4.02,9.53.43,5.19,4.42,6.58,4.42,6.58-1.11-3.84,2.99-6.2,4.8-9.58,1.82-3.37-.02-6.17,2.95-9.78,2.97-3.61,6.21-12.19,1.2-24.69-5.01-12.51-21.92-15.9-21.92-15.9-3.03-4.61-.72-8.6-.72-8.6Z"/>
  <g>
    <path d="M-92.03-56.34c.02-.19.07-.39.15-.59.25-.65.69-1.15,1.24-1.57,1.09-.81,2.32-1.18,3.68-1.08.37.03.73.15,1.09.23.05.01.1.03.17.06,0-.07,0-.12,0-.18.18-4.35.36-8.69.54-13.04,0-.05,0-.1,0-.15.56.02,1.12.04,1.68.07.02.2.02.41.08.6.15.58.49,1.06.87,1.51.55.67,1.12,1.32,1.66,1.99.51.64.95,1.36,1.14,2.16s.08,1.64-.24,2.43c-.2.49-.47.95-.83,1.34-.08.08-.18.18-.3.1-.11-.07-.07-.2-.04-.31.06-.26.14-.52.16-.78.2-1.87-.61-4.08-2.69-4.47,0,.11,0,.22-.01.32-.14,3.51-.29,7.01-.43,10.52-.1,2.43-2.97,3.84-5.18,3.6-.41-.05-.82-.14-1.2-.3-1.05-.42-1.65-1.41-1.52-2.46Z"/>
    <g class="cls-1">
      <rect x="-138.19" y="-118.66" width="198.45" height="122.69"/>
    </g>
  </g>
  <g>
    <path d="M171.62,38.78c-1.41,1.03-3.78,2.19-5.35,2.95-1.98.96-4.15,1.6-6.55,1.73-.13,0-.26,0-.4,0-.03,0-.08,0-.11-.06s.1-.1.16-.12c1.94-.51,3.75-1.2,5.45-2.04,2.37-1.17,4.38-2.61,5.75-4.48,1.67-2.27,2.2-4.72,1.8-7.27-.17-1.06-.49-2.11-.77-3.17-.06-.24-.38-1.41-.56-1.38-.24.04,0,.56-.25,1.56-.49,1.88-1.41,3.65-2.46,5.39-1.25,2.06-2.86,3.91-5.15,5.47-.56.38-1.19.74-1.61.77-.14,0-.22-.15-.12-.25.95-.92,4.21-4.4,5.28-6.24,1.67-2.87,2.45-5.87,1.84-9-.26-1.36-.82-2.66-1.6-3.92-.92-1.48-2.12-2.82-3.49-4.08-.1-.1-.78-.63-.52.07.54,1.41.79,2.93,1.02,4.41.25,1.61.23,3.23-.03,4.84-.22,1.4-.64,2.77-1.38,4.08-.26.47-.62,1.02-.91,1.37s-.47.35-.17-.4c.94-2.4.94-5.02.73-7.56-.15-1.84-.57-3.66-1.46-5.39-1.58-3.08-4.31-5.42-8.33-6.86-.89-.32-2.59-.72-3.68-.95-.23-.05-.36.26-.17.39.48.33.94.64,1.37.96,2.33,1.73,4.05,3.74,5.19,6.03,1.13,2.27,1.47,4.61,1.07,7-.37,2.18-1.25,4.26-3.2,5.97-1.06.93-2.32,1.73-3.48,2.59-.83.62-1.64,1.24-2.05,2.1-.38.8-.29,1.58.23,2.29,1.16,1.59,2.4,3.15,3.62,4.72.32.41.57.83.53,1.33-.05.64-.66,1.14-1.53,1.15-.75,0-1.49-.05-2.24-.1-2.24-.1-2.47-.93-2.47-.93-.1-1.23-.32-2.45-.89-3.63-.39-.81-.92-1.55-2.04-1.92-.44-.14-.95-.16-1.49-.25.09-.1.16-.21.27-.29.31-.26.64-.5.95-.76,1.36-1.13,2.36-2.3,3.06-3.68.25-.49.38-1.05.44-1.4.02-.12-.13-.2-.22-.11-.35.33-.93.87-1.08,1-1.28,1.09-2.8,1.96-4.65,2.52-.02,0-.04.02-.07.02-1,.3-2.04.52-3.04.82-1.49.46-2.69,1.16-3.35,2.29-.26.44-.48.9-.84,1.28-.42.44-.73.91-1,1.4-.42.76-.45,1.48-.42,1.78,0,.07.1.1.15.04.61-.64,1.04-.88,1.24-1,.43-.26.86-.51,1.32-.73.49-.24,1.08-.24,1.62-.01.56.24.77.64.63,1.08-.19.59-.41,1.2-.75,1.75-.26.41-.71.76-1.13,1.1-.28.23-.71.18-.93-.04-.33-.32-.72-.36-1.14-.34,0,0,0,0,0,0-.12.01-.25.02-.39.03-.75.04-1.5.11-2.24.1-.87-.01-1.47-.51-1.53-1.15-.04-.49.21-.91.53-1.33,1.22-1.57,2.46-3.13,3.62-4.72.52-.71.62-1.49.23-2.29-.41-.86-1.22-1.48-2.05-2.1-1.16-.86-2.42-1.67-3.48-2.59-1.95-1.71-2.84-3.78-3.2-5.97-.4-2.38-.05-4.73,1.07-7,1.14-2.29,2.86-4.3,5.19-6.03.44-.32.89-.63,1.37-.96.2-.13.07-.44-.17-.39-1.09.23-2.79.63-3.68.95-4.02,1.44-6.75,3.78-8.33,6.86-.89,1.74-1.31,3.55-1.46,5.39-.21,2.54-.21,5.15.73,7.56.29.75.04.63-.17.4s-.64-.9-.91-1.37c-.73-1.31-1.15-2.67-1.38-4.08-.26-1.62-.28-3.24-.03-4.84.23-1.48.49-3,1.02-4.41.26-.7-.42-.17-.52-.07-1.36,1.27-2.56,2.61-3.49,4.08-.78,1.25-1.33,2.56-1.6,3.92-.61,3.13.17,6.12,1.84,9,1.07,1.84,4.33,5.32,5.28,6.24.1.1.02.26-.12.25-.42-.02-1.05-.39-1.61-.77-2.3-1.56-3.9-3.41-5.15-5.47-1.05-1.74-1.97-3.5-2.46-5.39-.26-.99,0-1.52-.25-1.56-.19-.03-.5,1.14-.56,1.38-.27,1.05-.6,2.1-.77,3.17-.41,2.55.13,5,1.8,7.27,1.37,1.87,3.38,3.31,5.75,4.48,1.71.84,3.52,1.54,5.45,2.04.06.02.19.05.16.12s-.08.06-.11.06c-.13,0-.26.02-.4,0-2.4-.13-4.58-.77-6.55-1.73-1.57-.76-3.94-1.92-5.35-2.95-.11-.08-.27.03-.23.16.43,1.35,1.22,2.71,2.16,3.76,2.32,2.58,5.77,3.75,9.8,4.06,1.65.13,4.34.13,6.18-.13.19-.03.24.25.07.32-.99.42-2.64.65-3.67.7-2.4.11-7.03-.23-8.36-.32-.12,0-.19.14-.11.23.81.78,1.75,1.34,2.72,1.86,4.64,2.5,9.33,2.48,14.06.28.1-.04.18.07.11.15-2.02,2.16-5.05,2.65-8.32,2.83-.19.01-.25.26-.08.35,1.42.78,5.39,2.7,9.87,3.2.62.07.69.11.67-.38-.04-.91-.11-1.83-.16-2.74,0-.15,0-.31,0-.54.12.1.17.12.19.15.31.66.63,1.31.93,1.98h0c.09.21.18.43.27.64.09.22.17.43.25.65.05.13.1.26.16.39.03.07.05.13.08.2.05.13.1.25.16.38.02.06.05.11.07.17.08.18.16.36.24.54,0,0,0,0,0,0h0c.22.46.46.9.76,1.34.09.13.09.34.01.47-.18.29-.43.56-.65.83-1.15,1.41-2.36,2.8-2.95,4.42-.6,1.65-.18,3.13,1.36,4.41.29.25.43.22.64-.08.97-1.43,1.94-2.86,2.92-4.28.1-.14.27-.25.41-.38.04.23-.02.42-.07.61-.39,1.49-.76,2.98-1.17,4.47-.26.93-.18,1.09.97,1.62.13.06.36.15.49.2.6.22,1.21.43,1.86.47.65-.04,1.26-.25,1.86-.47.14-.05.36-.14.49-.2,1.15-.52,1.23-.68.97-1.62-.41-1.49-.78-2.98-1.17-4.47-.05-.19-.11-.38-.07-.61.14.12.31.24.41.38.98,1.42,1.95,2.85,2.92,4.28.2.3.34.33.64.08,1.54-1.29,1.95-2.76,1.36-4.41-.58-1.62-1.8-3.01-2.95-4.42-.22-.28-.47-.54-.65-.83-.08-.13-.08-.34.01-.47.79-1.17,1.22-2.42,1.72-3.67.35-.88.79-1.75,1.2-2.62.01-.03.06-.05.19-.15,0,.23,0,.39,0,.54-.05.91-.12,1.83-.16,2.74-.02.49.05.45.67.38,4.48-.49,8.44-2.42,9.87-3.2.17-.09.11-.34-.08-.35-3.28-.18-6.31-.68-8.32-2.83-.07-.08.01-.19.11-.15,4.73,2.2,9.42,2.22,14.06-.28.97-.52,1.91-1.09,2.72-1.86.09-.08.02-.23-.11-.23-1.33.09-5.96.43-8.36.32-1.03-.05-2.69-.28-3.67-.7-.17-.07-.11-.35.07-.32,1.85.26,4.53.26,6.18.13,4.03-.31,7.47-1.48,9.8-4.06.94-1.05,1.73-2.41,2.16-3.76.04-.13-.11-.24-.23-.16Z"/>
    <g class="cls-2">
      <rect x="61.7" y="-18.66" width="198.45" height="122.69"/>
    </g>
  </g>
</svg>