<?xml version="1.0" encoding="UTF-8"?>
<svg id="Capa_1" data-name="Capa 1" xmlns="http://www.w3.org/2000/svg" viewBox="0 0 80 80">
  <path d="M73.4,22.1c-.13-1.17-.54-2.73-1.09-3.98-.55-1.25-1.26-2.2-2.01-2.88-.75-.69-1.55-1.12-2.88-1.55-.74-.24-1.64-.48-2.65-.72,0,0,0,0,0,0-1.15-2.71-1.72-2.91-2.46-2.73-.67.16-1.48.64-2.57,1.76,0,0,0,0,0,0-.56-.09-1.13-.17-1.69-.25,0,0,0,0,0,0-1.06-1.94-1.48-2.17-1.85-2.2-.37-.03-.68.13-2.22,1.82,0,0,0,0,0,0-.53-.02-1.03-.03-1.51-.03,0,0,0,0,0,0-1.03-1.26-1.5-1.54-1.82-1.64-.36-.11-.54,0-.85.38-.24.3-.56.77-.88,1.64,0,0,0,0,0,0h0s0,0,0,0h0c-.55.13-1.08.29-1.57.5,0,0,0,0,0,0-1.07-.51-1.71-.69-2.15-.66-.5.04-.75.34-.84.84-.07.39-.04.89.08,1.9-.27.3-.53.63-.76.98,0,0,0,0,0,0-1.08.02-1.58.15-1.83.35-.31.24-.22.59.02,1.12.14.31.32.67.65,1.14-.13.45-.24.91-.34,1.38,0,0,0,0,0,0-1.71.33-2.07.67-2.24.98-.19.35-.13.66.2,1.19.28.45.75,1.05,1.48,1.84.03-.31.07-.62.1-.93-.03.31-.07.62-.1.93-.03.36-.06.71-.09,1.06,0,0,0,0,0,0-2.58.05-2.91.24-3.09.43-.2.21-.22.41.08.93.27.46.8,1.18,2.69,2.42-.04.26-.09.53-.15.79-.15.71-.37,1.45-.61,2.15,0,0,0,0,0,0-1.59-.37-2.08-.41-2.4-.37-.35.04-.47.18-.5.42-.03.24.03.57.35,1.16.25.46.66,1.07,1.24,1.81-.31.56-.59.96-.86,1.29-.19.24-.37.43-.63.63,0,0,0,0,0,0-2.14-1.04-2.6-1.14-2.97-1.09-.38.06-.68.27-1.04,3.06-.59.24-1.2.48-1.8.7,0,0,0,0,0,0-1.94-1.49-2.49-1.71-2.91-1.68-.42.03-.71.32-1.69,2.97,0,0,0,0,0,0-.18.03-.35.06-.53.09-.54.08-1.09.15-1.63.19,0,0,0,0,0,0-1.18-1.55-1.61-2.04-1.92-2.34-.35-.34-.54-.45-1.01-.13-.4.28-.99.86-2.06,2.13,0,0,0,0,0,0h0c-.73-.17-1.51-.42-2.48-.74-1.89-.63-4.45-1.58-6.15-2.3-1.71-.73-2.55-1.24-3.19-1.59-.63-.35-1.04-.54-1.3-.57-.26-.02-.37.12-.42.37-.05.24-.04.59.62,1.84.65,1.25,1.95,3.4,3.66,5.77,1.7,2.37,3.82,4.96,5.79,7.01,1.98,2.05,3.82,3.55,5.22,4.68,1.4,1.13,2.34,1.88,3.29,2.66.95.78,1.89,1.59,2.41,2.54.51.94.6,2.02.52,3.13-.08,1.1-.32,2.24-.73,3.16-.41.92-.99,1.62-1.27,2.06-.28.44-.28.63-.1.86.17.23.52.51,1.65.82,1.13.31,3.05.65,4.76.79,1.71.13,3.2.05,4.13-.03.92-.09,1.27-.18,1.44-.29.17-.11.16-.25.11-.63-.05-.39-.16-1.03-.44-1.66-.28-.63-.73-1.24-1.77-1.71.69-.31,1.12-.88,1.5-1.53.38-.64.71-1.36.89-2.45.12-.7.17-1.56.16-2.41.23,0,.45-.02.67-.03.04,0,.07,0,.11,0,.46,1.34.54,2.63.49,3.65-.07,1.31-.34,2.17-.5,2.66-.16.49-.2.61-.19.72.02.11.09.21.35.38.25.17.69.4,1.61.62.92.22,2.34.42,3.77.48,1.43.06,2.87-.02,3.9-.11,1.03-.09,1.64-.19,1.95-.3.32-.11.33-.24.32-.62-.01-.38-.05-1-.36-1.68-.31-.67-.88-1.39-2.36-1.76.43-.58.77-1.89.96-3.38.15-1.17.2-2.45-.31-3.79.39-.44.74-.98,1.07-1.69.72-1.54,1.34-3.87,1.95-6.2.06-.24.12-.48.18-.71.04-.02.09-.04.14-.06.59-.24,1.7-.71,3.81-2.15.33.68.78.97,1.18,1.08.4.11.76.04,1.01-.29.24-.32.37-.9-.35-1.62,1.14.12,1.54-.09,1.78-.34.24-.24.32-.53.24-.82-.08-.3-.34-.61-.71-.82-.38-.21-.87-.31-1.44-.24-.57.07-1.21.31-2.16.82-.85.45-1.94,1.12-2.79,1.63.25-1.07.48-2.11.67-3.09.44-.32.98-.74,1.67-1.33.34.52.73.72,1.07.77s.63-.04.8-.33.21-.77-.45-1.3c.94-.01,1.26-.22,1.43-.45.17-.22.21-.46.11-.7s-.34-.47-.66-.61c-.33-.14-.75-.17-1.21-.06-.46.11-.97.37-1.69.88-.2.14-.42.3-.65.47.14-.99.24-1.87.34-2.57.18-1.24.36-1.93.66-2.45s.7-.85,1.11-1.07c.41-.22.81-.31,1.44-.22.63.09,1.48.37,2.49.72,1.01.35,2.17.78,3.28,1.08,1.11.29,2.17.45,3.1.37.93-.08,1.73-.4,2.38-.85.65-.45,1.14-1.02,1.49-1.49.35-.48.56-.85.61-1.11.06-.26-.04-.4-.52-.58-.48-.18-1.34-.4-2.84-.93-1.5-.53-3.66-1.36-5.08-2.68.6-.03,1.16-.06,1.67-.09.01,0,.03,0,.04,0,.14.28.36.62.57.83.22.23.41.32.64.26.22-.06.48-.26.94-1.21.01,0,.03,0,.04,0,.11,0,.22-.01.33-.02.01,0,.02,0,.03,0,.3.73.55,1.1.76,1.3.22.2.41.22.62.16.21-.06.43-.2,1.22-1.66.02,0,.04,0,.05,0,.08,0,.17-.02.24-.03,0,0,.02,0,.03,0,.4,1.5.72,1.63.99,1.65.28.02.51-.07.79-.37.27-.29.58-.78,1.18-2.39.03-.03.07-.06.09-.09.01-.01.02-.03.04-.04.32-.35.51-.72.67-1.28.16-.57.3-1.33.16-2.5Z"/>
</svg>