<?xml version="1.0" encoding="UTF-8"?>
<svg id="Capa_1" data-name="Capa 1" xmlns="http://www.w3.org/2000/svg" viewBox="0 0 80 80">
  <path d="M25.31,32.09c.38-1.17,1.23-2.08,1.95-3.14-.71-.44-1.4-.86-2.07-1.3-4.14-2.71-5.95-8.4-4.05-12.73,1.8-4.1,6-6.36,10.46-5.74,3.34.46,6.11,1.9,8.2,4.54,2.06,2.61,2.84,5.57,2.12,8.87-.01.06,0,.13,0,.28,2.4.35,4.7,1,6.77,2.32,2.05,1.31,3.94,2.79,5.41,4.83.42-.39.79-.81,1.23-1.13,2.91-2.08,5.89-2.02,8.91-.25,4.95,2.89,6.99,9.92,4.38,15.04-1.96,3.85-6.43,5.33-10.29,3.42-.24-.12-.49-.24-.8-.39-.34.88-.66,1.7-.97,2.51-8.23-9.76-18.41-15.7-31.25-17.12Z"/>
  <path d="M40.98,59.14c.56-.54,1.07-1.05,1.61-1.53.44-.39.39-.71-.13-.9-1.22-.46-2.42-1.03-3.68-1.28-1.92-.38-3.89-.57-5.84-.75-.87-.08-.93.09-.93.96.02,2.89.05,5.79.03,8.68,0,.6.2.95.74,1.08.95.23,1.9.54,2.87.59,3.8.2,7.54-.15,11.12-1.54,2.02-.78,3.77-1.95,4.86-3.88,1.31-2.33,1.22-4.79.35-7.21-1.19-3.34-3.52-5.84-6.28-7.95-6.48-4.95-13.83-7.88-21.83-9.21-3.11-.52-6.26-.7-9.41-.36-.74.08-1.46.31-2.18.49-.12.03-.21.18-.31.27.12.1.22.26.35.3.37.11.77.13,1.12.28.19.08.3.35.44.53-.18.12-.35.33-.53.33-.75.02-1.5.02-2.24-.07-.74-.08-.93-.42-.84-1.16.15-1.23.94-1.99,1.94-2.56,1.67-.96,3.54-1.25,5.42-1.43,4.83-.48,9.51.33,14.15,1.63,6.44,1.81,12.2,4.89,17.36,9.11,2.84,2.32,5.26,4.98,6.88,8.33,1.98,4.09,1.18,9.02-2.02,12.23-2.62,2.63-5.87,3.99-9.43,4.75-3.57.77-7.15.69-10.73.09-1.61-.27-1.63-.27-2.07,1.25-.13.44-.34.6-.75.62-.28.02-.55.06-.83.06-1.47.02-1.88-.17-2.08-1.65-.22-1.69-1.16-2.58-2.56-3.39-2.68-1.56-5.24-3.34-7.2-5.82-.38-.48-.76-.98-1.06-1.52-.84-1.52-.59-2.58.76-3.65,1.96-1.56,4.24-2.36,6.63-2.92.92-.21,1.83-.45,2.76-.58.59-.08.68-.37.74-.88.25-2.01.55-4.02.86-6.03.05-.35.19-.7.34-1.03.31-.69.55-.71,1.06-.17.93,1,1.35,2.21,1.47,3.55.09,1.11.2,2.22.24,3.33.02.57.24.71.78.72,2.77.03,5.51.33,8.19,1.08,1.53.43,3.02.98,4.18,2.15,1.48,1.49,1.45,3.22-.09,4.66-1.38,1.3-2.89,1.46-4.24.36ZM27.5,64.06c.15-3.25.29-6.23.43-9.31-1.62.17-3.12.27-4.59.51-1.39.23-2.78.52-4.12.93-1.25.39-1.42,1.13-.66,2.18.21.29.43.61.71.82,1.44,1.1,2.85,2.27,4.39,3.21,1.13.69,2.45,1.06,3.84,1.65Z"/>
</svg>