<?xml version="1.0" encoding="UTF-8"?>
<svg id="Capa_1" data-name="Capa 1" xmlns="http://www.w3.org/2000/svg" viewBox="0 0 80 80">
  <path d="M57.55,66.4c-1.13.97-3.77,1.31-4.44-.9-.27-.88-.48-1.78-.69-2.67-.13-.55-.26-.75-.94-.55-2.31.69-4.7.81-7.07.5-1.84-.24-3.6-.82-5.25-1.7-.5-.27-.7-.56-.62-1.15.07-.55-.05-1.13-.18-1.69-.4,1.23-.74,2.49-1.21,3.7-.72,1.86-1.74,3.53-3.37,4.78-1.32,1.01-2.7,1.06-4.18.45-2.07-.85-3.71-2.26-5.13-3.94-.67-.8-.68-1.46-.02-2.32.57-.74,1.19-1.43,1.79-2.15.17-.2.32-.42.47-.64-.05-.04-.09-.08-.14-.12-.31.3-.65.58-.93.91-.28.33-.6.4-.91.13-.43-.37-.86-.76-1.17-1.21-.38-.54-.2-1.3.36-1.66.98-.65,2.01-1.22,3.03-1.8.76-.44.78-.61.56-1.47-.45-1.76-1.87-2.3-3.37-2.8-.93-.31-1.83-.69-2.74-1.05-.14-.06-.25-.18-.42-.32.71-.6,1.83-.64,2.13-1.63l-.15-.14c-.39.15-.76.38-1.16.44-1.2.18-2.41.44-3.62.42-3.91-.05-7.15-1.64-9.74-4.46-1.74-1.89-2.36-4.21-1.96-6.72.21-1.36.87-2.58,1.88-3.57,1.04-1.02,2.14-1.96,3.51-2.52.84-.34,1.02-.23,1.39.56.1.22.41.34.63.49.2.13.41.24.62.36-.14.19-.24.45-.43.57-.6.4-1.29.69-1.86,1.12-2.14,1.62-1.73,4.51.82,5.68,1.42.66,2.81.39,3.96-.57,2.12-1.77,4.18-3.61,6.21-5.49,2.02-1.86,4-3.74,6.5-5,2.08-1.05,4.26-1.55,6.6-1.3,2,.21,3.81,1,5.45,2.09,1.57,1.04,3.26,1,5.01.92,2.23-.11,4.99.6,5.83,3,.31.89.39,1.91.35,2.86-.13,3.13-1.32,5.93-3.27,8.34-1.78,2.2-3.85,4.19-6.71,5.01-2.01.58-4.06.66-5.98-.34-1.17-.61-1.87-1.63-2.16-2.94-.32-1.43-.2-2.84.07-4.25-.06-.03-.12-.06-.18-.09-.33.68-.76,1.34-.97,2.05-1.07,3.64,1.07,6.1,3.93,7.1,2.04.71,4.1.41,6.08-.3,3.98-1.43,6.76-4.18,8.68-7.85.99-1.9,1.57-3.94,2.08-6,.03-.11.08-.21.14-.36,1.93.18,3.63.89,5.23,1.9,2.49,1.57,3.89,3.97,5.15,6.49.93,1.85,1.92,3.66,2.89,5.48.92,1.73,2.47,2.08,4.24,1.22.1-.05.21-.1.32-.15.45-.22,1.02.03,1.11.52.04.17.05.35.05.53,0,.45-.11.89-.28,1.31-.14.34-.44.61-.82.64-.09,0-.22,0-.28-.07s-.12-.16-.19-.23c-.13-.14-.29-.26-.45-.35-.63-.36-1.39-.39-2.09-.52-2.09-.38-3.45-1.78-4.42-3.58-.04-.08-.08-.16-.13-.24-.02-.03-.08-.04-.23-.1-.04.2-.09.38-.11.57-.38,3.9.62,7.43,2.96,10.59.28.37.56.74.85,1.11.8,1.03.51,2.4-.63,3.04-1.79,1.01-3.57,2.06-5.44,2.88-1.33.59-3,.24-4.09-.94-1.51-1.63-2.65-3.42-3.05-5.61-.09-.48-.11-.97-.27-1.42-.25,2.75.84,5.05,2.58,7.11Z"/>
  <path d="M33.09,18.94c1.32.16,2.49.43,3.3,1.54,1.48,2.04.71,4.47-1.7,5.27-2.46.82-4.78.6-6.95-.81-1.59-1.04-3.25-1.84-5.03-1.85.69-1.45,1.4-2.89,2.05-4.35.38-.87.56-1.84,1.01-2.68.92-1.7,2.38-2.84,4.23-3.45,1.38-.45,2.91.04,3.7,1.11.91,1.23.95,2.88.1,4.09-.24.34-.45.71-.72,1.14Z"/>
  <path d="M14.5,30.25c.19-1.08.14-2.26-.18-3.48-.45-1.73.4-4.11,1.93-4.85,1.29-.62,3.07.41,3.08,1.82,0,.37-.02.73-.04,1.21.36-.07.63-.15.92-.19,1.04-.14,2.05.39,2.53,1.29.34.65.08,1.83-.57,2.51-.97,1.01-2.22,1.43-3.59,1.52-.33.02-.66-.05-.99-.03-1.01.05-2.02.12-3.08.18Z"/>
  <path d="M38.81,19.9c1.63-.91,3.14-2.23,4.41-3.93,1.81-2.42,5.87-3.88,8.47-2.69,2.19.99,2.74,4.37.87,5.89-.48.39-1,.75-1.65,1.24.48.38.88.65,1.23.97,1.29,1.18,1.67,3.04.98,4.62-.49,1.12-2.33,2.05-3.93,1.94-2.38-.17-4.26-1.33-5.85-2.98-.38-.4-.64-.9-1.01-1.3-1.14-1.25-2.32-2.47-3.53-3.75Z"/>
</svg>