<?xml version="1.0" encoding="UTF-8"?>
<svg id="Capa_1" data-name="Capa 1" xmlns="http://www.w3.org/2000/svg" viewBox="0 0 80 80">
  <polygon points="58.77 7.26 29.48 37.92 37.64 36.9 27.07 52.42 35.17 51.35 21.28 72.74 49.97 44.43 41.3 45.03 54.64 28.85 44.28 31.59 58.77 7.26"/>
  <path d="M22.75,63.8l5.01-7.71c-4.75-3.61-7.82-9.27-7.82-15.64,0-10.91,8.98-19.75,20.06-19.75.5,0,.98.02,1.47.06l7.24-7.89c-2.75-.84-5.68-1.29-8.71-1.29-16.2,0-29.33,12.93-29.33,28.88,0,9.6,4.76,18.1,12.08,23.35Z"/>
  <path d="M57.17,17.05l-4.72,7.93c4.63,3.62,7.61,9.2,7.61,15.48,0,10.91-8.98,19.75-20.06,19.75-.28,0-.56,0-.83-.02l-7.94,7.83c2.77.85,5.72,1.32,8.77,1.32,16.2,0,29.33-12.93,29.33-28.88,0-9.63-4.79-18.16-12.16-23.4Z"/>
</svg>