<?xml version="1.0" encoding="UTF-8"?>
<svg id="Capa_1" data-name="Capa 1" xmlns="http://www.w3.org/2000/svg" viewBox="0 0 80 80">
  <defs>
    <style>
      .cls-1 {
        fill-rule: evenodd;
      }
    </style>
  </defs>
  <path class="cls-1" d="M64.35,50.62c3.04.14,8.94.18,8.81-1.48-.13-1.67-5.52-2.19-8.28-2.35-.25-.38-.48-.87-.69-1.51-1.59-5.01-2.78-10.14-3.83-15.28-.53-2.58-1.03-5.16-1.53-7.74-.44-2.26-.55-4.97-1.89-6.94-.6-.88-7.68,9.44-8.09,10.01-.44.61-1.42,1.37-2.01,1.26-4.52-.81-8.95-.41-13.41.45-.74.14-1.96-.37-2.44-.97-2.44-3.1-4.76-8.44-8.38-10.28-1.75,1.9-1.5,5.03-1.77,7.43-.33,2.92-.63,5.84-.99,8.75-.3,2.5-2.05,12.99-4.47,16.27-2.56.4-9.08,1.67-8.51,4.17.56,2.48,6.98.45,9.53-.47.17.22.32.5.45.84.11.28.17.53.19.76-1.91.91-7.8,3.91-6.47,5.95,1.22,1.86,6.2-.98,8.43-2.39.15.06.29.13.38.22,6.23,5.99,13.95,7.7,22.3,7.37,6.46-.25,12.72-1.69,17.49-6.15,1.17-1.1,2.2-2.12,3.32-2.65,2.1,1.1,6.91,3.33,8.01,1.18,1.13-2.21-4.49-3.75-6.8-4.28-.1-1.17.14-1.79.64-2.17ZM34.61,45.06l-3.98,3.38-4.47-2.71c-1.05-.42-1.83-1.38-1.92-2.55-.14-1.66,1.15-3.12,2.87-3.26,1.24-.1,2.38.52,2.96,1.51.41-1.06,1.43-1.85,2.68-1.95,1.72-.14,3.22,1.1,3.36,2.76.1,1.17-.51,2.24-1.49,2.82ZM55.76,43.18c-.1,1.17-.87,2.13-1.92,2.55l-4.47,2.71-3.98-3.38c-.97-.58-1.58-1.65-1.49-2.82.14-1.66,1.64-2.9,3.36-2.76,1.24.1,2.26.89,2.68,1.95.58-.98,1.71-1.6,2.96-1.51,1.72.14,3,1.59,2.87,3.26Z"/>
</svg>