<?xml version="1.0" encoding="UTF-8"?>
<svg id="Capa_1" data-name="Capa 1" xmlns="http://www.w3.org/2000/svg" viewBox="0 0 80 80">
  <defs>
    <style>
      .cls-1 {
        fill: #fff;
      }
    </style>
  </defs>
  <path d="M55.32,21.63c.02.09.03.18.05.27.02.1.03.2.05.3,1.29.4,2.32,1.16,3.21,1.97,1.07-.22,2.08-.32,3.06-.32.76,0,1.51.06,2.25.19,1.28.22,2.34.59,3.22,1.1-.54-2.18-.16-4.52-1.38-6.9-1.97-3.83-8.24-2.48-12-.69.72,1.17,1.25,2.53,1.54,4.07Z"/>
  <path d="M48.49,15.34c1.47.35,2.77,1.4,3.62,2.59.02.03.04.06.06.08.81,1.17,1.3,2.54,1.56,3.91.02.08.03.16.04.24.02.14.05.29.06.43.04.32.06.64.07.96,1.78.14,3.04,1.21,4.24,2.38,1.84-.46,3.63-.63,5.52-.3,1.05.18,2.13.5,3.02,1.1,1.01.69,1.51,1.85,1.61,3.03.03.34-.01.67-.05,1.01-.09.79-.42,1.51-.74,2.24-1.15,2.57-2.68,5.46-5.52,6.54-1.06.4-2.74.58-3.78,0-.78-.43-1.48-1-2.07-1.67-.75-.85-1.32-1.83-1.84-2.83-.79-.11-1.59-.03-2.39-.18-1.62-.31-3.01-1.38-3.86-2.74-1.13.5-2.44.84-3.7.8-2.21-.06-4.67-.58-5.83-2.63-.75-1.31-.8-2.84-.67-4.3.14-1.55.62-2.98,1.31-4.38.71-1.45,1.65-2.81,2.82-3.95.05-.05.09-.09.14-.13.64-.61,1.34-1.16,2.13-1.59,1.26-.69,2.78-.96,4.2-.64.02,0,.04,0,.06.01Z"/>
  <path class="cls-1" d="M52.86,25.79c-3.5.11-4.54,5.49-.91,6.76,5.42,1.9,6.92-6.95.91-6.76Z"/>
  <path class="cls-1" d="M65.32,29.36c-.88-1.66-3.47-1.34-5.29-1.03.05.5.05,1.01,0,1.52,3.15,1.38,1.15,5.7-1.91,4.36-.34.37-.73.69-1.16.97,1.59,3.15,5.04,2.74,7.09-.28.85-1.26,2.02-4.1,1.27-5.53Z"/>
  <path class="cls-1" d="M46.48,28.03c-1.66-.71-2.19-2.93-.82-4.26.99-.97,2.53-1,3.59-.21.46-.32.97-.58,1.53-.77-.82-2.93-3.24-5.95-6.42-3.31-3.48,2.89-6.22,11.67,1.52,10.24.16-.03.32-.07.49-.12-.01-.52.03-1.05.12-1.57Z"/>
  <path d="M75.17,43.47l-5.64-.17c-.17-1.12-.25-2.26-.49-3.37-.16-.75-.95-2.72-1.31-3.78-1.2,2.1-2.79,4-5.18,4.91-.8.3-1.77.48-2.66.48-.96,0-1.79-.19-2.48-.57-.94-.52-1.79-1.2-2.5-2.02-.67-.76-1.2-1.6-1.62-2.35h-.13c-.47-.02-1-.04-1.56-.14-1.57-.3-3.02-1.15-4.12-2.39-.85.27-1.86.48-2.95.48-.08,0-.15,0-.23,0-3.53-.1-5.95-1.26-7.19-3.44-1.04-1.83-1-3.87-.88-5.24.14-1.61.62-3.23,1.46-4.94.29-.6.62-1.15.97-1.7-.91.16-2.82-.01-3.52.03-2.31.15-4.58.64-6.8,1.26-3.31-2.18-9.52-5-13.19-2.41-3.57,2.53-2.82,11.2-1.46,14.89-1.81,3.11-3.01,6.51-3.12,10.14-.35.5-4.23-.11-5.82.27-.33.08-.56.37-.56.71s.23.63.56.71c1.59.38,5.47-.23,5.82.27l.62,4.5c-.18.2-4.39.83-5.16,1.2-.29.14-.38.42-.34.69.08.51.6.82,1.1.7l4.93-1.16c.35,1.69,1.23,3.32,2.15,4.76l-5.22,2.43c-.39.18-.66.56-.65.99,0,.6.55.7,1.44.4.89-.3,4.92-2.56,5.39-2.45,1.78,2.03,3.85,3.79,6.23,5.09,10.91,6.01,31.91,5.85,41.64-2.51.92-.79,1.67-1.83,2.64-2.58,1.94.42,3.94,2.06,5.79,2.59.66.19,1.08-.14,1.1-.62.01-.34-.21-.65-.52-.79l-5.42-2.46c.79-1.53,1.73-3.09,2.16-4.84.21-.16,4.42,1.15,5.15,1.21.65.05,1.12-.45.92-1.1-.19-.63-4.7-1.32-5.53-1.57l.52-4.65,5.65-.16c.35,0,.63-.3.63-.65s-.28-.64-.63-.65ZM26.21,52.27c-1.19,0-2.16-1.47-2.16-3.28s.97-3.28,2.16-3.28,2.16,1.47,2.16,3.28-.97,3.28-2.16,3.28ZM40.53,56.16c-2.2,0-3.98-1.24-3.98-2.77s1.78-2.77,3.98-2.77,3.98,1.24,3.98,2.77-1.78,2.77-3.98,2.77ZM53.79,52.27c-1.19,0-2.16-1.47-2.16-3.28s.97-3.28,2.16-3.28,2.16,1.47,2.16,3.28-.97,3.28-2.16,3.28Z"/>
</svg>