<?xml version="1.0" encoding="UTF-8"?>
<svg id="Capa_1" data-name="Capa 1" xmlns="http://www.w3.org/2000/svg" viewBox="0 0 80 80">
  <path d="M68.81,34.61c-1.58-6-4.9-10.96-9.6-14.97-8.03-6.84-17.2-9.4-27.52-6.18-8.21,2.56-14.18,7.94-18.23,15.38-2.21,4.07-3.4,8.42-2.87,13.07.77,6.67,4.87,10.85,10.76,13.63.71.33,1.07.7,1.15,1.54.44,4.58,3.05,7.53,7.29,9.23,3.24,1.3,6.64,1.59,10.08,1.59.02.13,6.49-.53,9.56-1.45,4.32-1.29,7.23-4.18,7.82-8.76.16-1.26.61-1.77,1.69-2.28,8.67-4.05,12.25-11.69,9.85-20.8ZM14.89,42.67c-.68-6.29,1.65-11.47,5.42-16.25,3.98,5.78.54,14.36-5.42,16.25ZM27.1,30.56c.51-7.22,6.42-12.64,13.35-12.22,7.29.44,12.88,6.35,12.41,13.12-.5,7.28-6.42,12.65-13.47,12.25-7.11-.41-12.76-6.45-12.29-13.15ZM54.1,55.93c-.18,2.97-1.71,5.29-4.48,6.43-6.57,2.72-13.24,2.84-19.75-.17-3.21-1.48-4.69-5.07-4.01-8.5.28-1.4,1.1-2.33,2.38-2.94,1.43-.68,2.93-1.04,4.45-1.27,0,.02,0,.04,0,.06-.05,1.08-.01,2.17-.01,3.25h-.02c0,1.03-.03,2.07,0,3.1.04,1.14.6,1.85,1.84,1.86,1.19.01,1.72-.69,1.74-1.76.05-2.17.07-4.34.01-6.51,0-.13-.02-.24-.03-.36.09,0,.17-.01.26-.02,1.2-.09,2.41-.01,3.61-.01,0-.06,1.65.07,3.68.26,0,.02,0,.03,0,.05-.06,2.22-.04,4.44.02,6.65.03,1.08.63,1.73,1.81,1.68,1.15-.05,1.7-.74,1.75-1.8.05-1.08.01-2.17.01-3.25h-.01c0-.99.05-1.98,0-2.97.88.1,1.7.2,2.38.29.28.04.56.15.83.25,3.04,1.09,3.76,2.44,3.56,5.64ZM65.11,42.71c-6.19-2.43-8.98-10.92-5.35-16.23,3.73,4.8,6.06,9.95,5.35,16.23Z"/>
</svg>