<?xml version="1.0" encoding="UTF-8"?>
<svg id="Capa_1" data-name="Capa 1" xmlns="http://www.w3.org/2000/svg" viewBox="0 0 80 80">
  <path d="M14.54,57.21c1.18.23,2.37.45,3.54.71,1.45.32,2.86.78,4.06,1.7.41.31.77.68,1.18,1.04.04-.09.09-.18.13-.28.29-.64.55-1.29.87-1.91.42-.8,1.11-.86,2.02-.72.29.04.58.11.86.23.52.21,1.02.46,1.52.7,3.38,1.61,6.82,1.42,10.24-.1,1.77-.79,3.5-1.67,5.21-2.59.27-.15.54-.29.8-.44-.43.09-5.03,1.85-6.95,2.64-1.81.75-3.55.94-5.5.67-1.49-.21-3.02-.61-4.31-1.38-.75-.45-1.55-.65-2.42-.54-.15.02-.32-.02-.48-.04.25-.74.5-.95.64-1.11.06-.07.1-.1.1-.1.12-.13.18-.2.24-.26.69-.67,1.39-1.34,2.06-2.03.79-.81,1.61-1.54,2.67-1.99.39-.17.4-.4.09-.71-.58-.57-.65-1-.24-1.7.23-.4.5-.77.78-1.2.44.36.85.66,1.22.99.44.39.51.87.3,1.4-.26.64-.18.75.52.8.04,0,.09,0,.13,0,.79.06,1.56.22,2.28.56,1,.48,1.82,1.16,2.48,2.11-.21.14-.39.29-.6.38-.47.2-.95.4-1.44.55-2.03.62-4.11,1-6.22,1.18-1.03.08-.27.76.1.73,2.91-.19,5.76-.71,8.48-1.87.47-.2.62-.66,1.11-.47.17.07.36.1.54.13,1.01.13,2.01.11,3.02-.04.59-.09,1.17-.21,1.74-.36.19-.06.36-.1.51-.14.36-.1.71-.22,1.07-.33,2.53-.89,7.46-3.06,7.46-3.06.69-.38,1.38-.76,2.07-1.14,1.98-1.08,4.04-1.97,6.25-2.48.66-.15,1.33-.29,2.02-.17.59.1,1.12.33,1.59.78-.12.04-.18.06-.24.07-.8.18-1.61.33-2.4.54-4.64,1.25-8.55,3.72-11.85,7.19-1.88,1.97-3.57,4.1-5.23,6.25-1.47,1.91-3.04,3.72-5.05,5.09-.76.52-1.55.96-2.37,1.32.27.24.53.49.82.68,1.13.77,2.37.84,3.65.47,1.1-.31,2.2-.51,3.34-.36.83.11,1.56.4,2.18,1.07-.1.03-.14.04-.18.05-2.08.38-4.16.75-6.24,1.14-4.78.88-9.56,1.77-14.35,2.65-.08.02-.17-.02-.26-.04.03-.08.04-.16.08-.23.4-.67.97-1.14,1.62-1.55.86-.54,1.72-1.09,2.57-1.66.44-.3.75-.72.89-1.23-1.76-.13-3.45-.62-5.1-1.36-1.73-.78-3.18-1.91-4.12-3.59-.43-.78-.97-1.46-1.6-2.07-1.25-1.21-2.78-1.62-4.47-1.5-.65.05-.9.4-.74,1.04.12.5.36.97.61,1.42.33.6.71,1.18,1.2,1.66.5.48,1.07.89,1.64,1.28.11.07.21.14.32.22.05.04.18.17.24.17.39.26.75.47,1.23.49.48.02.74-.25.72-.72-.01-.25-.05-.49-.07-.74.87,1.14,1.86,2.12,3.17,2.78-.12.07-.22.11-.32.1-1.14-.16-2.28-.33-3.41-.5-1.92-.28-3.02-1.51-4.57-2.71-2.26-1.74-3.47-4.14-4.19-6.82-.16-.59.15-.87.77-.75Z"/>
  <path d="M22.07,49.82s.03.03.07.06c-.4.74-.39,1.42.4,1.96-1.62,1.19-2.96,2.6-3.97,4.37,1.41.35,2.74.8,3.96,1.56.5-.78.97-1.54,1.46-2.29,1.19-1.81,2.51-3.51,4.22-4.88.12-.1.22-.27.25-.43.16-.88-.1-1.58-.93-2.02,3.4-3.35,3.89-7.07,1.49-11.21.24-.14.54-.25.77-.45.3-.26.6-.55.8-.89.31-.53.19-.88-.37-1.48.45-.71.9-1.42,1.35-2.13.16-.26.31-.53.45-.8.08-.17.17-.2.36-.15.45.12.92.2,1.37.31.12.03.27.12.32.23.62,1.29.61,2.6.03,3.91-.04.09-.13.17-.23.22.58,1.14,1.37,2.44,1.37,2.44.63.97,1.34,1.88,2.36,2.48,1.45.85,2.91,1.7,4.4,2.49.56.3,1.2.48,1.81.66.39.11.48-.02.38-.4-.09-.32.02-.43.35-.35.42.1.72.37.95.72.17.26.38.57.17.84-.14.18-.46.21-.71.31-.01-.02-.02-.04-.03-.06-.17-.02-.35-.02-.52-.06-2.33-.48-4.55-1.28-6.59-2.53-.98-.6-1.89-1.28-2.68-2.12-.7-.64-1.61-2.08-2.25-3.2-.06.28-.06.58.02.92.03.11-.01.28-.09.37-1.05,1.3-1.43,2.78-1.2,4.43.11.82-.02,1.62-.32,2.39-.09.22-.03.32.14.46.88.67,1.76,1.34,2.61,2.05.49.41.76.98.92,1.6.04.13.15.29.27.35,1.06.53,1.94,1.27,2.67,2.2.11.13.27.25.44.3,2.83.85,5.68.83,8.48-.1,1.44-.48,2.81-1.16,4.22-1.75.2-.08.25-.18.17-.4-.88-2.36-2.28-4.31-4.45-5.66-.09-.06-.2-.12-.24-.21-.36-.68-.95-1.07-1.63-1.36-.43-.18-.87-.38-1.32-.51-1.04-.31-1.74-.99-2.21-1.93-1.18-2.37-.81-4.58.66-6.69.03-.04.04-.08.07-.13.84.75,1.73,1.32,2.75,1.65.78.25,1.58.38,2.4.23,1.04-.19,1.79-1.07,1.77-2.14,0-.23.06-.35.3-.38.1-.01.19-.04.29-.06.29-.04.46-.19.39-.49-.12-.5.04-.87.45-1.16.06-.04.11-.11.16-.16.44-.45.44-.54-.01-.98-.3-.29-.31-.49-.04-.82.29-.35.59-.71.89-1.05.41-.47.39-.8-.08-1.2-1.08-.94-1.66-1.85-1.75-3.28.85-.35,1.07-.74,1.14-1.42-.16.38-.72.54-1.16.63,0-.46-.03-.9,0-1.34.07-.81.33-1.56.85-2.21.57-.7.74-1.5.5-2.41.08.02.12.02.15.04,2.66,1.39,5.32-.53,5.78-2.96.48-2.56-1.12-4.73-3.75-5.09-.1-.01-.19-.02-.29-.03-.87,2.75-1.88,4.93-2.37,5.92-.73,1.59-1.88,2.75-3.66,3.13-.81.18-1.68.14-2.52.12-1.26-.03-2.51-.02-3.7.43-.78.29-1.52.66-2.38,1.03.34-.32.61-.61.91-.86,1.58-1.29,3.42-1.79,5.41-1.6,1.7.16,3.13-.22,4.32-1.13h0c1.82-1.87,2.6-4.74,2.94-7.02-.22.03-.43.06-.65.12-.64.17-1.27.34-1.89.55-.61.21-1.2.47-1.82.72-.09-.33-.17-.68-.29-1.02-.41-1.21-1.1-2.14-2.41-2.47-1.43-.35-2.43.28-2.68,1.62,0,.03-.03.06-.05.1-.49-.16-.97-.34-1.46-.49-2.71-.8-5.43-.89-8.12-.01-3.81,1.24-6.3,3.81-7.46,7.65-.25.84-.41,1.69-.48,2.56,3.48,2.6,5.92,6.36,5.73,9.85-1.04-3.51-2.34-4.69-4.1-6.76-.62-.73-1.38-1.41-2.19-2.06-1.24.59-2.34,1.39-3.18,2.5-1.24,1.62-1.59,3.45-1.02,5.41.68,2.35,1.89,4.42,3.55,6.23.05.06.1.11.17.19-.66.77-.63,1.52.13,2.25-.5.02-.97.02-1.43.07-1.48.17-2.75.73-3.65,1.97-.51.69-.73,1.49-.82,2.33-.17,1.7-.22,3.39.22,5.06.59,2.22,1.87,3.86,4.03,4.75.04.02.08.04.12.06ZM43.34,8.87c0-.43.14-.84.56-1.04.42-.2.82-.06,1.17.2.83.63,1.23,1.49,1.3,2.42-.02.58-.09,1.06-.59,1.29-.49.23-.93,0-1.29-.32-.76-.67-1.16-1.53-1.15-2.55ZM35.46,25.98c.06-.09.12-.18.19-.27.82-1.05,1.92-1.71,3.11-2.24.07-.03.23.02.3.09,1,.97,1.62,2.17,1.91,3.52.14.62-.22,1.25-.82,1.46-.16.06-.32.1-.49.14-.69.16-1.4.17-2.09.02-.62-.14-1.23-.34-1.6-.56-.91-.54-1.08-1.26-.51-2.16ZM33.01,16.46c.69-3.31,5.86-7.09,9.38-6.87.15,1.14.77,1.98,1.84,2.6-3.04.55-5.62,1.82-7.83,3.83-.28.25-.55.34-.91.35-.74.01-1.49.06-2.23.09-.08,0-.16,0-.25,0Z"/>
</svg>