<?xml version="1.0" encoding="UTF-8"?>
<svg id="Capa_1" data-name="Capa 1" xmlns="http://www.w3.org/2000/svg" viewBox="0 0 80 80">
  <path d="M68.99,8.16c-1.72,0-3.11,1.47-3.12,3.29,0,.69.2,1.34.55,1.87-2.38,1.26-4.76,2.53-7.12,3.83-2.89,1.59-5.77,3.19-8.64,4.83-1.46.84-1.44.88-1.46,2.62,0,.71,0,1.41,0,2.23-3.03-.94-5.94-1.36-8.92-1.35-2.99.02-5.88.63-8.88,1.56,0-1.13,0-2.1,0-3.08,0-.52-.19-.85-.63-1.08-3.35-1.68-6.69-3.39-10.04-5.06-2.3-1.14-4.62-2.24-6.93-3.35-.07-.03-.13-.06-.18-.1.33-.52.52-1.14.52-1.82,0-1.82-1.39-3.29-3.1-3.3-1.72,0-3.11,1.47-3.12,3.29,0,1.82,1.39,3.29,3.1,3.3.17,0,.34-.01.51-.04.02.09.04.19.05.31.33,3.07.68,6.13,1.02,9.2.41,3.7.86,7.4,1.21,11.1.1,1.08.53,1.65,1.5,1.89.93.23,1.84.57,2.77.83.42.12.56.29.38.75-.88,2.34-1.27,4.78-1.33,7.29-.09,3.47.74,6.63,2.79,9.37,1.58,2.11,3.57,3.7,5.87,4.85.3.15.58.33,1.03.59-1.44,1.11-2.75,2.13-4.07,3.13-.45-.51-1.09-.82-1.79-.83-1.36,0-2.46,1.16-2.47,2.6,0,1.44,1.1,2.61,2.46,2.61,1.36,0,2.46-1.16,2.47-2.6,0-.05,0-.1,0-.15.05,0,.11,0,.18,0,1.21.03,2.41.04,3.62.01.56-.01.83.14.96.78.28,1.4.89,2.65,2.06,3.44,2.59,1.76,6.2.7,7.74-2.13.47-.87,1.2-1.59,1.86-2.44.72.98,1.36,1.87,2.02,2.74.37.49.75,1.01,1.2,1.41,1.62,1.46,4.46,1.71,6.21.56,1.26-.83,1.87-2.15,2.24-3.6.11-.42.27-.61.7-.58.88.06,1.77.11,2.65.11.08,0,.15,0,.22.01.05,1.39,1.13,2.51,2.45,2.51,1.36,0,2.46-1.16,2.47-2.6,0-1.44-1.1-2.61-2.46-2.61-.78,0-1.47.38-1.92.97-.07-.04-.14-.1-.21-.18-.42-.43-.87-.82-1.3-1.24-.44-.42-.88-.86-1.4-1.37.81-.42,1.52-.78,2.22-1.15,5.28-2.79,8.23-7.24,8.54-13.54.16-3.16-.14-6.25-1.4-9.17-.28-.66-.24-.64.44-.86,1.06-.33,2.11-.72,3.17-1.08.5-.17.68-.55.73-1.07.57-5.45,1.15-10.89,1.73-16.34.16-1.52.32-3.05.47-4.57,0-.02,0-.03,0-.05.13.02.26.03.39.03,1.72,0,3.11-1.47,3.12-3.29,0-1.82-1.39-3.29-3.1-3.3ZM52.94,61.11c-.67.48-1.47.79-2.25,1.08-.97.37-1.98.65-2.97.93-.15.04-.42-.05-.51-.18-.15-.23-.33-.44-.51-.63-.55-.56-1.24-.93-1.99-1.06-.38-.07-.77-.08-1.16-.06-.09,0-.18.02-.27.03-.04,0-.07.02-.1-.01-.06-.09.04-.18.09-.24.05-.08.09-.16.13-.24.07-.17.11-.36.13-.54.04-.36,0-.73-.06-1.09-.03-.15-.06-.3-.1-.45-.04-.14-.22-.24-.31-.12-.14.17-.34.36-.6.53-.29.19-.67.02-.77-.32h0c-.07-.26.03-.53.24-.67.44-.3.72-.74.72-1.23,0-.9-.93-1.64-2.09-1.64s-2.09.73-2.09,1.63c0,.68.53,1.26,1.28,1.51.23.08.39.31.36.57h0c-.05.33-.35.52-.64.42-.35-.12-.72-.3-1.1-.54-.17-.11-.36.14-.26.32.05.08.1.16.15.24.16.25.33.48.52.7.22.26.46.5.73.7.29.23.61.42.95.56.18.08.37.14.56.18.1.02.2.04.3.06.05,0,.1.01.16.02.04,0,.09,0,.1.06.02.08-.03.1-.08.15s-.1.09-.15.14c-.1.1-.2.2-.3.29-.4.39-.8.77-1.2,1.16-.56-.5-1.12-1.16-1.81-1.6-1.71-1.1-3.8-.78-5.26.66-.14.14-.41.25-.57.2-1.74-.57-3.53-1.03-5.18-1.82-1.24-.59-1.96-1.89-2.39-3.28-1.05-3.39-.17-7.15,2.16-9.68.2-.22.53-.17.69.08.21.33.46.62.75.86.36.3.94.85.99,1.42,0,.1-.24.63-.26.6,0,0-.44-.55-.44-.55-.26-.32-.73.07-.49.4.05.07.11.14.17.2.41.43.58,1.04.49,1.64-.13.82-.18,1.66-.13,2.49.09,1.43.9,2.37,2.02,2.49,1.31.14,2.39-.57,2.72-2.01.23-1.02.22-2.09.31-3.15.06-.69-.82-1.34-1.28-1.69-.68-.51-1.43-.9-2.11-1.4-.72-.53-1.35-1.19-1.87-1.94-.09-.13-.18-.27-.2-.43-.08-.54,1.21-1.09,1.58-1.3.74-.41,1.51-.74,2.31-.98.96-.29,1.72.32,2.54.56.4.12.77.33,1.16.51.29.14.61-.09.61-.42v-.16c0-.16-.08-.32-.22-.4-1.45-.86-2.48-2.3-2.84-4.02-.47-2.21.23-4.48,1.85-6.09,1.46-1.44,3.42-2.23,5.52-2.23,2.11,0,4.15.85,5.59,2.33,2.47,2.54,2.61,6.39.04,9.35-.36.41-.84.65-1.34.84-.17.07-.28.24-.28.43,0,.33.33.56.61.42.38-.18.75-.37,1.11-.57,1.76-.96,3.28-.81,4.81.43,1.11.9,2.08,1.91,2.92,3.05.33.45.33,1.11.01,1.57-.33.47-.66.95-.97,1.44s-.56,1.02-.88,1.5c-.11.17-.35.57-.59.56-.05,0-.31-.15-.43-.21.39-.41.8-1.02.94-1.83.06-.35-.13-.71-.45-.82-.4-.13-.79.14-.86.56-.12.75-.71,1.26-.98,1.45-.46-.13-.92-.18-1.38-.13-2.08.19-3.39,2.11-3.44,2.19-.24.36-.16.86.18,1.12.13.1.28.15.44.15.25,0,.48-.13.62-.34,0-.01.98-1.4,2.34-1.52.84-.07,1.7.34,2.57,1.24.28.29.74.33,1.04.07s.36-.7.17-1.03c.4-.38.71-.87,1.02-1.33.25-.36.5-.72.75-1.08.13-.18.25-.36.38-.53.11-.15.21-.32.36-.42.1-.06.21-.1.32-.08.4.07.55.61.63.95.11.48.17.97.2,1.46s0,1.02-.05,1.53-.16,1.03-.29,1.53-.31.99-.52,1.46-.45.91-.73,1.33-.59.79-.93,1.12c-.2.19-.42.37-.64.54ZM52.17,54.56h0s0,0,0,0c0,0,0,0,0,0Z"/>
  <path d="M46.64,38.81c-.04-.44-.3-2.2-1.05-1.76-.11.06-.19.17-.26.28-.39.54-.78,1.08-1.17,1.63-.11.15-.22.32-.22.51,0,.28.25.48.35.73.1.23.07.5,0,.73-.05.18-.13.36-.26.49-.29.32-.78.37-1.16.19-.38-.18-.65-.57-.79-.98-.14-.41-.17-.86-.18-1.3,0-.11,0-.23.04-.33.06-.15.2-.25.33-.35,1.01-.73,1.98-1.54,2.88-2.41.06-.06.13-.12.14-.21.03-.16-.1-.3-.23-.4-.61-.47-1.29-.83-2.01-1.07-.8-.27-1.64-.39-2.48-.37-.33,0-.67.03-1,.07-.17.02-.34.05-.51.09-.08.02-.17.04-.25.06-.08.02-.18.03-.25.07-.73.21-1.43.55-2.06.99-.08.06-.16.11-.23.17-.13.1-.26.24-.23.4.02.09.08.15.14.21.91.87,1.87,1.68,2.88,2.41.13.09.27.19.33.35.04.1.04.22.04.33,0,.44-.04.89-.18,1.3-.14.41-.41.8-.79.98s-.87.13-1.16-.19c-.12-.14-.2-.31-.26-.49-.07-.24-.09-.51,0-.73.11-.25.35-.45.35-.73,0-.19-.11-.36-.22-.51-.39-.54-.78-1.08-1.17-1.63-.08-.11-.15-.21-.26-.28-.75-.45-1.02,1.32-1.05,1.76-.08.91.11,1.85.55,2.64.67,1.21,1.92,2.03,3.25,2.14.06.33-.12.74.11.98.13.14.33.15.52.14.2,0,.45-.03.54-.23.03-.07.04-.15.04-.23,0-.2.02-.41.03-.61,0-.12.01-.24.07-.35s.17-.18.28-.14c.14.05.17.25.17.41,0,.17,0,.34,0,.5,0,.16,0,.32.07.46.03.06.09.12.15.15.09.05.21.05.31.03.05,0,.1-.02.14-.05.05-.03.08-.08.11-.13.07-.14.07-.3.07-.46,0-.17,0-.34,0-.5,0-.16.02-.36.17-.41.11-.04.23.04.28.14s.06.23.07.35l.03.61c0,.08,0,.16.04.23.09.19.34.22.54.23.18,0,.39,0,.52-.14.22-.24.04-.65.11-.98,1.32-.11,2.57-.94,3.25-2.14.44-.79.63-1.73.55-2.64Z"/>
</svg>