<?xml version="1.0" encoding="UTF-8"?>
<svg id="Capa_1" data-name="Capa 1" xmlns="http://www.w3.org/2000/svg" viewBox="0 0 80 80">
  <path d="M73.39,16.96c0-.17.01-.34.02-.51-8.19-1.84-14.79.35-19.76,4.76,3.75-1.31,7.47-.42,7.47-.42-9.69.72-15.57,9.48-18.8,17.64-.14.43-.27.86-.38,1.28-.04-1.01-.09-1.98-.16-2.88.8-.63,1.29-1.66,1.29-2.77,0-.79-.34-2.43-1.44-3.18-.35-2.71.13-6.55,1.2-8.32.11-.19.26-.31.42-.4-.03.03-.07.07-.1.11-.46.54-.53,1.19-.21,1.76.42.75,1.46,1.22,2.41,1.1.84-.11,1.44-.66,1.65-1.51.23-.92-.05-1.82-.73-2.41-.62-.54-1.6-.84-2.54-.79-.81.05-1.5.36-1.96.87-1.74,1.95-1.65,6.94-1.49,9.38-.1-.01-.19-.02-.29-.02,0,0,0,0-.01,0h-.02c-.09,0-.18,0-.27.02.16-2.44.25-7.43-1.49-9.38-.45-.51-1.15-.82-1.96-.87-.94-.06-1.91.24-2.54.79-.69.6-.96,1.5-.73,2.41.21.85.81,1.4,1.65,1.51.95.13,1.98-.35,2.41-1.1.32-.58.25-1.22-.21-1.76-.03-.04-.07-.08-.1-.11.16.09.31.21.42.4,1.08,1.77,1.48,5.83,1.13,8.54-1.1.66-1.37,2.17-1.37,2.96,0,1.1.48,2.12,1.27,2.76-.06.77-.11,1.58-.14,2.42-.11-.42-.24-.85-.38-1.28-3.23-8.17-9.1-16.92-18.8-17.64,0,0,3.72-.89,7.47.42-4.97-4.41-11.56-6.6-19.76-4.76,0,.17.01.34.02.51.12,2.07,1.01,9.98,7.45,13.79,0,0-4.05-1.13-7.05-4.57.77,9.5,3.34,15.69,15.8,13.53h0s-5.81,1.34-8.62,4.37c-3.96,4.27,1.25,12.89,5.61,14.89,0,0-3.57-.24-6.22-4.18,1.41,5.09,5.12,10.53,14.84,9.81,4.17-5.08,8.22-10.22,9.67-15.97.1,1.85.25,3.78.45,5.65.15,1.41.32,2.69.48,3.62.22,1.31.35,1.9.97,1.9s.75-.58.97-1.9c.16-.92.33-2.21.48-3.62.19-1.76.34-3.57.43-5.33,1.41,5.81,5.5,11,9.7,16.12,9.72.72,13.42-4.72,14.84-9.81-2.65,3.93-6.22,4.18-6.22,4.18,4.36-2.01,9.57-10.62,5.61-14.89-2.81-3.03-8.62-4.37-8.62-4.37h0c12.47,2.15,15.03-4.04,15.8-13.53-2.99,3.44-7.05,4.57-7.05,4.57,6.43-3.82,7.32-11.72,7.45-13.79Z"/>
</svg>