<?xml version="1.0" encoding="UTF-8"?>
<svg id="Capa_1" data-name="Capa 1" xmlns="http://www.w3.org/2000/svg" viewBox="0 0 80 80">
  <path d="M45.43,45.3c0-.42,0-.65,0-.88.02-.97.29-1.85.95-2.59.68-.77,1.62-.82,2.33-.07.33.35.64.8.77,1.26.47,1.62.47,3.2-.71,4.58-.23.28-.26.54-.05.87.74,1.17,1.04,2.46,1.04,3.82,0,.68.07.7.75.48,1.51-.48,2.88-1.18,3.95-2.36.25-.27.49-.31.74.05,1.21,1.75.77,5.42-.83,6.75-.24.2-.52.43-.82.49-.49.11-.66.39-.82.83-.22.61-.5,1.24-.91,1.74-1.12,1.36-2.3,1.47-4.31.98-.45-.11-.75-.12-1.07.22-.3.32-.64.61-1,.87-1.51,1.1-3.12.95-4.72.24-.51-.23-.88-.26-1.39.01-1.87.99-3.7.71-5.26-.72-.09-.08-.19-.16-.26-.25-.39-.48-.78-.6-1.45-.35-2.21.82-4.21-.19-4.88-2.41-.19-.61-.46-.97-1.1-1.19-1.2-.42-1.91-1.36-2.12-2.58-.24-1.43-.17-2.87.36-4.25.11-.28.3-.53.52-.89,1.28,1.79,3.08,2.44,5.03,3.03.06-.56.12-1.03.16-1.5.09-1.11.41-2.16,1.03-3.1.21-.32.17-.52-.1-.76-1.31-1.18-1.25-4.33-.21-5.59.85-1.03,1.99-1.04,2.8.02.52.68.71,1.47.76,2.3.01.25,0,.51,0,.92,3.61-1.72,7.15-1.78,10.82.04ZM40.39,46.95c-2.18-.02-3.67.43-5.02,1.43-2.74,2.04-2.79,5.45-.11,7.55,2.93,2.3,7.48,2.03,10.12-.6,1.83-1.83,1.83-4.41.02-6.27-1.45-1.48-3.23-2.15-5-2.12Z"/>
  <path d="M67.96,44.35c-.25-1.42-.93-2.66-2.2-3.46-.46-.29-.46-.51-.32-.95.77-2.46,1.3-5.01.76-7.55-1.52-7.21-5.27-13.18-10.88-17.99-4.36-3.73-9.44-5.77-15.29-5.74-.93.04-1.87.02-2.79.15-4.6.61-8.69,2.41-12.22,5.36-4.68,3.91-8,8.76-10.11,14.42-.72,1.94-1.24,3.92-1.16,6.02.07,1.85.34,3.65.93,5.41.06.19.01.57-.12.65-1.85,1.15-2.48,2.94-2.68,4.93-.35,3.49.64,6.64,2.58,9.53,1.23,1.83,2.67,3.44,5.08,3.77.14.02.28.25.36.4.43.83.78,1.72,1.28,2.51,1.37,2.12,3.38,3.51,5.61,4.64,1.87.95,3.75,1.9,5.6,2.89,1.65.88,3.35,1.6,5.24,1.83,3.19.38,6.27.13,9.16-1.39,2.38-1.24,4.77-2.46,7.15-3.7,2.92-1.53,5.09-3.72,6.22-6.84.07-.18.36-.36.57-.4,1.07-.2,2.03-.63,2.79-1.38,3.7-3.64,5.33-7.98,4.42-13.12ZM33.97,19c1.08-2.12,2.18-4.23,3.28-6.34.02-.03.07-.04.26-.14.67.7,1.39,1.42,2.07,2.18.35.39.58.36.91,0,.68-.74,1.38-1.44,2.15-2.24.18.29.28.42.36.57,1.01,1.98,2.01,3.96,3.04,5.93.21.39.14.61-.24.82-.5.29-.98.61-1.56.97-.62-1.96-1.21-3.8-1.79-5.63-.07-.01-.13-.03-.2-.04-.72.84-1.44,1.68-2.23,2.61-.77-.89-1.5-1.74-2.38-2.76-.64,2.01-1.23,3.85-1.85,5.82-.67-.42-1.25-.76-1.8-1.15-.11-.08-.12-.43-.04-.59ZM65.19,47.35c-.19,2.73-1.16,5.16-3.02,7.22-.21.24-.47.44-.72.64-.14.11-.3.19-.45.28,0,0-1.87,1-4.06,3.65-.61,1.32-1.57,2.47-2.9,3.4-1.11.78-2.39,1.34-3.61,1.97-1.27.66-2.59,1.25-3.82,1.96-4.69,2.7-9.37,2.57-14.15-.57-.99-.65-2.07-1.18-3.18-1.61-2.77-1.07-4.61-2.49-5.72-4.25-2.1-2.9-4.1-4.27-4.73-4.66-.08-.04-.15-.07-.21-.12-1.56-1.27-2.54-2.92-3.17-4.8-.54-1.61-.88-3.27-.52-4.95.55-2.57.87-2.48,3.03-1.85.72.21,1.36.69,2.03,1.04.4.21.47.54.4.96-.26,1.65-.52,3.3-.77,4.95-.07.46.14,1.12.5,1.42.9.77,2.34.26,2.5-.93.22-1.58.5-3.43.71-4.56.43-2.27.19-4.44-.6-6.59-.11-.29-.2-.51-.26-.68-.09-.23-.29-.4-.53-.44-.77-.14-2.33-.41-2.33-.41-.24-.03-.5-.34-.64-.59-.84-1.55-1.13-3.14-.32-4.82,1.37-2.83,3.55-4.93,6.16-6.63,3.16-2.06,6.69-3.1,10.41-3.61,3.98-.54,7.94-.42,11.86.38,4.33.88,8.25,2.63,11.38,5.81,1.39,1.41,2.6,2.96,3.25,4.86.33.97.16,1.94-.14,2.88-.37,1.16-.57,1.57-1.22,1.7,0,0-1.89-.09-1.45-1.83.09-.25.18-.5.26-.74.36-1.01.14-1.9-.45-2.77-1.7-2.51-3.99-4.34-6.71-5.65-4.29-2.07-8.85-2.62-13.56-2.43-3.69.15-7.24.84-10.56,2.5-2.46,1.22-4.56,2.87-6.22,5.06-.46.61-.74,1.21-.85,1.83-.1.71.21,1.34.75,1.79s1.18.7,1.83.89c.23.07.46.12.69.17.24.05.52.06.72.22.08.07.13.19.19.28.07.09.14.18.22.27.26.28.6.46,1,.45.44-.02.85-.24,1.21-.46.34-.21.69-.43,1.05-.61,2.32-1.14,4.28-.62,5.77,1.48.28.4.63.82,1.05,1.03.56.28,1.2.19,1.67-.32.47-.51.48-1.1.19-1.68-.73-1.44-1.84-2.51-3.25-3.3-.22-.12-.44-.24-.65-.44,4.52-1.04,9.01-1.01,13.51-.1l.03.18c-.45.26-.9.49-1.33.77-1.15.73-2.03,1.71-2.63,2.92-.36.73-.12,1.51.51,1.9.62.39,1.43.25,1.97-.36.16-.18.27-.41.44-.57.51-.51.98-1.07,1.56-1.49,1-.71,2.13-.87,3.29-.4.63.26,1.26.55,1.84.91,1.41.85,2.08.71,2.93-.74.7.44,1.41.85,2.08,1.33.13.09.14.46.08.68-.32,1.2-.74,2.37-.99,3.57-.34,1.66.09,3.29.34,4.93.17,1.1.37,2.19.53,3.28.16,1.05,1.13,1.63,2.11,1.17.61-.29.94-.91.85-1.54-.17-1.19-.35-2.38-.52-3.58-.04-.3-.03-.61-.13-.89-.33-.95.07-1.54.93-1.87.94-.35,1.89-.66,2.86-.93.51-.14.87.12,1.1.61.51,1.08.64,2.22.56,3.39Z"/>
</svg>