<?xml version="1.0" encoding="UTF-8"?>
<svg id="Capa_1" data-name="Capa 1" xmlns="http://www.w3.org/2000/svg" viewBox="0 0 80 80">
  <path d="M13.59,74.46h49.25c.69,0,1.37-.26,1.87-.73,0,0,0,0,0,0,.67-.62,1.31-1.27,1.94-1.94,1.25-1.33,2.41-2.75,3.47-4.24,1.06-1.49,2.03-3.05,2.88-4.67,1-1.89,1.78-3.86,2.54-5.85.06-.16.16-.37.11-.54-.05-.17-.22-.27-.32-.41-.15-.2-.29-.4-.44-.59-.17-.24-.36-.46-.57-.67,0,0,0,0,0,0-.23-.23-.49-.43-.72-.66-.24-.23-.46-.49-.69-.74-.5-.55-.99-1.1-1.51-1.63-.27-.28-.62-.6-.97-.67-1.97-.39-3.81-1.21-5.57-2.15-1.87-1-3.67-2.13-5.55-3.12-1.22-.65-2.52-1.21-3.66-2-.74-.51-1.4-1.11-2.04-1.74-.55-.54-1.07-1.16-1.87-1.32-.24-.05-.49-.05-.74-.1-.54-.1-.88-.55-1.39-.71-.04.27-.01.56.08.82.09.25.26.47.42.68.25.32.54.61.75.97.22.37.19.73-.06,1.08-1.18,1.68-2.61,3.12-4.17,4.45-.51.43-1.02.85-1.55,1.26-1.67,1.31-3.37,2.57-5.02,3.9-.92.75-1.83,1.51-2.77,2.24-.36.28-.79.45-1.24.48-.72.05-1.45.08-2.17.09-.33,0-.66,0-.99,0-.31,0-.63-.03-.91-.19-.29-.17-.49-.47-.67-.76-.57-.91-1.13-1.83-1.71-2.73-.18-.29-.4-.57-.65-.8-1.08-.99-1.05-2.2-.94-3.48.1-.86.19-1.72.29-2.58.09-.81.21-1.63.26-2.45.59.66,1.19,1.33,1.86,1.92.22.19.45.38.64.6.14.15.26.33.33.52.08.19.07.42.2.58.17.22.48.22.72.29.28.08.58.24.77.46.12.14.19.32.29.47.2.31.5.53.81.72.07.05.17.08.24.14.08.07.07.05.05.16,0,.05-.12.3-.06.34.19.12.45.27.64.22.56-.13,1.12-.02,1.63.25.48.25.91.7,1.43.88.16.06.35.06.5-.02.04-.02.08-.05.13-.04.02,0,.04.02.06.03.19.14.37.29.58.4.19.1.42.17.58.32.57.57,1.42.44,1.81-.28.08-.15.21-.27.32-.4.12-.13.25-.26.38-.39-.17-.08-.34-.17-.52-.24-.08-.03-.18-.04-.4-.08.55-.3.99-.55,1.56-.86-.37-.19-.6-.3-.93-.47.27-.11.44-.15.59-.24.23-.13.45-.3.67-.45-.23-.11-.46-.21-.74-.35.49-.22.98-.43,1.46-.65v-.17c-.19-.08-.38-.15-.63-.26.53-.21.97-.4,1.42-.58v-.15c-.16-.08-.3-.14-.56-.26.39-.16.68-.27,1.01-.4-.08-.17-.14-.31-.22-.48,0-.02.85-.53.94-.6-.07-.11-.15-.22-.22-.34-.01-.02-.03-.04-.03-.07,0-.02.02-.05.03-.06.15-.17.4-.19.61-.28.06-.03.12-.06.15-.11.06-.08.06-.18.04-.27-.03-.09-.08-.17-.14-.25-.06-.08.74-.6.82-.64.29-.16.64-.21.91-.41.49-.36.49-.97.41-1.52-.14-.96.04-1.97,0-2.95-.06-1.41-.2-2.81-.29-4.22-.01-.2-.01-.48.17-.61.07-.05.15-.08.23-.1.43-.12.82-.2,1.19-.47.31-.22.57-.51.79-.83.44-.65.71-1.42.84-2.2.03-.17.05-.34.07-.51.11-1.24-.1-2.48-.31-3.7-.1-.61-.48-.73-1.05-.45-.21.1-.41.23-.62.35-.07.04-.65.36-.54.04.02-.06.07-.09.11-.13.18-.13.34-.32.47-.49.14-.17.33-.38.32-.56-.05-1.07-.09-2.17-.16-3.25-.07-1.07-.13-2.17-.36-3.21-.37-1.65-1.06-3.2-2.21-4.44-.68-.74-1.5-1.33-2.29-1.95-.86-.68-1.74-1.34-2.62-1.99-.26-.19-.51-.38-.77-.57-.72-.53-1.47-1.05-2.29-1.43-1.84-.85-3.91-.92-5.84-.37-.81.23-1.59.55-2.33.95-1.77.95-3.38,2.2-4.72,3.69-.28.31-.55.63-.8.97-1.2,1.57-2.17,3.35-2.77,5.24-.51,1.61-.71,3.31-.48,4.98.1.76.24,1.52.38,2.28.1.53.16,1.1.3,1.63.07.29.3,1.26.74,1.18.25-.04.35-.31.46-.49.16-.26.32-.51.46-.78.27-.54.68-.92,1.28-1.06.49-.12,1.08-.06,1.44.34-.18.06-.35.1-.5.18-.58.31-1.21.56-1.73.96-.3.23-.49.67-.62,1.06-.11.32.1.57.47.51.34-.06.67-.13,1-.21.14-.03.78-.09.78-.28,0-.18-.31-.25-.36-.43-.07-.22.21-.34.37-.41-.12.05.3.64.37.69.24.17.54.16.81.11-.25.04-.52.19-.76.28-.49.18-.96.3-1.39.62-.01,0-.02.02-.02.03,0,.01,0,.03.01.04.27.34.67.29,1.05.2.3-.07.59-.18.87-.31.44-.21,1.04-.43,1.36-.81-.03-.03-.4-.23-.45-.21.14-.23.59-.44.87-.41.36.05.61.42.8.7.14-.24.28-.48.42-.72.06-.1.12-.28.26-.15.16.14-.08.43-.14.56-.13.26-.25.53-.38.79.18.08.38-.06.52-.19.29-.29.55-.64.69-1.04.07-.2.11-.41.12-.63,0-.17,0-.42.17-.52.53-.29.27-.41-.07-.57-.93-.44-1.85-.91-2.8-1.31-.93-.4-1.9-.63-2.91-.7-.58-.04-1.13.05-1.64.33-.22.12-.41.27-.59.44-.1.1-.19.21-.28.32-.05.07-.25.28-.24.37-.04-.59-.15-1.19-.14-1.78,0-.66.14-1.32.19-1.98.05-.69-.02-1.41.14-2.07.23-.94.86-1.75,1.86-1.91.35-.06.7-.05,1.05-.05,1.83,0,3.71-.21,5.45-.8.18-.06.4-.04.6-.02.42.03.84.14,1.26.11,1.77-.12,3.53-.26,5.3-.41.38-.03.75-.12,1.13-.17.93-.12,1.79-.14,2.5.71.55.66,1,1.3,1.05,2.17.01.2.07.4.12.59.18.71-.32,1.6-1.05,1.76-.52.11-.45.31-.22.66.19.29.31.62.46.94l-.18.16c-.22-.14-.43-.27-.65-.41-.62-.4-1.26-.61-2.01-.4-.95.27-1.93.44-2.86.75-.66.22-1.36.48-1.87.93-.67.59-1.19,1.34-2.08,1.66-.03.01-.04.07-.09.16,0,0,.99,1.08,1.06,2.28.07,1.2,1.54,2.37,2.26,3.14.04.06.08.12.11.18.2.34.5.71.12,1.16-1.24-.75-2.33-.43-3.33.45-.54.47-1.12.51-1.65.11-.45-.35-.92-.39-1.39-.35.09-.36.17-.91.27-1.56-.54-.06-.87.38-.87,1.34.04.11.07.21.1.29-.13.02-.25.04-.38.06-.12.02-.3.32-.28.47.11.78.7,1.11,1.66.88.49-.12.91-.1,1.33.18.49.32,1,.35,1.47.01.6-.42,1.25-.51,1.95-.47.34.02.69-.01,1.03-.05.88-.1,1.36-.6,1.2-1.39-.11-.6-.42-1.05-.81-1.45-.05-.05-.1-.11-.16-.16-.37-.37-1.26-1.31-1.59-2.04-.23-.52-.54-1.39-.78-2.07.09.07.19.14.28.2.17.12.38.3.55.29.23-.02.47-.05.7-.09.64.52,1.81.72,2.55.8.2.03.41.05.63.05.02,0,.03,0,.03,0,.96-.01,1.92-.38,2.27-1.08-1,.43-1.97.48-2.94.44-.75-.09-1.28-.26-1.59-.41.15-.05.29-.16.42-.26.35-.29.69-.6,1.05-.93.71,1.27,1.19,1.37,2.45.71.44.04.86,0,1.29-.04.15-.02.31-.09.45-.06.23.06.7.02.9-.01-.81-.27-1.03-1.22-2.31-1.6-1.12-.23-2.44-.08-3.6.28.64-.81,1.57-1.18,2.42-1.12.08,0,.18-.01.28,0,2.44.11,2.71,2.05,3.5,2.22.15-.1.57-.11.63,0,.48.71.96,1.42.98,2.36.04,1.62-1.13,2.64-1.89,3.83-.48.76-1.06,1.44-1.33,2.32-.09.28-.23.55-.39.93-.2-.37-.3-.66-.49-.88-.39-.48-.81-.93-1.24-1.36-.09-.09-.31-.06-.65-.1.23.29.33.4.42.53.43.7.91,1.37,1.24,2.11.2.44.16.98-.34,1.35-.06-.09-.1-.13-.12-.19-.44-1.02-.46-1.03-1.41-.45-.64.39-1.33.56-2.02.29-1.14-.43-2.21-.34-3.27.21-.49.25-.97.28-1.52.15-.43-.1-.95-.14-1.36,0-.68.22-1.32.58-1.96.91-.2.11-.35.32-.53.49.24.09.48.26.72.26.76-.01,1.53-.08,2.29-.15.9-.09,1.82-.09,2.67-.33,1.17-.33,2.32-.38,3.55-.14-.57.46-1.14,1.03-1.81,1.19-1.42.35-2.88.56-4.34.68-.52.04-1.08-.34-1.61-.56-.19-.07-.34-.22-.56-.37-.19.59.18.84.44,1.12.46.49.91.95,1.06,1.65.04.2.34.46.54.48.67.08,1.36.09,2.04.09,1.15,0,2.3-.05,3.45-.02.28,0,.56.26.84.39-.2.31-.38.63-.6.93-.06.08-.21.1-.33.14-.74.27-1.41.88-2.29.44-.72.42-1.77-.11-2.33.83-.07.12-.33.13-.5.17-.72.15-1.24-.21-1.73-.67-1.69-1.61-3.16-3.39-4.51-5.29-.12-.16-.27-.3-.4-.45-.06.03-.13.07-.19.1.07.25.1.52.23.73.33.55.68,1.09,1.04,1.62,0,0,0,0,0,0,.12.17.24.34.36.51.41.72.96,2.2.39,4.46-.27.39-.66.73-1.17,1.01s-1.06.57-1.58.88c-.74.44-1.5.85-2.2,1.34-2.4,1.66-4.92,3.08-7.79,3.76-1.66.39-3,1.23-4.22,2.42-2.25,2.18-4.22,4.53-5.09,7.6-.33,1.18-.46,2.41-.68,3.62-.04.21-.07.41-.12.69,0-.01-.02-.02-.02-.03-.05.85-.13,1.69-.22,2.54.45.57.92,1.12,1.4,1.67,2,2.26,4.87,3.56,7.88,3.56ZM48.81,29.22c.69-.59,1.37-1.17,2.05-1.75-.06.27-.11.55-.21.81-.13.33-.32.63-.53,1.01.28.03.47.06.72.09-.23.73-.62,1.36-1.31,1.62-.31.12-.78-.19-1.23-.32.28-.62,1.1-.85.51-1.45Z"/>
</svg>