<?xml version="1.0" encoding="UTF-8"?>
<svg id="Capa_1" data-name="Capa 1" xmlns="http://www.w3.org/2000/svg" xmlns:xlink="http://www.w3.org/1999/xlink" viewBox="0 0 80 80">
  <defs>
    <style>
      .cls-1 {
        clip-path: url(#clippath-4);
      }

      .cls-2 {
        fill-rule: evenodd;
      }
    </style>
    <clipPath id="clippath-4">
      <path d="M107.97-56.34c.02-.19.07-.39.15-.59.25-.65.69-1.15,1.24-1.57,1.09-.81,2.32-1.18,3.68-1.08.37.03.73.15,1.09.23.05.01.1.03.17.06,0-.07,0-.12,0-.18.18-4.35.36-8.69.54-13.04,0-.05,0-.1,0-.15.56.02,1.12.04,1.68.07.02.2.02.41.08.6.15.58.49,1.06.87,1.51.55.67,1.12,1.32,1.66,1.99.51.64.95,1.36,1.14,2.16s.08,1.64-.24,2.43c-.2.49-.47.95-.83,1.34-.08.08-.18.18-.3.1-.11-.07-.07-.2-.04-.31.06-.26.14-.52.16-.78.2-1.87-.61-4.08-2.69-4.47,0,.11,0,.22-.01.32-.14,3.51-.29,7.01-.43,10.52-.1,2.43-2.97,3.84-5.18,3.6-.41-.05-.82-.14-1.2-.3-1.05-.42-1.65-1.41-1.52-2.46Z"/>
    </clipPath>
  </defs>
  <g>
    <path class="cls-2" d="M65.54,37.26c-1.61-2.58-3.07-5.04-3.06-7.5.02-5.48,4.89-11.49,4.94-11.58l.46-.49-7.66-9.39-.71.37c-.06.04-4.98,2.72-9.57,2.71-3.54,0-7.13-1.61-8.62-2.39-.46-.19-.71-.37-.71-.37l-.46-.28-.02.02-.47.25c-.05.04-4.77,2.73-9.32,2.71-4.61,0-9.55-2.73-9.61-2.77l-.65-.37-7.71,9.34.4.49c.05.1,4.94,6.12,4.93,11.61,0,2.47-1.55,4.91-3.12,7.49-1.98,3.18-4.22,6.84-4.23,11.39-.02,7.8,6.55,16.61,18.74,17.7,7.53.64,9.98,4.25,10.1,4.4l.78,1.14.02.05.77-1.18c.05,0,.14-.18.4-.51.95-1.01,3.79-3.37,9.76-3.84,12.14-1.03,18.73-9.81,18.75-17.6.01-4.56-2.2-8.22-4.12-11.42M49.89,62.59c-4.44.37-7.25,1.8-8.82,3.01-.47.33-.79.67-1.08.97l-.02-.03c-1.27-1.26-4.2-3.47-9.9-4.01-10.22-.86-15.76-8.24-15.73-14.67,0-3.75,1.88-6.77,3.66-9.72,1.6-2.56,3.09-5.03,3.11-7.71,0-4.75-3.28-9.61-4.45-11.16.66-.8,4.68-5.68,5.39-6.56,1.5.71,5.27,2.41,9.05,2.42,3.95.01,7.75-1.8,9.04-2.45h.02c.24.12.61.29,1.08.55,1.75.8,4.78,1.94,7.96,1.95,3.77,0,7.57-1.67,9.01-2.38.69.89,4.74,5.79,5.39,6.6-1.17,1.55-4.55,6.38-4.57,11.14,0,2.68,1.49,5.16,3.06,7.73,1.78,2.96,3.64,5.98,3.63,9.74-.02,6.43-5.6,13.77-15.81,14.58"/>
    <path d="M57.39,15.04s-3.61,2.43-8.04,2.42c-4.06-.01-9.23-2.85-9.23-2.85,0,0-5.18,2.81-9.23,2.8-4.5-.01-8.02-2.46-8.02-2.46l-3.7,4.95s4.04,5.4,4.03,10.91c-.02,6.97-6.46,10.66-6.48,17.26,0,1.41.41,2.82,1.14,4.15l20.69-13.79v-3.14h-.39c-.28,0-.5-.22-.5-.5v-1.47c0-.27.23-.5.5-.5h3.7c.28,0,.51.22.51.5v1.47c0,.27-.23.5-.51.5h-.35v1.16l16.59-11.06c1.22-3.13,2.98-5.39,2.98-5.39l-3.68-4.97ZM36.47,29.65c-.97,1.07-2.31,1.57-4.19,1.57h-4.98c-.28,0-.5-.22-.5-.49v-1.45c0-.27.22-.49.5-.49h.36v-6.65h-.34c-.28,0-.5-.22-.5-.49v-1.45c0-.27.23-.49.5-.49h4.76c3.61,0,5.76,2.16,5.76,5.78,0,1.7-.49,3.18-1.37,4.16Z"/>
    <path d="M31.68,22.14h-1.1v6.65h1.55c2.25,0,2.59-2,2.59-3.19,0-1.3-.29-2.2-.88-2.74-.46-.44-1.29-.71-2.16-.71Z"/>
    <path d="M56.96,30.91c0-.87.1-1.74.28-2.56l-15.74,10.49v3.23h.37c.28,0,.5.22.5.5v1.47c0,.27-.23.5-.5.5h-3.73c-.28,0-.5-.22-.5-.5v-1.47c0-.27.23-.5.5-.5h.4v-1.26l-19.6,13.06c3.08,3.89,8.77,6.73,13.97,7.12,5.27.35,7.08,3.03,7.08,3.03,0,0,.34-.45,1.08-1.04,1.06-.78,2.94-1.75,5.97-1.95,7.56-.53,16.25-6.27,16.27-12.83.02-6.61-6.37-10.33-6.35-17.3ZM57.29,46.53c0,.27-.22.49-.49.49h-.34v6.32h.34c.27,0,.49.22.49.49v1.38c0,.27-.22.49-.49.49h-2.43c-.27,0-.49-.22-.49-.49v-6.28l-1.83,6.41c-.06.21-.25.35-.47.35h-1.2c-.22,0-.41-.14-.48-.35l-1.86-6.46v.31s.01,6.02.01,6.02c0,.27-.22.49-.49.49h-2.46c-.27,0-.49-.22-.49-.49v-1.38c0-.27.22-.49.49-.49h.33v-6.32h-.33c-.27,0-.49-.22-.49-.49v-1.38c0-.27.22-.49.49-.49h3.69c.22,0,.43.15.48.37l1.03,3.64.68,2.56.66-2.61.99-3.6c.06-.21.25-.36.48-.36h3.69c.27,0,.49.22.49.49v1.38Z"/>
  </g>
  <g>
    <path d="M107.97-56.34c.02-.19.07-.39.15-.59.25-.65.69-1.15,1.24-1.57,1.09-.81,2.32-1.18,3.68-1.08.37.03.73.15,1.09.23.05.01.1.03.17.06,0-.07,0-.12,0-.18.18-4.35.36-8.69.54-13.04,0-.05,0-.1,0-.15.56.02,1.12.04,1.68.07.02.2.02.41.08.6.15.58.49,1.06.87,1.51.55.67,1.12,1.32,1.66,1.99.51.64.95,1.36,1.14,2.16s.08,1.64-.24,2.43c-.2.49-.47.95-.83,1.34-.08.08-.18.18-.3.1-.11-.07-.07-.2-.04-.31.06-.26.14-.52.16-.78.2-1.87-.61-4.08-2.69-4.47,0,.11,0,.22-.01.32-.14,3.51-.29,7.01-.43,10.52-.1,2.43-2.97,3.84-5.18,3.6-.41-.05-.82-.14-1.2-.3-1.05-.42-1.65-1.41-1.52-2.46Z"/>
    <g class="cls-1">
      <rect x="61.81" y="-118.66" width="198.45" height="122.69"/>
    </g>
  </g>
</svg>