<?xml version="1.0" encoding="UTF-8"?>
<svg id="Capa_1" data-name="Capa 1" xmlns="http://www.w3.org/2000/svg" viewBox="0 0 80 80">
  <path d="M61.62,62.24c.22.64.43,1.29.63,1.94.18.6.35,1.21.45,1.82.21,1.22.33,2.46.45,3.69.11,1.12.31,2.25.33,3.37,0,.04-.1.12-.15.12-2.39.01-4.82,0-7.18,0-.52,0-2.23.29-2.54-.18-.1-.15-.13-.35-.15-.53-.27-2.1-.72-4.18-1.27-6.22-.96-3.59-2.26-7.15-3.3-10.72-.08-.27-.12-.65-.46-.69-.18-.02-.36.05-.53.12-.7.28-1.43.51-2.17.68-.46.11-.95.19-1.42.09-1.1-.24-1.8-1.32-2.51-2.09-.85-.93-1.75-1.82-2.68-2.67l-.09,2.28c0,.07,0,.15-.05.21-.09.12-.27.09-.42.05-1.33-.38-2.65-.75-3.95-1.23-.93-.35-1.88-.77-2.52-1.53-.16-.19-.39-.41-.6-.3.27.69.91,1.16,1.55,1.54,1.84,1.1,3.9,1.84,5.95,2.45.57.17,1.15.33,1.71.53.32.12.8.2.92.56-.57.33-1.85.1-2.5.09-.81-.02-1.68-.05-2.51-.17s-1.67-.61-2.46-.51c.42.28.85.55,1.32.73.98.36,1.48.63,1.9,1.65.76,1.85,1.62,3.65,2.36,5.51.68,1.72,1.13,3.52,1.46,5.33.17.91.31,1.82.44,2.73.05.37.54,2.08.09,2.27-.07.03-.15.03-.22.03-2.13,0-4.26,0-6.39,0-1.08,0-2.16,0-3.24,0-.54,0-1.08,0-1.62,0-.35,0-.93.14-1.19-.14-.27-.29-.34-.85-.45-1.22-.17-.53-.33-1.06-.49-1.6-.31-1.07-.61-2.14-.88-3.22-.07-.28-.14-.58-.03-.84.12-.1,1.3.46,1.53.48.57.04.35-.24.02-.55-.38-.36-.81-.68-1.16-1.07-1.25-1.37-1.68-3.57-2.31-5.27l-1.48-3.99c-.43-1.17-.76-2.49-1.41-3.56-.35-.57-1.12-.06-1.57.12-.83.33-1.66.65-2.48.98l-5.06,1.99c-.16.06-.33.13-.44.26-.09.11-.14.26-.17.4-.45,1.93.15,3.95,1.01,5.74s1.96,3.46,2.62,5.32c.66,1.86.86,3.84,1.05,5.81.01.12.01.25-.08.32-.06.04-.14.05-.21.05-3.18,0-6.35,0-9.53,0-.17,0-.35,0-.49-.09-.28-.16-.31-.54-.31-.87,0-2.22-.02-4.45-.03-6.67,0-.43,0-.88.18-1.27.34-.72,1.19-1.04,1.7-1.66-.69.16-1.35.43-1.94.81.06-.04-.03-1.2-.02-1.35.03-.5.1-1,.21-1.48.22-.98.59-1.92,1.1-2.78,1.4-2.37,3.6-3.49,5.96-4.69,2.75-1.4,5.47-2.88,8.15-4.42,1.04-.6,2.1-1.18,3.05-1.91.03-.02.05-.06.08-.07.46-.15.89-.59,1.27-.88.53-.4,1.05-.8,1.58-1.19.19.33.33.75.73.35.65-.66,1.29-1.31,1.94-1.97.37-.37,1.33-1.01,1.33-1.57,0-1.08,0-2.16,0-3.24,0-.42.38,0,.48.12.12.13.29.26.47.21-.22-.55-.86-1.06-.92-1.65-.04-.42-.02-.85-.03-1.27,0-.08-.06-.15-.09-.23,0-.02-.71.56-.76.57-.14.04-.29,0-.43-.05-.4-.14-1.43-.46-1.64-.88-.05-.11-.06-.24-.06-.37,0-.81,0-1.62,0-2.42,0-.08.03-.15.08-.23-.02.03.42.76.45.87.09.29.19.59.28.88.05.16.17.71.33.78.18.08.39-.3.51-.39.24-.19.54-.3.84-.29.11,0,.23.01.3-.07.04-.05.04-.12.04-.18,0-.72-.5-1.41-1.08-1.81-.51-.35-1.27-.23-1.53-.91-.18-.48.05-1.08.51-1.3-.99-.68-.86-2.15-.62-3.33,0,.38.7,1.18.9,1.51.24.41.46.93.78,1.27.38-1.3-.45-3.35-1.55-4.11.27-.07.39-.41.34-.69-.07-.37-.36-.64-.47-1-.07-.22-.08-.48.04-.68.16-.29.56-.49.52-.82-.02-.15-.14-.27-.24-.39-1.29-1.54.77-3.16.06-4.76-.07-.17-.18-.33-.19-.52-.02-.26.16-.5.33-.7.51-.6,1.02-1.21,1.53-1.81.17-.2.34-.41.36-.66s-.17-.55-.43-.52c.65-.37.59-1.52-.1-1.82.92-.35,1.84-.71,2.75-1.06-.24-.32-.47-.64-.71-.96.64.11,1.43.15,1.77-.4.09-.15.14-.34.27-.46.16-.14.39-.15.6-.15,1.36,0,2.72,0,4.08.01.33,0,.73-.03.9-.31.09-.14.1-.33.23-.43.19-.15.46-.03.67.08,1.22.64,2.66.87,4.02.64.48-.08.96-.22,1.43-.15s.96.43.97.91c.59-.3,1.17-.6,1.76-.9.05.56.1,1.12.14,1.68.18-.24.43-.42.71-.54.43.44-.21,1.35.26,1.76.16.14.4.15.62.15.71,0,1.42,0,2.13,0-.71.4-.42,1.53.16,2.1s1.4,1,1.62,1.79c-.13.11-.25.21-.38.32,1.74,2.35,1.71,5.61.93,8.43-.14.52-.31,1.06-.28,1.6s.34,1.11.86,1.28c-1.22.71-2.22,1.8-2.82,3.08-1.02-1.69-1.05-3.77-1.21-5.74s-.54-4.1-2-5.43c-.5.59-1.62.4-1.89-.33.05.29.1.58.15.87-1.54-.16-3.23-.29-4.53.57-.19.12-.37.27-.59.3-.34.05-.66-.18-.93-.39.21.26-.21.57-.54.62-1.71.27-3.51-.12-4.94-1.08.27.89,1.46,1,2.24,1.52.12.08.25.2.24.35,0,.16-.17.27-.31.35-.91.48-2.03.86-2.4,1.83.28-.04.56-.07.85-.11-.43.72-.86,1.44-1.29,2.16.77-.42,1.53-.85,2.3-1.27-.56,1.25-1.12,2.51-1.68,3.76,1.76.01,3.52.28,5.2.79.2.06.42.14.53.32.11.17.09.39.07.59-.26,2.46-.62,5.13-2.41,6.84-.14.14-.31.32-.24.51.04.09.12.15.2.2.98.61,2.25.75,3.34.36.55-.2,1.06-.52,1.64-.55s1.25.39,1.18.97c-.95-.02-1.9.22-2.72.7-.69.4-1.34,1.28-.87,1.93,1,.17,2.14.3,2.95-.31.27-.2.54-.5.87-.44.14.03.27.12.38.21.62.51,1.13,1.15,1.48,1.87-2.49.02-4.99.03-7.48.05.44.65,1.32.82,2.1.8s1.59-.16,2.33.08c-.83,1.23-2.25,2.41-3.65,1.91-1.09-.39-1.64-1.66-2.67-2.17-.63-.31-1.55-.5-1.59-1.2-.03-.47.42-.84.87-.98s.94-.15,1.37-.34c.19-.08.37-.22.42-.42.03-.14-.01-.29-.07-.43-.41-.93-1.49-1.6-1.43-2.61.02-.41.24-.78.43-1.14.62-1.16,1.07-2.42,1.34-3.71.03-.12.05-.26.01-.38-.15-.51-1.19-.54-1.04-1.05-.41.76-1.57.95-2.2.38-.16-.15-.32-.35-.54-.33-.18.01-.31.18-.45.29-.74.6-1.81-.06-2.4-.57-.04-.03-.07-.07-.08-.12,0-.04.02-.09.04-.12.46-.87.76-1.82.91-2.8.08-.55.11-1.11.09-1.66,0-.14-.21-1.55-.19-1.55-1.21.63-1.65,2.14-1.75,3.5s0,2.8-.6,4.02c-.11.22-.24.44-.21.68.02.22.16.4.3.57.94,1.15,1.87,2.3,2.78,3.46.71.92.72,1.69.66,2.81-.04.65-.05,1.31-.02,1.96.01.39.04.8.25,1.14s.53.57.82.82c.61.53,1.12,1.18,1.54,1.86.13.21.25.43.38.64.55.85,1.23,1.61,2.16,2.04.24.11.53.2.77.08.22-.12.31-.36.45-.56.3-.43.92-.16,1.31-.04.66.2,1.3.42,1.93.71.17.08.17.19.06.33-.55.69-1.17.95-2.04.93-1.04-.02-2.15.09-3.17-.11-.61-.12-1.22-.39-1.62-.88-.39-.47-.6-1.13-1.28-1.27.5.75,1.03,1.49,1.62,2.18.42.49.95.9,1.56,1.13.64.25,1.38.23,1.96.63.3.21.53.51.68.85.24.56.36.99,1.04,1.05.68.06,1.37,0,2.05-.01.08,0,.18,0,.23.07.04.05.05.12.05.19,0,.69,0,1.37,0,2.06,0,.33.67-.48.74-.58.47-.64.84-1.35,1.1-2.1.16-.47.27-.95.39-1.44.42-1.8.84-3.59,1.26-5.39.06-.24.14-.53.05-.77-.32.06-.69.51-.91.74-.29.31-.53.65-.81.96-.04.04-.82.72-.85.55-.08-.37.38-.95.57-1.24.11-.16.21-.32.32-.47.86-1.26,1.7-2.54,2.59-3.77.03-.04.04-.09.04-.14,0-.11,0-.21.01-.32.09-.44-.34-.99-.47-1.4-.14-.41-.2-.82-.03-1.23.27-.65.7-1.27,1.01-1.91.4-.82.72-1.69,1.21-2.46.05-.08.12-.14.18-.21.1-.13.2-.26.34-.44.11.47.01.91.08,1.39.05.35.2.71.47.94.14.13.37.21.52.09.05-.04.09-.1.12-.16.21-.38.4-.77.57-1.17,0-.02.01-.03.01-.05,0-.02-.03-.04-.05-.05-.13-.06-.25-.12-.38-.18-.08-.04-.18-.11-.15-.19,0-.03.03-.05.05-.07.18-.16.39-.31.53-.51.02-.03.04-.07.04-.11,0-.04-.02-.07-.04-.1-.26-.48-.76-.83-1.31-.9-.11-.01-.23-.02-.32-.07-.19-.11-.12-.44-.12-.63,0-.06,0-.12.03-.18.07-.11.23-.12.36-.13.7-.06,1.14-.78,1.46-1.32.09-.16.97-1.66,1.17-1.42.02.03.02.07.02.1,0,.42.26,1.57-.32,1.71-.18.04-.4,0-.52.14-.05.06-.06.14-.07.21-.1.84.58,1.41.74,2.19.11.55-.03,1.1-.21,1.62s-.33,1.02-.53,1.5c-.18.43-.47.89-.93,1.07-.39.15-.92-.11-1.15.38-.06.13-.05.28-.09.42-.21.74-.51,1.48-.74,2.22-.46,1.46-.87,2.95-1.29,4.42-.18.6-.91,2.21-.28,2.6,1.34.83,2.93,1.42,4.35,2.11,1.99.97,3.97,1.95,5.95,2.94s4.03,1.77,5.67,3.13c.84.7,1.53,1.62,2.34,2.36.91.84,1.7,1.79,2.34,2.85.3.5.55,1.01.79,1.55.21.49.57,1,.55,1.55-.01.25-.1.48-.2.71-.32.8-.63,1.61-.99,2.4-.03.07-.06.14-.07.22,0,.07.02.12.07.16.11-.08.97-1.58,1.16-1.43.08.06.09.19.09.29,0,1.46,0,2.91,0,4.37,0,.73,0,1.46,0,2.18,0,.29.19,1.69-.08,1.84-.06.03-.14.04-.21.04-1.84,0-3.68,0-5.53,0-.18,0-.27-.04-.27-.25,0-2.25-.23-4.64.08-6.85.37-2.7.86-5.43.87-8.15,0-.08-.01-.16-.07-.21-.04.02-.05.05-.06.09-.08.28-.13.56-.25.83-.11.25-.23.62-.5.7-.02-.06-.04-.18-.1-.22-.25-.17-.33-.97-.39-1.24-.13-.54-.21-1.09-.36-1.63-.27-.98-1.43-1.39-2.23-1.9l-3.15-1.97-6.3-3.95c-.16-.1-.35-.21-.54-.18.2-.03,1.41,2.06,1.58,2.3.54.82,1.07,1.65,1.56,2.49,1.16,1.98,2.19,4.03,3.09,6.15.42,1,.82,2.01,1.18,3.04Z"/>
  <path d="M45.91,29.54c0,.42-.02.85-.02,1.27,0,.05,0,.1-.03.14-.07.09-.21.03-.31-.04-.48-.35-.98-.72-1.34-1.2-.56-.75-.67-1.73.09-2.38.22-.19.53-.28.79-.16.21.1.33.31.51.45.48.37,1.16.16,1.74-.04,1.21-.41,2.6-.67,3.71-.04.48.28.9.83.73,1.36-.15.48-.68.7-1.15.87-.22.08-.43.15-.65.23-.15.05-.3.1-.45.06-.31-.1-.43-.58-.76-.57-.1,0-.18.05-.26.1-.46.3-.91.77-1.46.67-.45-.08-.73-.53-1.15-.72Z"/>
</svg>