<?xml version="1.0" encoding="UTF-8"?>
<svg id="Capa_1" data-name="Capa 1" xmlns="http://www.w3.org/2000/svg" viewBox="0 0 80 80">
  <path d="M22.92,12.4c-6.91,0-12.51,5.6-12.51,12.51s5.6,12.51,12.51,12.51c.05,0,.09,0,.14,0-1.96,3.05-3.1,6.68-3.1,10.58,0,10.83,8.78,19.6,19.6,19.6s19.6-8.78,19.6-19.6c0-3.91-1.15-7.56-3.13-10.62.34.03.68.05,1.03.05,6.91,0,12.51-5.6,12.51-12.51s-5.6-12.51-12.51-12.51-12.51,5.6-12.51,12.51c0,1.53.27,2.99.78,4.34-1.83-.56-3.76-.87-5.77-.87-1.66,0-3.28.21-4.82.6.44-1.28.68-2.65.68-4.08,0-6.91-5.6-12.51-12.51-12.51Z"/>
</svg>