<?xml version="1.0" encoding="UTF-8"?>
<svg id="Capa_1" data-name="Capa 1" xmlns="http://www.w3.org/2000/svg" viewBox="0 0 80 80">
  <path d="M66.92,37.11c-1.7-2.72-3.23-5.31-3.23-7.9.02-5.78,5.15-12.11,5.21-12.21l.48-.51-8.07-9.9-.75.39c-.06.04-5.24,2.87-10.09,2.86-3.73,0-7.52-1.7-9.09-2.52-.48-.2-.75-.39-.75-.39l-.49-.29-.02.03-.5.26c-.06.04-5.03,2.87-9.82,2.86-4.86,0-10.07-2.87-10.13-2.92l-.69-.39-8.12,9.85.42.52c.05.1,5.21,6.45,5.19,12.23,0,2.6-1.63,5.18-3.29,7.89-2.09,3.35-4.45,7.21-4.46,12.01-.02,8.22,6.9,17.51,19.75,18.66,7.94.68,10.52,4.48,10.64,4.63l.82,1.2.02.05.81-1.24c.06,0,.15-.19.42-.54,1-1.06,4-3.55,10.29-4.04,12.79-1.09,19.74-10.34,19.76-18.55.01-4.81-2.32-8.67-4.34-12.04ZM50.42,63.81c-4.68.39-7.64,1.9-9.3,3.17-.5.35-.83.71-1.14,1.03l-.02-.03c-1.34-1.33-4.43-3.66-10.44-4.22-10.78-.91-16.61-8.68-16.58-15.46,0-3.96,1.98-7.14,3.86-10.24,1.69-2.69,3.26-5.3,3.27-8.13,0-5.01-3.45-10.12-4.69-11.76.69-.84,4.93-5.99,5.68-6.92,1.58.75,5.55,2.54,9.54,2.55,4.16.01,8.17-1.89,9.53-2.58h.02c.25.13.64.31,1.13.58,1.84.84,5.04,2.05,8.39,2.05,3.97,0,7.97-1.76,9.5-2.51.73.93,4.99,6.1,5.68,6.95-1.23,1.63-4.79,6.72-4.81,11.74,0,2.82,1.57,5.44,3.23,8.14,1.88,3.12,3.84,6.3,3.83,10.26-.02,6.78-5.9,14.51-16.67,15.37Z"/>
  <g>
    <path d="M38.83,21.06c-1.34,0-2.54.56-3.41,1.45.57.96.91,2.08.91,3.28s-.34,2.32-.91,3.28c.86.89,2.07,1.45,3.41,1.45,2.61,0,4.73-2.12,4.73-4.73s-2.12-4.73-4.73-4.73Z"/>
    <path d="M29.91,21.06c-2.61,0-4.73,2.12-4.73,4.73s2.12,4.73,4.73,4.73c1.34,0,2.54-.56,3.41-1.45-.57-.96-.91-2.08-.91-3.28s.34-2.32.91-3.28c-.86-.89-2.07-1.45-3.41-1.45Z"/>
    <path d="M58.33,13.7s-3.81,2.57-8.47,2.55c-4.28-.01-9.72-3-9.72-3,0,0-5.46,2.96-9.73,2.95-4.74-.01-8.46-2.59-8.46-2.59l-3.9,5.22s4.26,5.69,4.24,11.5c-.02,7.34-6.81,11.23-6.83,18.19,0,1.48.43,2.97,1.2,4.37l42.41-28.27c1.28-3.3,3.14-5.69,3.14-5.69l-3.88-5.24ZM38.83,32.22c-1.73,0-3.3-.69-4.46-1.81-1.16,1.12-2.73,1.81-4.46,1.81-3.54,0-6.42-2.88-6.42-6.42s2.88-6.42,6.42-6.42c1.73,0,3.3.69,4.46,1.81,1.16-1.12,2.73-1.81,4.46-1.81,3.54,0,6.42,2.88,6.42,6.42s-2.88,6.42-6.42,6.42Z"/>
  </g>
  <path d="M57.87,30.42c0-.91.11-1.83.3-2.7l-40.36,26.9c3.24,4.1,9.25,7.09,14.72,7.5,5.55.37,7.46,3.2,7.46,3.2,0,0,.36-.48,1.14-1.1,1.12-.83,3.1-1.85,6.29-2.06,7.97-.56,17.13-6.61,17.15-13.52.02-6.97-6.72-10.88-6.7-18.23ZM54.49,56.64l-2.71-9.27-3.84,7.79-3.84-7.79-2.71,9.27h-3.12l5-17.81,4.67,9.43,4.66-9.43,5,17.81h-3.12Z"/>
</svg>