<?xml version="1.0" encoding="UTF-8"?>
<svg id="Capa_1" data-name="Capa 1" xmlns="http://www.w3.org/2000/svg" viewBox="0 0 80 80">
  <path d="M70.03,29.77c0-2.92-.76-5.47-2.3-7.59-2.36-3.26-5.74-5.02-10.04-5.22-.42-2.25-1.54-3.49-3.41-3.79-2.4-.38-4.56.23-6.42,1.82-2.4,2.05-3.72,4.72-4.8,7.31-.14.35-.28.7-.43,1.07l-.03.08c-1.75-1.02-3.53-1.08-5.33-.18-.08-.25-.15-.48-.27-.7-.29-.56-.56-1.15-.83-1.71-.67-1.41-1.36-2.86-2.24-4.18-1.77-2.64-4.26-4.03-7.22-4.03-.06,0-.12,0-.18,0-2.18.04-3.74,1.26-4.16,3.27-.12.55-.28.65-.84.71-4.83.49-8.32,3-10.38,7.44-1.81,3.9-1.56,8.22.67,11.86,2.13,3.46,5.63,5.61,9.38,5.76-1.24,4.35-1.36,7.96-.38,11.35,1.07,3.7,3.2,6.92,6.53,9.84,3.07,2.69,6.71,4.19,10.84,4.44.51.03,1.02.05,1.52.05,5.61,0,10.44-1.98,14.36-5.9,5.2-5.19,6.63-11.66,4.37-19.77,7.95-.42,11.55-7.16,11.57-11.93ZM60.83,38.99c-.6.22-1.22.35-1.88.5-.25.05-.5.11-.74.17-.33.08-.51.04-.74-.39-.29-.54-.68-1.02-1.06-1.48-.07-.09-.15-.18-.22-.27-.2-.25-.48-.4-.73-.54-1.24-.68-2.63-.42-3.24.61-.27.46-.33,1.02-.16,1.57.2.65.69,1.21,1.34,1.52.47.23.98.35,1.47.48.36.09.7.18,1.03.3.3.11.56.34.59.45.26.94.52,1.95.57,2.94.32,6.71-2.17,11.75-7.41,14.97-6.52,4.01-14.85,3.5-20.72-1.27-4.65-3.78-6.72-8.42-6.32-14.18.01-.16.04-.33.07-.51.03-.15.06-.31.07-.47.14-1.22.47-1.94,1.82-2.23.97-.21,1.81-.99,2.55-1.68.09-.08.18-.16.26-.24.75-.69.84-1.68.22-2.54-.36-.5-.91-.76-1.52-.76-.33,0-.69.08-1.04.24-1.27.58-2.24,1.55-2.99,2.97-.12.22-.33.63-.46.67-.13.05-.56-.13-.77-.21-1.33-.54-2.43-1.46-3.36-2.82-2.14-3.12-2.85-5.99-2.25-9.02.62-3.11,4.06-6.7,6.97-7.34.21.47.42.94.63,1.41.67,1.49,1.3,2.91,1.97,4.32.16.34.13.5-.13.84-1.26,1.6-1.7,3.3-1.3,5.05.62,2.69,3.04,4.25,6.17,3.99,2.84-.24,5.1-1.56,6.74-3.93.96,1.31,2.12,1.95,3.55,1.96h.02c1.4,0,2.56-.62,3.53-1.88.96,1.57,2.38,2.76,4.32,3.63,2.57,1.15,5.81.71,7.54-1.01,1.57-1.57,1.82-4.2.61-6.4-.02-.05-.06-.11-.12-.16-.81-.81-.82-1.57-.05-2.79.5-.78.83-1.67,1.14-2.52.09-.26.19-.52.29-.77.12-.3.13-.3.35-.27,4.1.47,7.82,3.74,8.64,7.6.84,3.89-1.53,8.17-5.27,9.53ZM30.8,20.36c.98.42,1.81,1.15,2.52,2.22.64.96,1.2,2,1.67,2.9,0,0,.05.12-.06.53-.08.31-.2.62-.32.95-.63-.49-1.36-.98-2.44-.83l-1.59.21,1.5.58c.13.05.24.09.35.13.2.08.38.14.54.21.92.39,1.43,1.06,1.56,2.04.13.94-.24,1.64-1.12,2.14-1.73.97-3.16,1.05-4.49.24-.54-.33-.94-.91-1.1-1.6-.07-.3-.09-.6-.06-.88h0s.95-.27.95-.27l-.12-.4c-.05-.17-.1-.35-.15-.52-.11-.38-.23-.78-.36-1.17-.11-.34-.24-.69-.36-1.02-.22-.61-.45-1.24-.6-1.86-.24-.98-.03-1.97.63-2.87.79-1.09,1.7-1.31,3.04-.74ZM51.94,21.87c.38,1.4.31,2.7-.22,3.96l-.12.29c-.22.52-.44,1.06-.64,1.61-.09.24-.12.49-.16.72-.01.09-.03.19-.05.28l-.08.4.91.2.09-.27c.22.55.22,1.37.02,1.75-.58,1.09-1.45,1.66-2.66,1.75-1.24.09-2.3-.18-3.25-.83-.76-.52-1.17-1.31-1.1-2.15.06-.84.6-1.59,1.43-1.99.16-.08.34-.15.55-.24.12-.05.25-.1.4-.16l1.5-.63-1.62-.16c-.12-.01-.23-.02-.34-.02-.88,0-1.53.36-2.05.77-.12-.43-.24-.83-.35-1.25,0-.02.01-.07.05-.16.93-2.08,2.33-3.74,4.16-4.93.61-.4,1.29-.53,2.07-.4.74.13,1.2.59,1.43,1.46Z"/>
</svg>