<?xml version="1.0" encoding="UTF-8"?>
<svg id="Capa_1" data-name="Capa 1" xmlns="http://www.w3.org/2000/svg" viewBox="0 0 80 80">
  <path d="M32.37,34.55c-1.23-1.07-3.3-.49-4.64,1.28-.15.19-.27.39-.39.6-1.64-.91-3.47-.63-4.17.66-.6,1.11-.17,2.62.93,3.71-1.06,1.71-1.06,3.75.08,4.74,1.23,1.07,3.3.49,4.64-1.28.08-.11.16-.22.23-.34.07.05.13.09.2.13,1.69,1.05,3.65.8,4.37-.55.66-1.23.07-2.94-1.3-4.03,1.18-1.74,1.22-3.9.04-4.93Z"/>
  <path d="M62.13,35.6c-.75-5.59-1.77-12.68-6.24-16.33-3.98-3.25-9.18-2.83-13.34-.36-4.52,3.5-8.99,8.88-5.8,15.21,1.05,2.09,3.07,3.11,5.53,2.8,3.62-.45,8.03-3.91,9.75-10.62.08-.31.35-.54.64-.51.38.04.61.43.52.81-1.86,7.31-6.75,11.09-10.77,11.59-.33.04-.65.06-.96.06-2.51,0-4.62-1.27-5.76-3.52-2.18-4.31-1.49-8.69,1.96-12.88.56-.68.56-1.7,0-2.37-5.19-6.3-12.51-12.33-20.54-11.78-5.5.37-9.62,4.62-7.6,10.75,2.27,6.89,10.94,11.78,17.31,14.43l1.69.53c1.68-1.45,3.77-1.77,5.1-.61,1.55,1.35,1.5,4.2-.06,6.49,1.81,1.44,2.58,3.69,1.72,5.31-.96,1.78-3.54,2.1-5.76.72-.09-.06-.18-.12-.26-.18-.1.15-.2.3-.31.44-1.76,2.34-4.49,3.09-6.11,1.69-1.5-1.3-1.51-4-.1-6.25-1.46-1.43-2.01-3.42-1.23-4.88.92-1.71,3.33-2.07,5.49-.87.15-.27.32-.53.51-.79.05-.06.1-.12.15-.18l-1.19-.84c-2.98-1.65-6.31-1.15-7.57,1.21-1.08,2.02-.32,4.76,1.69,6.73-1.55,2.49-1.85,5.38-.83,7.35-1.22,4.51-1.52,8.32,1.2,13.19,5.92,10.57,26.62,11.92,36.52,9.11,17.04-4.83,17.26-25.06,4.65-35.46ZM58.43,67.1c-1.75,1.74-3.1,2.06-5.39,2.4-2.47.37-6.25.5-10.24.22,1.14-.27,2.24-.87,3.24-1.81.23-.22.33-.58.2-.88-.17-.39-.61-.53-.95-.33-1.09.66-2.05,1.08-2.94,1.24-.22.04-.42-.1-.48-.33-.08-.31-.13-.64-.16-.99-.02-.23.12-.43.33-.48.43-.09.82-.26,1.13-.53,2.41-2.08-1.37-5.08-3.67-3.83-1.39.75-1.71,2.38-.58,3.53.38.39.88.64,1.42.78.19.05.32.24.31.45-.01.32-.06.64-.13.95-.06.24-.3.38-.52.31-.98-.3-1.96-.91-3.07-1.81-.62-.5-1.42.32-.97.99.29.43.77.84,1.14,1.15.59.49,1.2.88,1.82,1.16-5.35-.78-10.45-2.43-12.7-5.41-4-5.3-1.58-9.36,2.45-11.77-1.51,3-.38,8.57,2.73,8.37,4.13-.26,3.77-8.5.88-9.99,1.35-.44,2.72-.72,3.99-.85,4.8-.46,10.53.17,15.37,2.29-2.82,2.1-1.92,9.62,1.63,9.4,2.76-.17,3.46-4.02,2.71-6.87.41.31.8.64,1.18.99,3.47,3.19,5.15,7.84,1.31,11.65Z"/>
</svg>