<?xml version="1.0" encoding="UTF-8"?>
<svg id="Capa_1" data-name="Capa 1" xmlns="http://www.w3.org/2000/svg" xmlns:xlink="http://www.w3.org/1999/xlink" viewBox="0 0 80 80">
  <defs>
    <style>
      .cls-1 {
        clip-path: url(#clippath);
      }
    </style>
    <clipPath id="clippath">
      <path d="M7.97,43.66c.02-.19.07-.39.15-.59.25-.65.69-1.15,1.24-1.57,1.09-.81,2.32-1.18,3.68-1.08.37.03.73.15,1.09.23.05.01.1.03.17.06,0-.07,0-.12,0-.18.18-4.35.36-8.69.54-13.04,0-.05,0-.1,0-.15.56.02,1.12.04,1.68.07.02.2.02.41.08.6.15.58.49,1.06.87,1.51.55.67,1.12,1.32,1.66,1.99.51.64.95,1.36,1.14,2.16s.08,1.64-.24,2.43c-.2.49-.47.95-.83,1.34-.08.08-.18.18-.3.1-.11-.07-.07-.2-.04-.31.06-.26.14-.52.16-.78.2-1.87-.61-4.08-2.69-4.47,0,.11,0,.22-.01.32-.14,3.51-.29,7.01-.43,10.52-.1,2.43-2.97,3.84-5.18,3.6-.41-.05-.82-.14-1.2-.3-1.05-.42-1.65-1.41-1.52-2.46Z"/>
    </clipPath>
  </defs>
  <g>
    <path d="M7.97,43.66c.02-.19.07-.39.15-.59.25-.65.69-1.15,1.24-1.57,1.09-.81,2.32-1.18,3.68-1.08.37.03.73.15,1.09.23.05.01.1.03.17.06,0-.07,0-.12,0-.18.18-4.35.36-8.69.54-13.04,0-.05,0-.1,0-.15.56.02,1.12.04,1.68.07.02.2.02.41.08.6.15.58.49,1.06.87,1.51.55.67,1.12,1.32,1.66,1.99.51.64.95,1.36,1.14,2.16s.08,1.64-.24,2.43c-.2.49-.47.95-.83,1.34-.08.08-.18.18-.3.1-.11-.07-.07-.2-.04-.31.06-.26.14-.52.16-.78.2-1.87-.61-4.08-2.69-4.47,0,.11,0,.22-.01.32-.14,3.51-.29,7.01-.43,10.52-.1,2.43-2.97,3.84-5.18,3.6-.41-.05-.82-.14-1.2-.3-1.05-.42-1.65-1.41-1.52-2.46Z"/>
    <g class="cls-1">
      <rect x="-38.19" y="-18.66" width="198.45" height="122.69"/>
    </g>
  </g>
  <path d="M64.45,29.06c-.18.05-.36.16-.51.3-.75.71-1.49,1.43-2.24,2.15l-5.01,4.83c-.56.54-.73,1.36-.42,2.04.3.67.61,1.35.92,2.02l4.91,10.66c-.13-.02-.26-.04-.39-.04-1.19-.06-2.31.3-3.31,1.05-.67.5-1.11,1.08-1.35,1.76-.24.7-.19,1.34.16,1.91.32.52.8.86,1.48,1.05.76.21,1.55.19,2.41-.07,1.04-.31,1.88-.87,2.5-1.65.49-.61.71-1.24.68-1.91-.02-.41-.18-.76-.33-1.09l-4.08-8.88c-.19-.41-.38-.82-.56-1.23-.08-.18-.15-.36-.22-.54l-.05-.12,7.26-7,3.55,7.72c-.07-.01-.14-.02-.21-.03-1.24-.1-2.4.24-3.47,1.03-.67.5-1.13,1.1-1.37,1.79-.34.97-.07,1.9.7,2.49.53.4,1.17.6,1.96.6.91,0,1.8-.25,2.64-.75.65-.39,1.14-.86,1.48-1.41.07-.11.13-.23.19-.35.35-.74.36-1.45.03-2.13-.13-.26-.24-.52-.36-.78l-5.25-11.42c-.23-.5-.46-1-.7-1.51-.2-.43-.63-.64-1.06-.52Z"/>
  <path d="M42.72,5.18c-.56-.38-1.21-.57-1.92-.39-.8.2-1.52.7-2.14,1.23-3.85,3.29-4.89,9.22-4.37,13.98.08.73.19,1.48.33,2.25l.4,2.23,2.48-1.76c-.05-.4-.1-.8-.11-1.19-.01-.58,0-1.11.06-1.6.22-2.12.92-4.22,2.14-5.99.81-1.18,3.07-3.33,4.13-1.09.24.5.28,1.08.24,1.64-.2,2.93-1.67,5.62-3.6,7.8-4.47,5.07-10.71,8.28-14.43,14.08-2.98,4.65-3.32,10.34-.36,15.1.86,1.38,1.92,2.59,3.16,3.6,3.32,2.7,7.72,4.37,12.06,4.15.84-.04,1.6-.13,2.33-.25.23-.04,1.22,5.28,1.31,5.73.6,3,.04,6.57-3.39,7.57-.38.11-.77.18-1.17.22-.75.08-1.48.06-2.18-.05-.07.03-.24-.04,0,0,.62.1,1.67-1.22,1.93-1.68.41-.71.56-1.56.48-2.37-.11-1.25-.83-2.32-1.86-3.04-2.05-1.42-5.24-1.5-7.09.3-.53.52-.92,1.17-1.15,1.88-.34,1.05-.31,2.15.07,3.29,1.14,3.35,6.1,4.63,9.27,4.44,3.29-.2,6.79-1.81,7.96-5.04.01-.03.02-.06.03-.09.65-1.88.39-3.94-.04-5.84-.12-.52-1.76-5.95-1.54-6.03,2.11-.77,3.82-1.92,5.09-3.43,4.64-5.52,1.36-14.21-5.35-16.21-1.43-.43-2.98-.57-4.47-.42-.04-.18-.11-.48-.19-.82-.2-.83-1.12-1.27-1.9-.9-.71.33-1.02,1.21-.56,1.93-.06.2-.08.24-.14.43-.14.42-1.41.73-1.77.92-.79.41-1.49,1-2.08,1.66-2.05,2.25-2.96,5.51-1.83,8.38.97,2.47,3.22,4.47,5.94,4.78.19.02.38.04.59.02.45-.04.79-.31.88-.69.08-.34-.07-.66-.41-.88-.14-.09-.3-.16-.49-.23-1.26-.42-2.13-1.17-2.66-2.32-.19-.42-.32-.87-.35-1.33-.07-.89.15-1.72.66-2.55,1.52-2.48,4.67-3.12,7.34-2.22,3.35,1.14,5.45,4.75,4.14,8.11-.55,1.41-1.65,2.55-3.02,3.21,0,0-.01,0-.02,0-.09-.38-1.46-6.2-2.02-8.58-.14-.59-.67-1.02-1.29-1.04-.89-.03-1.57.78-1.37,1.64.68,2.9,1.99,8.52,2.06,8.82.05.2-4.05.34-4.39.31-2.42-.21-4.86-1.15-6.73-2.69-1.93-1.58-3.22-3.96-3.41-6.46-.21-2.85,1.12-5.54,2.9-7.71.84-1.03,1.88-2.09,3.25-3.34.75-.68,1.53-1.35,2.28-2,.28-.24,4.59-4.05,5.27-4.69.79-.74,1.81-1.75,2.66-2.92,3.11-4.31,3.45-10.17,2.13-15.17-.59-2.23-1.55-4.61-3.25-6.25-.17-.16-.35-.31-.54-.44Z"/>
</svg>