<?xml version="1.0" encoding="UTF-8"?>
<svg id="Capa_1" data-name="Capa 1" xmlns="http://www.w3.org/2000/svg" viewBox="0 0 80 80">
  <path d="M53.88,22.13c.03-1.48.66-2.97,2.62-4.75,3.02-2.74.51-7.36.51-7.36.07,2.3-3.51,4.2-5.79,7.2-.91,1.2-1.08,2.46-.96,3.53h0c-.02.15,0,.3.04.45,0-.18-.02-.31-.03-.39.03.25.08.48.13.71-.05-.11-.08-.21-.1-.32.04.94-.04,2.95-1.66,1.94h0c-2.93-3.39-7.6-6.48-13.37-6.41-9.18.12-12.32,2.07-12.32,2.07,0,0-3.62.82-10.16,7.17-6.53,6.34-5.32,16.36-2.93,20.14,0,0,1.1,1.42,2.91,2.73l.06-.35c.38-2.08,1.48-3.96,2.94-5.61-.23-.94-.06-1.9.03-2.94.4-4.4,3.77-7.7,7.54-7.38,1.82.16,3.41.53,4.51,1.99.14-.06.28-.12.41-.17.67-.28,1.15-.45,1.34-.52.18-.09.64-.29,1.32-.57,4.12-1.7,14.37-5.19,20.46-1.09l.29.2c.15-1.02.2-1.87.22-2.48,0,0,.52-1.51,1.56-1.25.15.04.29,0,.42-.11.51-.06,1.59-.02,3.73.58,3.47.98,8.68-.38,10.23-2.76,1.55-2.38,4.2-4.12,4.2-4.12-8.94-8.21-18.17-.14-18.17-.14Z"/>
  <path d="M52.39,35.21l-.08-.06c-2.29-1.54-5.16-2.01-8.07-1.91,1.06,1.06,1.57,2.33,1.49,4.32-.12,3.15-2.03,5.65-4.27,5.57-2.24-.08-3.97-2.7-3.85-5.86.05-1.49.67-2.32,1.37-3.31-2.91.65-5.5,1.6-7.12,2.27-.67.28-1.13.48-1.32.57-.19.07-.66.24-1.34.52-.06.03-.13.06-.2.08.52,1.26.61,2.21.48,3.73-.4,4.4-3.77,7.7-7.54,7.38-2.23-.19-3.69-.86-4.76-2.91-1.43,1.64-2.51,3.49-2.88,5.54,0,0,.02.79.13,1.05,4.63,10.26,13.98,5.11,13.98,5.11,0,0-1.4,10.26,2.4,11.1,6.85,1.51,5.2-10.1,5.2-10.1,0,0,2.05,12.98,6.4,11.57,3.38-1.1,1.55-7.35.55-10.11.94,2.04,3.27,5.66,7.83,4.88,6.27-1.07-4.66-10.99-4.66-10.99,9.18-7.49,10.15-13.52,6.28-18.45ZM39.89,52.07c-.7.91-3.71-2.76-3.71-2.76,0,0-1.53,5.31-3.61,3.76-2.08-1.55,2.7-8.74,2.7-8.74,4.98,4.42,5.32,6.82,4.62,7.73Z"/>
</svg>