<?xml version="1.0" encoding="UTF-8"?>
<svg id="Capa_1" data-name="Capa 1" xmlns="http://www.w3.org/2000/svg" viewBox="0 0 80 80">
  <path d="M19.43,41.49c2.52-.31,4.3-2.57,3.98-5.06-.31-2.48-2.62-4.23-5.14-3.91-2.49.31-4.29,2.59-3.97,5.03.32,2.48,2.62,4.24,5.13,3.93Z"/>
  <polygon points="46.32 33.85 53.9 28.63 62.57 31.81 59.86 23.1 65.62 15.97 56.37 15.81 51.25 8.21 48.24 16.83 39.32 19.27 46.71 24.75 46.32 33.85"/>
  <polygon points="24.59 28.8 29.18 25.64 34.44 27.57 32.8 22.29 36.29 17.96 30.68 17.87 27.58 13.26 25.75 18.48 20.35 19.96 24.83 23.29 24.59 28.8"/>
  <path d="M71.25,37.73c-1.37-.1-2.77-.02-4.13.17-4.05.57-7.94,1.74-11.79,3.05-.63.21-.86.97-.46,1.49v.02c.24.3.62.44.99.35.99-.22,1.98-.44,2.98-.55.99-.12,2.03-.09,3.02.07.87.14,1.25.92.87,1.7-.29.6-.69,1.18-1.15,1.68-1.47,1.6-3.18,2.93-4.96,4.15l-.34-1.39c-2.41-7.93-10.36-13.21-18.98-12.12-9.78,1.24-16.44,10.39-15,19.99.3,1.98,1.63,4.62,2.57,6.21.06.1.18.15.3.13,7.64-1.69,14.31-4.45,20.98-7.09.24-.09.4.25.17.37-5.71,3.01-11.67,5.56-17.8,7.65-2.94,1-5.93,1.89-9.06,2.1-.68.05-1.39,0-2.05-.14-.83-.18-1.21-.93-.87-1.69.21-.47.46-.96.83-1.31.93-.9,1.9-1.76,2.86-2.63.13-.12.38-.35.58-.55.22-.21.3-.51.23-.8-.02-.06-.03-.13-.05-.19-.13-.58-.81-.85-1.31-.53h0c-3.38,2.13-6.7,4.34-9.65,7.04-1.11,1.02-2.15,2.15-3,3.38-1.16,1.66-.42,3.26,1.62,3.46,1.1.11,2.23.07,3.32-.05,3.97-.43,7.78-1.53,11.54-2.78,1.79-.59,3.55-1.22,5.31-1.87l1.36.92s.02.02.07.04c3.31,2.04,7.32,3.02,11.5,2.49,7.53-.95,13.64-6.79,15.18-13.54.05-.23-.21-.41-.42-.28-3.61,2.3-9.55,5.15-16.09,7.05-.23.1-.43-.28-.19-.36,4.48-1.38,18.43-8.67,28.86-17.96,1.46-1.3,2.95-2.55,3.98-4.22,1.07-1.71.22-3.3-1.82-3.45Z"/>
</svg>