<?xml version="1.0" encoding="UTF-8"?>
<svg id="Capa_1" data-name="Capa 1" xmlns="http://www.w3.org/2000/svg" viewBox="0 0 80 80">
  <path d="M72.67,64.53c-.64-.28-1.21-.51-1.76-.78-1.32-.62-2.5-1.42-3.48-2.49-1.32-1.44-1.98-3.14-2.05-5.04-.04-1.08.05-2.17.07-3.25.4.76.75,1.52,1.19,2.22.45.72,1.13,1.25,1.92,1.75-.15-.52-.28-.98-.41-1.45-.67-2.61-.71-5.25-.46-7.91.12-1.3.22-2.6.25-3.91.05-2.31-.67-4.4-1.98-6.32-.08-.12-.16-.24-.25-.36.42.09,1.09.58,1.86,1.41.53.58,1.03,1.19,1.61,1.86-.04-.3-.06-.52-.09-.73-.34-2.07-1.07-3.99-2.52-5.6-1.76-1.96-4.01-2.96-6.67-3.13-3.59-.22-6.72.98-9.6,2.94-1.64,1.12-3.05,2.48-4.3,4.01-.42.51-.48.64-.95.18-.27-.27-.1-.18-.4-.4-.26-.2-.57-.24-.9-.11-1.05.42-2.1.83-3.15,1.24l-4.38.71,3.36-1.34c.17-.06.34-.12.51-.18,1.02-.37,2.04-.76,3.02-1.22h0s0,0,0,0c.75-.35,1.48-.74,2.17-1.2.41-.27.79-.59,1.12-.95.42-.46.26-.86-.36-.95-.38-.06-.77-.06-1.15-.04-1.4.07-2.64.63-3.86,1.23l-.23-.21c.11-.08.18-.12.25-.18,1.32-1.08,2.65-2.14,3.95-3.23,1.29-1.08,2.56-2.18,3.57-3.51.3-.39.55-.83.73-1.29.2-.5-.11-.84-.66-.75-.45.07-.91.19-1.33.38-1.81.8-3.34,2.02-4.83,3.27-.85.72-1.67,1.48-2.5,2.22v-.12c.92-1.33,1.85-2.66,2.75-4.01,1-1.49,2.02-2.97,2.94-4.5.38-.64.6-1.39.78-2.12.15-.62-.27-.9-.84-.58-.55.31-1.07.69-1.55,1.11-1.31,1.16-2.35,2.55-3.44,3.9-.32.4-.67.78-1.04,1.22.28-.85.56-1.62.78-2.41.1-.37.12-.78.1-1.17-.02-.34-.3-.46-.58-.25-.31.23-.61.49-.85.8-1.11,1.45-1.83,3.1-2.34,4.83-.26.86-.43,1.75-.64,2.63l-.55,2.76c-.02.11-.05.22-.07.34h0c-.01.08-.03.15-.04.23-.25,1.36-.5,2.73-1.17,3.97-.3.56-.66,1.11-1.1,1.57-1.38,1.45-1.97,3.32-2.62,5.05-2.92-4.64,3.55-9.28,3.48-16.33-.01-1.12-.14-2.23-.33-3.33,0,0-.28-2.43-1.16-4.26.19-.93.15-1.88,0-2.84-.28-1.68-.88-3.25-1.94-4.61-.38-.48-.84-.93-1.35-1.27-.81-.55-1.57-.3-1.95.58-.23.53-.34,1.1-.51,1.69-1.51-1.09-3.25-1.67-5.05-2.09-1.07-.25-2.16-.36-3.25-.54-.07-.01-.13-.04-.19-.05h-2.32c-.58.09-1.16.16-1.74.27-2.22.45-4.11,1.45-5.59,3.15-.04.05-.08.1-.18.23,1.61-.77,3.16-1.45,4.9-1.64-1.42.82-2.55,1.92-3.46,3.25-.91,1.32-1.55,2.75-1.97,4.39.98-1.14,1.76-2.35,3.18-3.05-.13.42-.22.75-.33,1.09-.73,2.36-1.47,4.72-2.52,6.97-.26.55-.59,1.07-.88,1.61v.07c.51-.23,1.04-.43,1.54-.68,2.77-1.38,6-4.43,8.02-6.74.8-.91,1.45-1.95,2.17-2.94.04-.05.07-.11.12-.15-.4,1.42-1.1,2.76-1.21,4.26,2.32-3.02,4.48-4.89,8.27-6.02.08.32.05,1.43-.31,1.55-2.67.89-4.87,2.45-6.77,4.44-.97,1.02-1.8,2.14-2.52,3.34-.05.09-.12.18-.2.26-.05-.99.07-1.95.37-2.9-.03,0-.06-.01-.06,0-1.2,1.51-2.72,2.7-4.32,3.78-.29.19-.34.37-.24.67.24.74.47,1.49.64,2.25.1.45.14.94.09,1.4-.08.7-.48,1.21-1.22,1.43-.8.23-.89.46-.54,1.2.68,1.43,1.91,2.22,3.4,2.69,1.98.62,4.02.66,6.06.44.82-.09,1.63-.26,2.43-.39-.18.64-.39,1.31-.54,2-.61,2.78-.45,5.48.93,8.03.58,1.07,1.31,2.02,2.39,2.7.08.05.14.19.14.29-.34,4.95-1.57,9.65-4.33,13.9-.23.35-.42.73-.58,1.11-.2.49-.02.76.52.83.41.05.84.04,1.26.06.07,0,.13,0,.24.02-.2.29-.4.54-.56.81-.16.26-.32.53-.43.82-.19.5-.03.88.5,1.05.62.19,1.27.33,1.92.41,2,.26,4.01.14,6.02,0,.88-.06,1.05-.25,1.35-1.08.52-1.43.92-2.89,1.13-4.4.34-2.47.35-4.95.05-7.42-.18-1.5-.43-2.99-.66-4.53.07,0,.19,0,.31,0,1.15,0,2.29.01,3.44.04.14,0,.32.07.4.17,1.47,1.78,2.51,3.76,2.9,6.02.48,2.76-.04,5.36-1.38,7.83-.22.42-.45.84-.6,1.28-.15.47.05.8.55.88.5.09,1.01.08,1.52.1.21.01.42,0,.67,0-.13.25-.25.47-.34.7-.14.36-.04.61.34.72.38.11.78.15,1.16.21.15.03.31.04.47.06h3.13c.63-.06,1.26-.13,1.89-.19.06,0,.11,0,.17-.01,1.3-.1,1.74-.51,2.11-1.71.98-3.14.71-6.27-.04-9.39-.54-2.23-1.3-4.38-2.37-6.43-.45-.86-.92-1.05-1.86-.74-.28.09-.54.2-.89.33.35-.57.68-1.08.97-1.6.89-1.55,1.6-3.17,1.85-4.95.2-1.42.07-2.8-.58-4.11-.02-.04-.03-.08-.05-.12,2.16-.99,4.52-.87,6.06,1.05.96,1.2,1.47,2.59,1.84,4.03.63,2.45.84,4.95.9,7.47.02.92,0,1.84.06,2.76.73-.74,1.06-1.67,1.38-2.59.04,0,.07,0,.11,0,0,.67-.02,1.34,0,2.01.1,2.33.41,4.63,1.36,6.81.46,1.05,1.08,2,1.92,2.81.09.08.18.16.32.29-.62-2.27-1.18-4.47-.79-6.79.04.13.08.25.12.38.5,1.75,1.24,3.39,2.49,4.77,1.27,1.41,2.9,2.21,4.77,2.62.36.08.72.15,1.1.19-1.08-.71-1.96-1.58-2.54-2.73,2.13,1.79,4.63,2.23,7.42,1.95Z"/>
</svg>