<?xml version="1.0" encoding="UTF-8"?>
<svg id="Capa_1" data-name="Capa 1" xmlns="http://www.w3.org/2000/svg" viewBox="0 0 80 80">
  <circle cx="50.7" cy="47.75" r="8.4"/>
  <path d="M13.13,6.54v40.04c0,14.84,12.03,26.87,26.87,26.87s26.87-12.03,26.87-26.87V6.54H13.13ZM51.21,12.03h4.89v1.91h-2.82v2.93h2.21v1.91h-2.21v4.5h-2.07v-11.27ZM46.58,12.03l1.8,11.27h-2.09l-1.2-7.96-.62,4.14h.48v1.84s-.75,0-.75,0l-.3,1.98h-1.93l1.8-11.27h2.81ZM36.99,12.03h5.65v1.91h-1.79v9.35h-2.07v-9.35h-1.79v-1.91ZM30.82,12.03h2.46l1.45,5.37v-5.37h1.88v11.27h-2.07l-1.82-6.74v6.74h-1.9v-11.27ZM25.81,12.03h2.81l1.8,11.27h-2.09l-1.2-7.96-.62,4.14h.48v1.84s-.75,0-.75,0l-.3,1.98h-1.93l1.8-11.27ZM18.4,19.65h1.98v.96c0,.78.36.88.71.88s.71-.1.71-.88c0-.95-.65-1.55-1.41-2.24-.91-.83-1.94-1.77-1.94-3.54,0-1.88.96-2.92,2.7-2.92s2.7,1.04,2.7,2.92v.52h-1.98v-.63c0-.79-.33-.9-.68-.9s-.68.11-.68.9c0,.95.65,1.55,1.41,2.24.91.83,1.94,1.77,1.94,3.54,0,1.88-.97,2.92-2.73,2.92s-2.73-1.04-2.73-2.92v-.85ZM61,46.13c0,5.61-2.18,10.88-6.15,14.85-3.97,3.97-9.24,6.15-14.85,6.15s-10.88-2.18-14.85-6.15c-3.97-3.97-6.15-9.24-6.15-14.85v-20.85h42v20.85ZM61.6,13.94h-2.96v2.68h2.35v1.91h-2.35v2.84h2.96v1.91h-5.03v-11.27h5.03v1.91Z"/>
</svg>