<?xml version="1.0" encoding="UTF-8"?>
<svg id="Capa_1" data-name="Capa 1" xmlns="http://www.w3.org/2000/svg" viewBox="0 0 80 80">
  <path d="M63.87,20.63c-.62-.04-1.25-.02-1.87,0-.59.02-.96-.27-1.13-.82-.17-.54-.32-1.09-.45-1.64-.17-.7-.31-1.4-.61-2.06-.14-.31-.29-.6-.54-.83-.06-.05-.12-.1-.18-.14-.11-.01-.23-.02-.34-.04-.47.2-.64.64-.78,1.08-.22.69-.39,1.39-.61,2.08-.13.41-.3.81-.49,1.2-.29.59-.8.81-1.43.81-.57,0-1.13-.12-1.68-.26-.76-.19-1.52-.39-2.28-.57-.23-.05-.48-.06-.7.1-.02.19-.04.39-.06.58.48,1,1.3,1.68,2.16,2.31.37.27.74.54,1.09.83.33.27.53.61.39,1.06-.05.16-.1.32-.18.46-.3.56-.63,1.11-.93,1.67,0,0-.52.55-.73,1.8-.06.22-.1.44-.14.67-.04.27-.05.54.06.79.03.69.16,1.5.43,2.45,0,0,0,0,0,0,0,.1,0,.2.01.31.05.49-.12.85-.49,1.16-1.1.93-2.22,1.86-3.43,2.64-.45.29-1.81,1.37-2.37,1.08-.72-.37.19-2.61.35-3.11.47-1.48.87-2.82.98-4.38.1-1.39-.62-2.22-2.21-2.57-1.34-.3-2.52-.89-3.55-1.8-.71-.62-.83-1.3-.36-1.94.18-.21,2.38.72,2.72.81.43.12.89.22,1.33.21.34,0,.73-.12,1-.32.52-.39,1.08-.7,1.38-1.26.06-.11-.22-.5-.17-.61.07-.15.61-.02.64-.19.1-.68.04-1.08.4-1.32.61-.4.36-.68-.13-.97-.21-.12-.24-.48-.23-.72,0-.28.05-.55.14-.8.32.04.71-.07.93-.15.04-.01.03-.07,0-.08-.38-.05-.62-.16-.72-.22.13-.22.29-.43.49-.61.65-.6,1.03-1.34,1.3-2.16.13-.39.36-.64.73-.8,1.26-.53,2.27-1.34,2.77-2.67.69-1.81,0-3.45-1.68-3.84-.68-.16-1.44.04-2.17.11-.7.07-1.39.19-2.09.25-.44.04-.79-.18-1.13-.48-.28-.25-.63-.43-.97-.61-.45-.24-.94-.41-1.35-.7-1.19-.85-2.5-1.16-3.94-1.02-.75.08-.92.01-1.08-.74-.02-.09-.04-.17-.07-.26-.23-.78-.82-1.4-1.6-1.6-1.02-.26-2.07.23-2.55,1.16-.04.08-.08.16-.12.23-.33.65-.4.65-1.09.46-5.93-1.58-9.18,5.92-8.3,10.87.48,2.7,1.82,5.3,2.72,7.88.39,1.12,1.12,2.54.66,3.73-.4,1.04-1.42,1.52-2.48,1.42-.55-.05-1.09-.2-1.63-.3-.54,1.47.2,2.83,1.63,3.21,4.17,1.11,7.4-3.47,7.46-7.26.02-1.2-.15-2.42-.35-3.61-.49-2.88-1.42-5.73-1.51-8.67-.05-1.46,2.13-2.8,2.63-.92.11.4.08.83-.04,1.23-.58,1.9-.08,6.42,2.11,7.48.72.35.8.94.8,1.61,0,.81-.27,1.56-.73,2.22-1.93,2.78-2.03,6.03-1.61,9.26.2,1.56.5,3.11.67,4.68.12,1.09.57,3.21-.3,4.08-.27.27-.63.4-.98.54-3.71,1.44-6.44,3.57-7.31,7.73-.68,3.25,1.91,6.16,4.71,7.29,3.44,1.39,6.23.55,9.57-.54,2.75-.9,5.49-1.83,8.23-2.74.1-.03.21-.05.32-.08.39-.11.77-.1.97.31.21.41.09.82-.25,1.11-.45.39-.92.76-1.42,1.1-2.71,1.84-5.42,3.79-8.47,4.9-2.16.79-4.51.65-6.64-.08-2.15-.73-3.73-2.12-5.54-3.45-3.12-2.31-6.92-4.53-10.73-2.31-2.52,1.47-5.89,5.3-5.39,8.66.13.86,1.18.35,1.61.13,1.41-.68,2.54-1.08,4.08-1.15,1.32-.06,2.64.03,3.93.23,1.07.17,2.56.27,3.39,1.06-.14-.14-1.68.53-1.91.6-.69.23-1.38.48-2.06.77-1.31.56-2.58,1.27-3.67,2.24-1.82,1.62-3.05,3.93-2.92,6.5.04.86.45,3.12,1.72,2.75.35-.1.2-.91.28-1.21.13-.51.42-.99.82-1.31.55-.43,1.25-.57,1.92-.66,4.37-.59,8.91.19,13.19-1.24,1.68-.56,3.29-1.49,4.51-2.87,1.2-1.36,1.65-3.31,2.94-4.57,1.12-1.1,2.92-1.75,4.32-2.29,2.79-1.09,5.71-1.81,8.34-3.35,2.36-1.38,5.14-2.47,6.99-4.66,2.24-2.64,1.48-5.82-.68-8.18-.6-.66-1.33-1.15-2.14-1.51-1.96-.89-4.35-1.07-6.36-1.17-3.31-.16-6.66.14-9.95-.29.48-.76,1.4-1.69,2.31-1.97.47-.15.97-.14,1.44-.25,2.07-.44,3.98-2.75,5.58-4.07,1.15-.95,2.32-1.88,3.48-2.83,1.32-1.06,2.91-1.58,4.41-2.3.73-.35,1.48-.67,2.21-1.04.14-.07.21-.3.32-.45-.18-.05-.36-.15-.53-.13-1.11.15-2.22.34-3.33.5-.37.05-.8.07-.96-.29-.11-.25-.02-.64.06-.93.1-.34.31-.66.44-.99.04-.09,0-.22-.01-.33-.07.02-.15.03-.22.05-.47.11-1.62.32-2.31.07.12-.09.24-.19.36-.28.63-.47,1.26-.94,1.91-1.38.21-.14.47-.23.72-.29.4-.1.76.07,1.08.31.47.36.92.75,1.39,1.11.8.61,1.67,1.13,2.63,1.44.3.1.61.18.93.09.2-.06.27-.17.24-.38-.07-.48-.28-.91-.46-1.34-.3-.72-.61-1.44-.9-2.16-.09-.22-.14-.46-.17-.69-.08-.7.24-1.23.77-1.65.45-.35.99-.54,1.52-.74.48-.18.98-.33,1.46-.51.2-.08.38-.2.57-.3.02-.18.04-.37.06-.55-.81-.73-1.81-.86-2.83-.93Z"/>
</svg>