<?xml version="1.0" encoding="UTF-8"?>
<svg id="Capa_1" data-name="Capa 1" xmlns="http://www.w3.org/2000/svg" viewBox="0 0 80 80">
  <path d="M70.15,10.11c-1.34-1.34-4.46-3.65-6.04-1.44-1.08,1.52-.57,7.87-.63,10.06-.13,5.12-.64,9.94-1.71,14.94-.28,1.33-.55,2.73-1,4-1.31-4.36-2.89-9.11-6.88-11.72-2.49-1.63-5.43-1.85-7.92-3.46-1.27-.83-2.4-1.99-2.62-3.56l-1.04.97c-.78-.85-1.96-1.46-3.12-1.18l.97,1.6c-1-.09-1.88.17-2.78.56-.25.33,1.19.75,1.25,1.11-7.97.7-14.05,4.43-17.24,11.85l-1.22,3.15c-.44-1.43-.97-2.83-1.51-4.23-.86-2.22-1.78-4.42-2.52-6.67-1.2-3.68.42-7.93.7-11.8.1-1.42.18-3.85-.06-5.21-.72-4.01-5.21-1.45-7.08.15-.44.38-1.97,1.82-2.02,2.3-.11,1.12,1.78,3.05,1.51,3.86-.1.29-1.35.26-1.82.41-4.64,1.39-3.71,11.52-2.84,15.12,1.52,6.36,4.45,11.21,9.47,15.38,1.89,1.57,4.08,2.43,5.94,3.78.5.36.98.76,1.42,1.22.31.32.6.87.9,1.18,1.64,1.65,4.28,2.49,6.52,2.85-3.78,2.86-6.34,7.21-6.74,11.94l7.09,2.63c.15-.69-.5-1.39,0-2.08.32.54.32,1.24.76,1.74.33.37.97.58,1.39.83l-.08.35c-.57.08-.98-.16-1.45-.42-.22,1.5,1.41,2.17,2.67,1.76.73-.24,1.41-1.16,1.36.32.49.01.99-.09,1.43-.3.75-.36,1.23-1.76,1.62-.25,3.62-1.14,3-6.37.77-8.61-2.15-2.16-4.68-2.5-7.6-2.04-.55.09-1.08.25-1.61.4-.26.08-.41-.29-.17-.42.15-.08.3-.15.41-.19,1.6-.55,3.45-.65,5.13-.77-.05-.63-.21-1.19-.44-1.7.9.15,1.77.46,2.56.92,1.15.68,2.13,1.68,3.37,2.17.25.1.51.18.78.19.66.04,1.28-.32,1.82-.71,1.22-.88,2.31-2.01,3.73-2.52.62-.22,1.28-.32,1.92-.46.39-.08.8-.2,1.13-.41-.01.05-.02.1-.04.15-.36,1.05-1.66,1.11-1.36,2.31.17.24,1.64.1,2.07.15,1,.11,2.3.59,3.29,1.24.17.11.04.38-.15.31-2.28-.76-5.23-1.05-7.3-.09-3.88,1.8-5.79,7.2-2.15,10.21l.09-.53c.67-.41.95.58,1.52,1.01.45.34.83.49,1.37.64.11-.13-.94-1.4-.07-1.39.31,0,.97.97,1.46,1.19,1.06.48,2.73.11,2.77-1.26,0-.31-.21-.58-.11-.93.12-.43,1.96-1.3,1.51-2.46.39-.53.23,1.07.28,1.11.86-.06,6.97-2.46,7.03-2.84-.49-4.68-3.16-8.59-6.76-11.46,2.08-.14,4.28-.85,5.93-2.17,0,0,0,0,0,0,0,0,.01-.02.03-.03.08-.06.17-.12.24-.19.15-.13.26-.3.31-.47.32-.38.77-.88,1.32-1.45.1-.1.18-.21.26-.32.1-.12.21-.24.32-.35.02-.02.04-.04.06-.06,2.1-2.09,5.59-2.88,7.97-4.96,2.19-1.91.74-2.25.52-4.27-.1-.93,1.02-.37,1.83-.46,3.25-.36,4.35-5.25,4.76-7.87,1.26-8.15.58-16.22-5.5-22.31ZM55.27,47.36c-.94.57-1.96.91-2.97.99-.11,0-.13-.16-.03-.19,2.29-.74,4.03-3.77,4.26-6.29.29-3.11-1.05-7.43-4.65-6.93-.31.04-.61.12-.89.23-.08.03-.08.16,0,.18,1.46.35.99,3.69-.5,3.8-1.21.09-1.52-1.47-1.15-2.63.03-.1-.08-.17-.14-.1l-.02.02c-.66.72-1.11,1.63-1.26,2.61-.46,3.09-.02,5.64.49,6.85.6,1.42,1.81,1.97.83,1.8-.94-.16-1.68-2.09-2.04-3.26-.07-.23-.37-.22-.44,0-.51,1.79-1.69,3.44-3.29,4.52-.22.15-.55.36-.87.58-.39.25-.24.89.21.91,2.95.18,9.48.49,11.74-.05.27-.07.54-.16.8-.25.19-.07.67-.12.48-.37-.15-.19-.3-.39-.31-.63,0-.07.01-.16.06-.21.04-.04.11-.05.16-.07.16-.03.32-.06.47-.01.37.1.7.52.99.77.06.06.13.11.19.17.27.26.26.72-.03.95-.3.24-.6.42-.87.5-.61.12-1.25.4-1.66.48-.64.13-1.28.22-1.93.28-1.31.12-2.62.11-3.93.05-2.65-.12-5.3-.45-7.95-.42-.21,0-.42,0-.63.02-1.57.06-2.35.27-3.91.48.19.16.39.37.73.51,1.24.5,2.44.38,3.77.41.98.02,1.96.04,2.93-.04.17-.01.55,0,.7.12.14.11.19.6.04.71-.11.08-.35.14-.48.14-1.56.06-3.12.09-4.69.09-1.35,0-2.74-.43-3.96-1.04-.33-.16-.67-.43-.75-.78-1.21.16-2.41.31-3.62.37-.6.03-1.2.03-1.79,0-1.04-.07-2.1-.47-3.06-1.02-.16-.06-.31-.13-.46-.21-.7-.39-1.26-1.12-2.04-1.28.29-.77,1.02-.74,1.7-.53.37.04.91.06,1.33.17.16.04.18.27.04.36-.2.11-.46.2-.66.21-.08,0-.12.11-.06.17.28.29.63.48,1.01.61,3.62.47,7.32-.19,10.96-.59.45-.05.58-.69.18-.92-.8-.47-1.77-1.09-2.44-1.68-.77-.68-1.34-1.41-1.74-2.16-.1-.19-.37-.16-.42.06-.2.84-.66,2.2-1.62,2.52-.8.26.19-.39.68-1.86.4-1.18.75-3.63.45-6.62-.06-.63-.28-1.23-.64-1.74-.19-.27-.39-.51-.62-.73-.08-.08-.22.01-.18.13.32.87.22,1.97-.48,2.42-1.83,1.18-2.96-2.79-1.45-3.52.1-.05.08-.2-.03-.22-.43-.09-.89-.11-1.38-.04-5.4.71-4.52,11.08.36,12.42.13.04.1.23-.03.22-2.95-.18-6.11-2.41-6.41-5.63-.34-3.7,2.32-14.15,6.37-14.89,2.57-.47,3.52,1.84,3.93,4.08.44,2.4.96,4.83,1.23,7.28.02.16.21.2.28.07.71-1.27,1.8-2.27,3.05-2.89.18-.09.37-.17.56-.24-.74.46-1.41,1.12-1.95,1.9-.11.17-.24.34-.33.53-.07.14-.08.29-.13.44-.15.45-.32.86-.41,1.34-.18.94-.17,1.94.05,2.87,0,.04.02.07.03.11.33,1.3,1.04,2.39,1.86,3.26,1.24,1.32,2.88,2.21,4.45,1.75.91-.27,1.71-.96,2.38-1.8.78-.99,1.41-2.21,1.65-3.59.36-2.05-.23-4.3-1.41-5.74-.25-.31-.53-.58-.82-.81-.04-.03-.09-.06-.14-.1.33.16.65.35.94.53,1.36.84,2.23,1.93,2.69,3.11.06.16.29.12.3-.05.1-1.92.38-3.83.57-5.75.19-1.89.45-4.08,1.63-5.6.58-.74,1.38-1.19,2.28-1.27,2.57-.21,4.91,3.81,5.8,5.99,1.76,4.3,2.53,10.94-1.94,13.67Z"/>
</svg>