<?xml version="1.0" encoding="UTF-8"?>
<svg id="Capa_1" data-name="Capa 1" xmlns="http://www.w3.org/2000/svg" viewBox="0 0 80 80">
  <path d="M66.45,47.16c-2.37,1.95-4.6,2.44-6.65,1.44,5.23-.77,8.01-3.47,8.31-8.06-.35,1.77-1.68,2.93-3.98,3.49-2.36.57-3.92-.1-4.68-2.03,1.41-.24,2.48-.89,3.24-1.98.19-.27.36-.57.49-.88.13-.32.21-.66.33-.99.15-.43.41-.79.85-.96.44-.17.94-.15,1.38-.01.07.02.14.05.21.07.04.02.15.04.18.08,0,0-.84-1.42-2.06-.93-.44.18-.81.46-1.08.84-.19.27-.34.56-.48.86-.13.26-.35.5-.56.7-.54.55-1.39.79-2.19.73.73-.32,1.7-1.25,2.92-2.81.03-.04.67-.91.7-.97.97-1.69,1.23-3.25.81-4.71-.26,2.45-1.65,4.5-4.13,6.16.54-.44,1.02-2.18,1.47-5.23.32-2.42,1.32-3.45,3.02-3.08-1.74-.71-3.53.43-5.75,2.36-2.28,1.91-4.58,1.96-6.55,1.2,5.02-.45,7.52-2.41,7.48-5.93,0,.05-.16.25-.48.58-.7.68-1.57.59-2.29,0-.69-.57-1.16-1.35-1.87-1.91-.51-.4-1.08-.66-1.69-.88-1.47-.54-2.75-.51-3.83.06,1.03-.9,2.34-1.93,4.09-1.33.34.12.64.25.92.39.67.35,1.26.96,2.09.92.64-.04,1.7-.31,1.78-1.08-.02.14-.68.35-.79.38-.53.17-1,.11-1.43-.26-.78-.66-1.27-1.54-2.15-2.11-.09-.06-.18-.1-.27-.14-.03-.02-.06-.04-.09-.05-.87-.43-1.94-.72-3.2-.87-3.72-.41-6.6,1.23-8.84,3.16.89-1.92,3.56-3.69,7.94-4.37-1.52-.55-3.33-.8-5.4-.79-2.24,0-3.97.82-5.09,1.52.8-1.83,4.29-2.97,8.96-2.75-.11,0-1.52-.51-1.86-.56-1.39-.21-2.84-.29-4.23-.02-1.03.2-1.96.69-2.89,1.16-.66.34-1.34.64-2.02.92-.6.25-1.24.59-1.9.63-.72.05-1.23-.36-1.4-1.03-.09-.36-.16-.73-.27-1.09-.14-.47-.27-1.14-.62-1.52-.21,0-.7.71-1.48,2.14-.15-.16-.34-.47-.54-.92-.2-.45-.42-.72-.63-.77-.27.48-.35,1.29-.2,2.41.05.5.15.9-.11,1.39-.13.24-.3.44-.48.65-1.04,1.2-2.05,2.39-3.17,3.51-1.17,1.16-2.33,2.33-3.5,3.49-2.31,2.49-4.21,4.42-5.67,5.79-3.43,3.42-5.16,5.53-5.18,6.3,0,.42.2.93.59,1.46.58.71.94,1.24,1.11,1.57.17.31.27.77.34,1.47.07.53.2.93.36,1.19.64.89,1.66,1.29,2.99,1.12,2.95-.28,4.18-.42,3.66-.43.52-.26,1.07-.79,1.68-1.68.52-.86,1.09-1.46,1.67-1.78,1.28-.68,3.9-1.02,7.83-1.01.79.02,1.53.01,2.22-.02.54,3.52.53,6.93-.03,10.22,0,0-8.49,13.94-1.43,24.21-.36-.52,3.14-4.5,3.53-4.87,5.27-4.92,9.97-4.34,16.59-6.77,4.7-1.72,8.23-4.1,7.01-9.57,3.31-1.39,5.8-4.05,7.48-7.98-.17-.07-.52.11-1.06.55Z"/>
  <path d="M16.8,9.37c-.39,3.13,2.31,3.8,2.31,3.8.07.87.43,2.5,2.04,3.34,0,0-.18,1.12.61,2.2.6,1.02,1.98,1.05,1.98,1.05,0,0,.05,1.57,1.22,2.87.36-.42.72-.85,1.08-1.28.58-.71,1.41-1.51,2.11-2.35.15-.89.28-1.77.33-2.53-.3-.17-.5-.26-.5-.26-.71-2.28-2.92-3.12-3.08-3.18-.39-2.6-3.5-2.62-3.5-2.62-.19-2.33-2.72-2.76-2.72-2.76-.01,0-.04,0-.04,0-.28-1.33-1.45-2.28-2.54-2.87-.56-.31-1.95-1.06-2.06-.06-.09.77.35,1.68.68,2.4.45.97,2.1,2.26,2.1,2.26Z"/>
</svg>